%TF.GenerationSoftware,KiCad,Pcbnew,7.0.11*%
%TF.CreationDate,2024-10-20T12:39:06+07:00*%
%TF.ProjectId,V3,56332e6b-6963-4616-945f-706362585858,rev?*%
%TF.SameCoordinates,Original*%
%TF.FileFunction,Soldermask,Top*%
%TF.FilePolarity,Negative*%
%FSLAX46Y46*%
G04 Gerber Fmt 4.6, Leading zero omitted, Abs format (unit mm)*
G04 Created by KiCad (PCBNEW 7.0.11) date 2024-10-20 12:39:06*
%MOMM*%
%LPD*%
G01*
G04 APERTURE LIST*
G04 Aperture macros list*
%AMRoundRect*
0 Rectangle with rounded corners*
0 $1 Rounding radius*
0 $2 $3 $4 $5 $6 $7 $8 $9 X,Y pos of 4 corners*
0 Add a 4 corners polygon primitive as box body*
4,1,4,$2,$3,$4,$5,$6,$7,$8,$9,$2,$3,0*
0 Add four circle primitives for the rounded corners*
1,1,$1+$1,$2,$3*
1,1,$1+$1,$4,$5*
1,1,$1+$1,$6,$7*
1,1,$1+$1,$8,$9*
0 Add four rect primitives between the rounded corners*
20,1,$1+$1,$2,$3,$4,$5,0*
20,1,$1+$1,$4,$5,$6,$7,0*
20,1,$1+$1,$6,$7,$8,$9,0*
20,1,$1+$1,$8,$9,$2,$3,0*%
G04 Aperture macros list end*
%ADD10R,1.600000X1.600000*%
%ADD11C,1.600000*%
%ADD12C,0.500000*%
%ADD13C,6.000000*%
%ADD14C,1.400000*%
%ADD15O,1.400000X1.400000*%
%ADD16R,1.700000X1.700000*%
%ADD17O,1.700000X1.700000*%
%ADD18R,2.000000X2.000000*%
%ADD19C,2.000000*%
%ADD20R,1.200000X1.200000*%
%ADD21C,1.200000*%
%ADD22RoundRect,0.102000X-0.810000X-0.810000X0.810000X-0.810000X0.810000X0.810000X-0.810000X0.810000X0*%
%ADD23C,1.824000*%
G04 APERTURE END LIST*
D10*
%TO.C,C101*%
X162762276Y-55145944D03*
D11*
X164762276Y-55145944D03*
%TD*%
D12*
%TO.C,KiKit_MB_15_3*%
X46730000Y-90105000D03*
%TD*%
D13*
%TO.C,H102*%
X230893444Y-82070944D03*
%TD*%
D14*
%TO.C,R101*%
X144662388Y-71945944D03*
D15*
X137042388Y-71945944D03*
%TD*%
D16*
%TO.C,J104*%
X29353444Y-42766944D03*
D17*
X29353444Y-45306944D03*
X29353444Y-47846944D03*
X29353444Y-50386944D03*
%TD*%
D11*
%TO.C,C114*%
X252979444Y-136680944D03*
X255479444Y-136680944D03*
%TD*%
D12*
%TO.C,KiKit_MB_13_3*%
X250270000Y-88105000D03*
%TD*%
D18*
%TO.C,C110*%
X87255767Y-46624323D03*
D19*
X92255767Y-46624323D03*
%TD*%
D14*
%TO.C,R105*%
X258039444Y-129568944D03*
D15*
X250419444Y-129568944D03*
%TD*%
D10*
%TO.C,C106*%
X202393332Y-55145944D03*
D11*
X204393332Y-55145944D03*
%TD*%
D12*
%TO.C,KiKit_MB_24_2*%
X199135000Y-90105000D03*
%TD*%
%TO.C,KiKit_MB_26_4*%
X252270000Y-90105000D03*
%TD*%
%TO.C,KiKit_MB_18_3*%
X97865000Y-90105000D03*
%TD*%
%TO.C,KiKit_MB_14_2*%
X70797500Y-123657500D03*
%TD*%
D11*
%TO.C,C114*%
X201844444Y-136680944D03*
X204344444Y-136680944D03*
%TD*%
D12*
%TO.C,KiKit_MB_23_4*%
X224202500Y-125657500D03*
%TD*%
D20*
%TO.C,C103*%
X191258444Y-138240944D03*
D21*
X192758444Y-138240944D03*
%TD*%
D14*
%TO.C,R105*%
X155769444Y-59463944D03*
D15*
X148149444Y-59463944D03*
%TD*%
D14*
%TO.C,R103*%
X199284444Y-132870944D03*
D15*
X206904444Y-132870944D03*
%TD*%
D12*
%TO.C,KiKit_MB_20_2*%
X173067500Y-123657500D03*
%TD*%
D13*
%TO.C,H102*%
X77488444Y-82070944D03*
%TD*%
D12*
%TO.C,KiKit_MB_26_2*%
X250270000Y-90105000D03*
%TD*%
D13*
%TO.C,H102*%
X26353444Y-82070944D03*
%TD*%
D20*
%TO.C,C103*%
X140123444Y-138240944D03*
D21*
X141623444Y-138240944D03*
%TD*%
D22*
%TO.C,AR101*%
X185248444Y-35005000D03*
D23*
X187788444Y-35005000D03*
X190328444Y-35005000D03*
X192868444Y-35005000D03*
X195408444Y-35005000D03*
X197948444Y-35005000D03*
X200488444Y-35005000D03*
X203028444Y-35005000D03*
X205568444Y-35005000D03*
X208108444Y-35005000D03*
X210648444Y-35005000D03*
X213188444Y-35005000D03*
X215728444Y-35005000D03*
X218268444Y-35005000D03*
%TD*%
D12*
%TO.C,KiKit_MB_24_4*%
X201135000Y-90105000D03*
%TD*%
D14*
%TO.C,R103*%
X97014444Y-62765944D03*
D15*
X104634444Y-62765944D03*
%TD*%
D12*
%TO.C,KiKit_MB_11_4*%
X198135000Y-88105000D03*
%TD*%
D16*
%TO.C,J104*%
X131623444Y-112871944D03*
D17*
X131623444Y-115411944D03*
X131623444Y-117951944D03*
X131623444Y-120491944D03*
%TD*%
D13*
%TO.C,H101*%
X168623444Y-95820000D03*
%TD*%
D11*
%TO.C,C114*%
X48439444Y-136680944D03*
X50939444Y-136680944D03*
%TD*%
D16*
%TO.C,J102*%
X131623444Y-130016944D03*
D17*
X131623444Y-132556944D03*
X131623444Y-135096944D03*
X131623444Y-137636944D03*
%TD*%
D12*
%TO.C,KiKit_MB_1_1*%
X70797500Y-52552500D03*
%TD*%
D11*
%TO.C,C114*%
X150709444Y-136680944D03*
X153209444Y-136680944D03*
%TD*%
D20*
%TO.C,C102*%
X88988444Y-63309944D03*
D21*
X90488444Y-63309944D03*
%TD*%
D10*
%TO.C,C101*%
X60492276Y-125250944D03*
D11*
X62492276Y-125250944D03*
%TD*%
%TO.C,C113*%
X113818219Y-136934944D03*
X111318219Y-136934944D03*
%TD*%
D12*
%TO.C,KiKit_MB_19_2*%
X123932500Y-124657500D03*
%TD*%
D16*
%TO.C,J102*%
X131623444Y-59911944D03*
D17*
X131623444Y-62451944D03*
X131623444Y-64991944D03*
X131623444Y-67531944D03*
%TD*%
D12*
%TO.C,KiKit_MB_22_3*%
X175067500Y-123657500D03*
%TD*%
%TO.C,KiKit_MB_21_3*%
X149000000Y-90105000D03*
%TD*%
D22*
%TO.C,AR101*%
X82978444Y-35005000D03*
D23*
X85518444Y-35005000D03*
X88058444Y-35005000D03*
X90598444Y-35005000D03*
X93138444Y-35005000D03*
X95678444Y-35005000D03*
X98218444Y-35005000D03*
X100758444Y-35005000D03*
X103298444Y-35005000D03*
X105838444Y-35005000D03*
X108378444Y-35005000D03*
X110918444Y-35005000D03*
X113458444Y-35005000D03*
X115998444Y-35005000D03*
%TD*%
D13*
%TO.C,H104*%
X128373444Y-25451944D03*
%TD*%
D20*
%TO.C,C102*%
X37853444Y-133414944D03*
D21*
X39353444Y-133414944D03*
%TD*%
D12*
%TO.C,KiKit_MB_11_1*%
X201135000Y-88105000D03*
%TD*%
D10*
%TO.C,C106*%
X100123332Y-55145944D03*
D11*
X102123332Y-55145944D03*
%TD*%
D13*
%TO.C,H104*%
X179508444Y-95556944D03*
%TD*%
D16*
%TO.C,J102*%
X233893444Y-59911944D03*
D17*
X233893444Y-62451944D03*
X233893444Y-64991944D03*
X233893444Y-67531944D03*
%TD*%
D12*
%TO.C,KiKit_MB_23_3*%
X224202500Y-124657500D03*
%TD*%
%TO.C,KiKit_MB_12_1*%
X226202500Y-55552500D03*
%TD*%
D18*
%TO.C,C111*%
X47354823Y-46670000D03*
D19*
X52354823Y-46670000D03*
%TD*%
D20*
%TO.C,C103*%
X140123444Y-68135944D03*
D21*
X141623444Y-68135944D03*
%TD*%
D12*
%TO.C,KiKit_MB_20_3*%
X173067500Y-124657500D03*
%TD*%
D10*
%TO.C,C105*%
X36835793Y-126556944D03*
D11*
X40335793Y-126556944D03*
%TD*%
D20*
%TO.C,C102*%
X191258444Y-63309944D03*
D21*
X192758444Y-63309944D03*
%TD*%
D18*
%TO.C,C112*%
X212390767Y-46670000D03*
D19*
X217390767Y-46670000D03*
%TD*%
D10*
%TO.C,C106*%
X151258332Y-55145944D03*
D11*
X153258332Y-55145944D03*
%TD*%
D16*
%TO.C,J102*%
X29353444Y-59911944D03*
D17*
X29353444Y-62451944D03*
X29353444Y-64991944D03*
X29353444Y-67531944D03*
%TD*%
D14*
%TO.C,R105*%
X155769444Y-129568944D03*
D15*
X148149444Y-129568944D03*
%TD*%
D11*
%TO.C,C104*%
X39738444Y-76263944D03*
X37238444Y-76263944D03*
%TD*%
D12*
%TO.C,KiKit_MB_10_1*%
X224202500Y-52552500D03*
%TD*%
D16*
%TO.C,J102*%
X182758444Y-130016944D03*
D17*
X182758444Y-132556944D03*
X182758444Y-135096944D03*
X182758444Y-137636944D03*
%TD*%
D18*
%TO.C,C112*%
X110120767Y-46670000D03*
D19*
X115120767Y-46670000D03*
%TD*%
D12*
%TO.C,KiKit_MB_6_2*%
X123932500Y-54552500D03*
%TD*%
D14*
%TO.C,R101*%
X93527388Y-71945944D03*
D15*
X85907388Y-71945944D03*
%TD*%
D12*
%TO.C,KiKit_MB_23_2*%
X224202500Y-123657500D03*
%TD*%
D14*
%TO.C,R103*%
X148149444Y-62765944D03*
D15*
X155769444Y-62765944D03*
%TD*%
D12*
%TO.C,KiKit_MB_25_4*%
X226202500Y-122657500D03*
%TD*%
D13*
%TO.C,H102*%
X128623444Y-152175944D03*
%TD*%
D11*
%TO.C,C113*%
X164953219Y-136934944D03*
X162453219Y-136934944D03*
%TD*%
D12*
%TO.C,KiKit_MB_19_4*%
X123932500Y-122657500D03*
%TD*%
%TO.C,KiKit_MB_4_1*%
X121932500Y-52552500D03*
%TD*%
D20*
%TO.C,C103*%
X88988444Y-68135944D03*
D21*
X90488444Y-68135944D03*
%TD*%
D13*
%TO.C,H102*%
X179758444Y-82070944D03*
%TD*%
D11*
%TO.C,C104*%
X90873444Y-76263944D03*
X88373444Y-76263944D03*
%TD*%
D14*
%TO.C,R105*%
X53499444Y-59463944D03*
D15*
X45879444Y-59463944D03*
%TD*%
D14*
%TO.C,R106*%
X167433444Y-133124944D03*
D15*
X159813444Y-133124944D03*
%TD*%
D12*
%TO.C,KiKit_MB_6_4*%
X123932500Y-52552500D03*
%TD*%
D13*
%TO.C,H104*%
X77238444Y-95556944D03*
%TD*%
D11*
%TO.C,C114*%
X201844444Y-66575944D03*
X204344444Y-66575944D03*
%TD*%
D12*
%TO.C,KiKit_MB_3_4*%
X72797500Y-52552500D03*
%TD*%
%TO.C,KiKit_MB_10_3*%
X224202500Y-54552500D03*
%TD*%
D14*
%TO.C,R109*%
X116298444Y-59463944D03*
D15*
X108678444Y-59463944D03*
%TD*%
D11*
%TO.C,C104*%
X193143444Y-76263944D03*
X190643444Y-76263944D03*
%TD*%
D14*
%TO.C,R106*%
X167433444Y-63019944D03*
D15*
X159813444Y-63019944D03*
%TD*%
D12*
%TO.C,KiKit_MB_16_3*%
X72797500Y-123657500D03*
%TD*%
D14*
%TO.C,R101*%
X42392388Y-71945944D03*
D15*
X34772388Y-71945944D03*
%TD*%
D10*
%TO.C,C101*%
X111627276Y-125250944D03*
D11*
X113627276Y-125250944D03*
%TD*%
D14*
%TO.C,R106*%
X116298444Y-133124944D03*
D15*
X108678444Y-133124944D03*
%TD*%
D12*
%TO.C,KiKit_MB_25_3*%
X226202500Y-123657500D03*
%TD*%
%TO.C,KiKit_MB_5_3*%
X96865000Y-88105000D03*
%TD*%
D14*
%TO.C,R101*%
X195797388Y-142050944D03*
D15*
X188177388Y-142050944D03*
%TD*%
D22*
%TO.C,AR101*%
X31843444Y-35005000D03*
D23*
X34383444Y-35005000D03*
X36923444Y-35005000D03*
X39463444Y-35005000D03*
X42003444Y-35005000D03*
X44543444Y-35005000D03*
X47083444Y-35005000D03*
X49623444Y-35005000D03*
X52163444Y-35005000D03*
X54703444Y-35005000D03*
X57243444Y-35005000D03*
X59783444Y-35005000D03*
X62323444Y-35005000D03*
X64863444Y-35005000D03*
%TD*%
D12*
%TO.C,KiKit_MB_18_1*%
X95865000Y-90105000D03*
%TD*%
D11*
%TO.C,C104*%
X244278444Y-146368944D03*
X241778444Y-146368944D03*
%TD*%
D12*
%TO.C,KiKit_MB_1_4*%
X70797500Y-55552500D03*
%TD*%
%TO.C,KiKit_MB_5_2*%
X97865000Y-88105000D03*
%TD*%
%TO.C,KiKit_MB_7_1*%
X173067500Y-52552500D03*
%TD*%
%TO.C,KiKit_MB_2_3*%
X45730000Y-88105000D03*
%TD*%
D16*
%TO.C,J104*%
X233893444Y-112871944D03*
D17*
X233893444Y-115411944D03*
X233893444Y-117951944D03*
X233893444Y-120491944D03*
%TD*%
D11*
%TO.C,C104*%
X193143444Y-146368944D03*
X190643444Y-146368944D03*
%TD*%
D18*
%TO.C,C111*%
X98489823Y-116775000D03*
D19*
X103489823Y-116775000D03*
%TD*%
D14*
%TO.C,R105*%
X104634444Y-59463944D03*
D15*
X97014444Y-59463944D03*
%TD*%
D12*
%TO.C,KiKit_MB_11_3*%
X199135000Y-88105000D03*
%TD*%
D13*
%TO.C,H103*%
X66353444Y-82070944D03*
%TD*%
D11*
%TO.C,C113*%
X113818219Y-66829944D03*
X111318219Y-66829944D03*
%TD*%
D10*
%TO.C,C105*%
X241375793Y-126556944D03*
D11*
X244875793Y-126556944D03*
%TD*%
D18*
%TO.C,C112*%
X58985767Y-46670000D03*
D19*
X63985767Y-46670000D03*
%TD*%
D22*
%TO.C,AR101*%
X82978444Y-105110000D03*
D23*
X85518444Y-105110000D03*
X88058444Y-105110000D03*
X90598444Y-105110000D03*
X93138444Y-105110000D03*
X95678444Y-105110000D03*
X98218444Y-105110000D03*
X100758444Y-105110000D03*
X103298444Y-105110000D03*
X105838444Y-105110000D03*
X108378444Y-105110000D03*
X110918444Y-105110000D03*
X113458444Y-105110000D03*
X115998444Y-105110000D03*
%TD*%
D18*
%TO.C,C110*%
X240660767Y-116729323D03*
D19*
X245660767Y-116729323D03*
%TD*%
D14*
%TO.C,R103*%
X45879444Y-132870944D03*
D15*
X53499444Y-132870944D03*
%TD*%
D10*
%TO.C,C106*%
X151258332Y-125250944D03*
D11*
X153258332Y-125250944D03*
%TD*%
%TO.C,C104*%
X244278444Y-76263944D03*
X241778444Y-76263944D03*
%TD*%
D12*
%TO.C,KiKit_MB_3_1*%
X72797500Y-55552500D03*
%TD*%
%TO.C,KiKit_MB_15_1*%
X44730000Y-90105000D03*
%TD*%
D13*
%TO.C,H104*%
X230643444Y-25451944D03*
%TD*%
D10*
%TO.C,C105*%
X190240793Y-126556944D03*
D11*
X193740793Y-126556944D03*
%TD*%
D10*
%TO.C,C105*%
X190240793Y-56451944D03*
D11*
X193740793Y-56451944D03*
%TD*%
D14*
%TO.C,R109*%
X167433444Y-59463944D03*
D15*
X159813444Y-59463944D03*
%TD*%
D10*
%TO.C,C106*%
X48988332Y-55145944D03*
D11*
X50988332Y-55145944D03*
%TD*%
D13*
%TO.C,H103*%
X270893444Y-152175944D03*
%TD*%
D18*
%TO.C,C110*%
X240660767Y-46624323D03*
D19*
X245660767Y-46624323D03*
%TD*%
D13*
%TO.C,H101*%
X117488444Y-95820000D03*
%TD*%
D12*
%TO.C,KiKit_MB_17_1*%
X121932500Y-122657500D03*
%TD*%
D14*
%TO.C,R101*%
X246932388Y-71945944D03*
D15*
X239312388Y-71945944D03*
%TD*%
D16*
%TO.C,J103*%
X264193444Y-146056944D03*
D17*
X261653444Y-146056944D03*
X259113444Y-146056944D03*
X256573444Y-146056944D03*
%TD*%
D14*
%TO.C,R106*%
X116298444Y-63019944D03*
D15*
X108678444Y-63019944D03*
%TD*%
D12*
%TO.C,KiKit_MB_19_1*%
X123932500Y-125657500D03*
%TD*%
%TO.C,KiKit_MB_20_4*%
X173067500Y-125657500D03*
%TD*%
D18*
%TO.C,C111*%
X47354823Y-116775000D03*
D19*
X52354823Y-116775000D03*
%TD*%
D12*
%TO.C,KiKit_MB_11_2*%
X200135000Y-88105000D03*
%TD*%
D13*
%TO.C,H104*%
X230643444Y-95556944D03*
%TD*%
D14*
%TO.C,R109*%
X218568444Y-129568944D03*
D15*
X210948444Y-129568944D03*
%TD*%
D12*
%TO.C,KiKit_MB_19_3*%
X123932500Y-123657500D03*
%TD*%
D13*
%TO.C,H101*%
X117488444Y-25715000D03*
%TD*%
D11*
%TO.C,C104*%
X142008444Y-146368944D03*
X139508444Y-146368944D03*
%TD*%
D12*
%TO.C,KiKit_MB_4_2*%
X121932500Y-53552500D03*
%TD*%
D16*
%TO.C,J104*%
X233893444Y-42766944D03*
D17*
X233893444Y-45306944D03*
X233893444Y-47846944D03*
X233893444Y-50386944D03*
%TD*%
D14*
%TO.C,R103*%
X148149444Y-132870944D03*
D15*
X155769444Y-132870944D03*
%TD*%
D14*
%TO.C,R105*%
X104634444Y-129568944D03*
D15*
X97014444Y-129568944D03*
%TD*%
D16*
%TO.C,J104*%
X80488444Y-42766944D03*
D17*
X80488444Y-45306944D03*
X80488444Y-47846944D03*
X80488444Y-50386944D03*
%TD*%
D20*
%TO.C,C103*%
X37853444Y-138240944D03*
D21*
X39353444Y-138240944D03*
%TD*%
D18*
%TO.C,C111*%
X251894823Y-46670000D03*
D19*
X256894823Y-46670000D03*
%TD*%
D10*
%TO.C,C105*%
X139105793Y-126556944D03*
D11*
X142605793Y-126556944D03*
%TD*%
D16*
%TO.C,J104*%
X29353444Y-112871944D03*
D17*
X29353444Y-115411944D03*
X29353444Y-117951944D03*
X29353444Y-120491944D03*
%TD*%
D13*
%TO.C,H101*%
X219758444Y-95820000D03*
%TD*%
%TO.C,H101*%
X66353444Y-25715000D03*
%TD*%
D12*
%TO.C,KiKit_MB_16_4*%
X72797500Y-122657500D03*
%TD*%
D18*
%TO.C,C110*%
X138390767Y-116729323D03*
D19*
X143390767Y-116729323D03*
%TD*%
D14*
%TO.C,R103*%
X97014444Y-132870944D03*
D15*
X104634444Y-132870944D03*
%TD*%
D14*
%TO.C,R105*%
X206904444Y-129568944D03*
D15*
X199284444Y-129568944D03*
%TD*%
D12*
%TO.C,KiKit_MB_17_2*%
X121932500Y-123657500D03*
%TD*%
D14*
%TO.C,R101*%
X195797388Y-71945944D03*
D15*
X188177388Y-71945944D03*
%TD*%
D13*
%TO.C,H104*%
X128373444Y-95556944D03*
%TD*%
%TO.C,H101*%
X270893444Y-95820000D03*
%TD*%
D12*
%TO.C,KiKit_MB_14_4*%
X70797500Y-125657500D03*
%TD*%
D11*
%TO.C,C114*%
X99574444Y-66575944D03*
X102074444Y-66575944D03*
%TD*%
%TO.C,C104*%
X90873444Y-146368944D03*
X88373444Y-146368944D03*
%TD*%
D16*
%TO.C,J103*%
X161923444Y-75951944D03*
D17*
X159383444Y-75951944D03*
X156843444Y-75951944D03*
X154303444Y-75951944D03*
%TD*%
D20*
%TO.C,C102*%
X88988444Y-133414944D03*
D21*
X90488444Y-133414944D03*
%TD*%
D18*
%TO.C,C112*%
X58985767Y-116775000D03*
D19*
X63985767Y-116775000D03*
%TD*%
D10*
%TO.C,C101*%
X213897276Y-125250944D03*
D11*
X215897276Y-125250944D03*
%TD*%
D14*
%TO.C,R109*%
X269703444Y-129568944D03*
D15*
X262083444Y-129568944D03*
%TD*%
D12*
%TO.C,KiKit_MB_3_3*%
X72797500Y-53552500D03*
%TD*%
D13*
%TO.C,H101*%
X270893444Y-25715000D03*
%TD*%
D10*
%TO.C,C101*%
X265032276Y-55145944D03*
D11*
X267032276Y-55145944D03*
%TD*%
D18*
%TO.C,C110*%
X138390767Y-46624323D03*
D19*
X143390767Y-46624323D03*
%TD*%
D12*
%TO.C,KiKit_MB_7_2*%
X173067500Y-53552500D03*
%TD*%
D22*
%TO.C,AR101*%
X185248444Y-105110000D03*
D23*
X187788444Y-105110000D03*
X190328444Y-105110000D03*
X192868444Y-105110000D03*
X195408444Y-105110000D03*
X197948444Y-105110000D03*
X200488444Y-105110000D03*
X203028444Y-105110000D03*
X205568444Y-105110000D03*
X208108444Y-105110000D03*
X210648444Y-105110000D03*
X213188444Y-105110000D03*
X215728444Y-105110000D03*
X218268444Y-105110000D03*
%TD*%
D11*
%TO.C,C113*%
X216088219Y-66829944D03*
X213588219Y-66829944D03*
%TD*%
%TO.C,C113*%
X164953219Y-66829944D03*
X162453219Y-66829944D03*
%TD*%
D14*
%TO.C,R109*%
X218568444Y-59463944D03*
D15*
X210948444Y-59463944D03*
%TD*%
D10*
%TO.C,C106*%
X253528332Y-125250944D03*
D11*
X255528332Y-125250944D03*
%TD*%
D13*
%TO.C,H103*%
X117488444Y-82070944D03*
%TD*%
D22*
%TO.C,AR101*%
X134113444Y-35005000D03*
D23*
X136653444Y-35005000D03*
X139193444Y-35005000D03*
X141733444Y-35005000D03*
X144273444Y-35005000D03*
X146813444Y-35005000D03*
X149353444Y-35005000D03*
X151893444Y-35005000D03*
X154433444Y-35005000D03*
X156973444Y-35005000D03*
X159513444Y-35005000D03*
X162053444Y-35005000D03*
X164593444Y-35005000D03*
X167133444Y-35005000D03*
%TD*%
D10*
%TO.C,C105*%
X241375793Y-56451944D03*
D11*
X244875793Y-56451944D03*
%TD*%
D14*
%TO.C,R106*%
X218568444Y-63019944D03*
D15*
X210948444Y-63019944D03*
%TD*%
D12*
%TO.C,KiKit_MB_4_4*%
X121932500Y-55552500D03*
%TD*%
%TO.C,KiKit_MB_12_3*%
X226202500Y-53552500D03*
%TD*%
%TO.C,KiKit_MB_13_2*%
X251270000Y-88105000D03*
%TD*%
D11*
%TO.C,C114*%
X252979444Y-66575944D03*
X255479444Y-66575944D03*
%TD*%
D14*
%TO.C,R109*%
X116298444Y-129568944D03*
D15*
X108678444Y-129568944D03*
%TD*%
D12*
%TO.C,KiKit_MB_10_2*%
X224202500Y-53552500D03*
%TD*%
D16*
%TO.C,J104*%
X182758444Y-42766944D03*
D17*
X182758444Y-45306944D03*
X182758444Y-47846944D03*
X182758444Y-50386944D03*
%TD*%
D13*
%TO.C,H103*%
X219758444Y-82070944D03*
%TD*%
D12*
%TO.C,KiKit_MB_8_2*%
X149000000Y-88105000D03*
%TD*%
%TO.C,KiKit_MB_18_2*%
X96865000Y-90105000D03*
%TD*%
%TO.C,KiKit_MB_5_4*%
X95865000Y-88105000D03*
%TD*%
D13*
%TO.C,H103*%
X168623444Y-82070944D03*
%TD*%
D12*
%TO.C,KiKit_MB_15_4*%
X47730000Y-90105000D03*
%TD*%
D14*
%TO.C,R105*%
X53499444Y-129568944D03*
D15*
X45879444Y-129568944D03*
%TD*%
D18*
%TO.C,C112*%
X263525767Y-116775000D03*
D19*
X268525767Y-116775000D03*
%TD*%
D16*
%TO.C,J102*%
X182758444Y-59911944D03*
D17*
X182758444Y-62451944D03*
X182758444Y-64991944D03*
X182758444Y-67531944D03*
%TD*%
D18*
%TO.C,C110*%
X87255767Y-116729323D03*
D19*
X92255767Y-116729323D03*
%TD*%
D13*
%TO.C,H101*%
X219758444Y-25715000D03*
%TD*%
%TO.C,H102*%
X26353444Y-152175944D03*
%TD*%
D11*
%TO.C,C113*%
X62683219Y-66829944D03*
X60183219Y-66829944D03*
%TD*%
D12*
%TO.C,KiKit_MB_12_4*%
X226202500Y-52552500D03*
%TD*%
D13*
%TO.C,H104*%
X179508444Y-25451944D03*
%TD*%
D12*
%TO.C,KiKit_MB_16_1*%
X72797500Y-125657500D03*
%TD*%
%TO.C,KiKit_MB_1_2*%
X70797500Y-53552500D03*
%TD*%
D14*
%TO.C,R105*%
X206904444Y-59463944D03*
D15*
X199284444Y-59463944D03*
%TD*%
D16*
%TO.C,J103*%
X59653444Y-146056944D03*
D17*
X57113444Y-146056944D03*
X54573444Y-146056944D03*
X52033444Y-146056944D03*
%TD*%
D12*
%TO.C,KiKit_MB_22_2*%
X175067500Y-124657500D03*
%TD*%
D13*
%TO.C,H102*%
X128623444Y-82070944D03*
%TD*%
D10*
%TO.C,C106*%
X253528332Y-55145944D03*
D11*
X255528332Y-55145944D03*
%TD*%
D18*
%TO.C,C112*%
X161255767Y-116775000D03*
D19*
X166255767Y-116775000D03*
%TD*%
D12*
%TO.C,KiKit_MB_9_3*%
X175067500Y-53552500D03*
%TD*%
D14*
%TO.C,R101*%
X246932388Y-142050944D03*
D15*
X239312388Y-142050944D03*
%TD*%
D14*
%TO.C,R101*%
X93527388Y-142050944D03*
D15*
X85907388Y-142050944D03*
%TD*%
D20*
%TO.C,C103*%
X242393444Y-68135944D03*
D21*
X243893444Y-68135944D03*
%TD*%
D13*
%TO.C,H103*%
X66353444Y-152175944D03*
%TD*%
D16*
%TO.C,J104*%
X80488444Y-112871944D03*
D17*
X80488444Y-115411944D03*
X80488444Y-117951944D03*
X80488444Y-120491944D03*
%TD*%
D20*
%TO.C,C102*%
X242393444Y-63309944D03*
D21*
X243893444Y-63309944D03*
%TD*%
D22*
%TO.C,AR101*%
X236383444Y-35005000D03*
D23*
X238923444Y-35005000D03*
X241463444Y-35005000D03*
X244003444Y-35005000D03*
X246543444Y-35005000D03*
X249083444Y-35005000D03*
X251623444Y-35005000D03*
X254163444Y-35005000D03*
X256703444Y-35005000D03*
X259243444Y-35005000D03*
X261783444Y-35005000D03*
X264323444Y-35005000D03*
X266863444Y-35005000D03*
X269403444Y-35005000D03*
%TD*%
D14*
%TO.C,R106*%
X65163444Y-63019944D03*
D15*
X57543444Y-63019944D03*
%TD*%
D20*
%TO.C,C102*%
X37853444Y-63309944D03*
D21*
X39353444Y-63309944D03*
%TD*%
D10*
%TO.C,C106*%
X100123332Y-125250944D03*
D11*
X102123332Y-125250944D03*
%TD*%
D14*
%TO.C,R109*%
X65163444Y-129568944D03*
D15*
X57543444Y-129568944D03*
%TD*%
D11*
%TO.C,C113*%
X267223219Y-136934944D03*
X264723219Y-136934944D03*
%TD*%
D20*
%TO.C,C102*%
X191258444Y-133414944D03*
D21*
X192758444Y-133414944D03*
%TD*%
D12*
%TO.C,KiKit_MB_8_1*%
X150000000Y-88105000D03*
%TD*%
%TO.C,KiKit_MB_23_1*%
X224202500Y-122657500D03*
%TD*%
D18*
%TO.C,C112*%
X110120767Y-116775000D03*
D19*
X115120767Y-116775000D03*
%TD*%
D14*
%TO.C,R106*%
X65163444Y-133124944D03*
D15*
X57543444Y-133124944D03*
%TD*%
D14*
%TO.C,R103*%
X199284444Y-62765944D03*
D15*
X206904444Y-62765944D03*
%TD*%
D16*
%TO.C,J103*%
X264193444Y-75951944D03*
D17*
X261653444Y-75951944D03*
X259113444Y-75951944D03*
X256573444Y-75951944D03*
%TD*%
D13*
%TO.C,H103*%
X117488444Y-152175944D03*
%TD*%
D18*
%TO.C,C110*%
X36120767Y-116729323D03*
D19*
X41120767Y-116729323D03*
%TD*%
D12*
%TO.C,KiKit_MB_2_1*%
X47730000Y-88105000D03*
%TD*%
D14*
%TO.C,R101*%
X42392388Y-142050944D03*
D15*
X34772388Y-142050944D03*
%TD*%
D18*
%TO.C,C111*%
X251894823Y-116775000D03*
D19*
X256894823Y-116775000D03*
%TD*%
D12*
%TO.C,KiKit_MB_20_1*%
X173067500Y-122657500D03*
%TD*%
D16*
%TO.C,J104*%
X131623444Y-42766944D03*
D17*
X131623444Y-45306944D03*
X131623444Y-47846944D03*
X131623444Y-50386944D03*
%TD*%
D12*
%TO.C,KiKit_MB_16_2*%
X72797500Y-124657500D03*
%TD*%
%TO.C,KiKit_MB_26_3*%
X251270000Y-90105000D03*
%TD*%
%TO.C,KiKit_MB_13_1*%
X252270000Y-88105000D03*
%TD*%
D10*
%TO.C,C105*%
X139105793Y-56451944D03*
D11*
X142605793Y-56451944D03*
%TD*%
D13*
%TO.C,H103*%
X219758444Y-152175944D03*
%TD*%
D12*
%TO.C,KiKit_MB_21_1*%
X147000000Y-90105000D03*
%TD*%
D14*
%TO.C,R109*%
X269703444Y-59463944D03*
D15*
X262083444Y-59463944D03*
%TD*%
D20*
%TO.C,C103*%
X191258444Y-68135944D03*
D21*
X192758444Y-68135944D03*
%TD*%
D12*
%TO.C,KiKit_MB_21_2*%
X148000000Y-90105000D03*
%TD*%
D16*
%TO.C,J103*%
X110788444Y-146056944D03*
D17*
X108248444Y-146056944D03*
X105708444Y-146056944D03*
X103168444Y-146056944D03*
%TD*%
D14*
%TO.C,R105*%
X258039444Y-59463944D03*
D15*
X250419444Y-59463944D03*
%TD*%
D18*
%TO.C,C111*%
X98489823Y-46670000D03*
D19*
X103489823Y-46670000D03*
%TD*%
D13*
%TO.C,H102*%
X77488444Y-152175944D03*
%TD*%
D12*
%TO.C,KiKit_MB_12_2*%
X226202500Y-54552500D03*
%TD*%
D18*
%TO.C,C111*%
X200759823Y-46670000D03*
D19*
X205759823Y-46670000D03*
%TD*%
D13*
%TO.C,H104*%
X26103444Y-25451944D03*
%TD*%
D12*
%TO.C,KiKit_MB_15_2*%
X45730000Y-90105000D03*
%TD*%
D14*
%TO.C,R106*%
X218568444Y-133124944D03*
D15*
X210948444Y-133124944D03*
%TD*%
D18*
%TO.C,C110*%
X189525767Y-46624323D03*
D19*
X194525767Y-46624323D03*
%TD*%
D18*
%TO.C,C112*%
X263525767Y-46670000D03*
D19*
X268525767Y-46670000D03*
%TD*%
D13*
%TO.C,H102*%
X179758444Y-152175944D03*
%TD*%
D11*
%TO.C,C104*%
X39738444Y-146368944D03*
X37238444Y-146368944D03*
%TD*%
D13*
%TO.C,H103*%
X270893444Y-82070944D03*
%TD*%
%TO.C,H104*%
X26103444Y-95556944D03*
%TD*%
D12*
%TO.C,KiKit_MB_17_4*%
X121932500Y-125657500D03*
%TD*%
D10*
%TO.C,C101*%
X213897276Y-55145944D03*
D11*
X215897276Y-55145944D03*
%TD*%
D14*
%TO.C,R103*%
X250419444Y-132870944D03*
D15*
X258039444Y-132870944D03*
%TD*%
D18*
%TO.C,C111*%
X149624823Y-116775000D03*
D19*
X154624823Y-116775000D03*
%TD*%
D12*
%TO.C,KiKit_MB_7_3*%
X173067500Y-54552500D03*
%TD*%
D14*
%TO.C,R106*%
X269703444Y-63019944D03*
D15*
X262083444Y-63019944D03*
%TD*%
D11*
%TO.C,C113*%
X267223219Y-66829944D03*
X264723219Y-66829944D03*
%TD*%
%TO.C,C114*%
X99574444Y-136680944D03*
X102074444Y-136680944D03*
%TD*%
D10*
%TO.C,C101*%
X60492276Y-55145944D03*
D11*
X62492276Y-55145944D03*
%TD*%
D13*
%TO.C,H104*%
X77238444Y-25451944D03*
%TD*%
D14*
%TO.C,R103*%
X45879444Y-62765944D03*
D15*
X53499444Y-62765944D03*
%TD*%
D16*
%TO.C,J103*%
X213058444Y-146056944D03*
D17*
X210518444Y-146056944D03*
X207978444Y-146056944D03*
X205438444Y-146056944D03*
%TD*%
D11*
%TO.C,C104*%
X142008444Y-76263944D03*
X139508444Y-76263944D03*
%TD*%
D12*
%TO.C,KiKit_MB_14_1*%
X70797500Y-122657500D03*
%TD*%
%TO.C,KiKit_MB_14_3*%
X70797500Y-124657500D03*
%TD*%
%TO.C,KiKit_MB_8_3*%
X148000000Y-88105000D03*
%TD*%
D10*
%TO.C,C106*%
X202393332Y-125250944D03*
D11*
X204393332Y-125250944D03*
%TD*%
D12*
%TO.C,KiKit_MB_9_1*%
X175067500Y-55552500D03*
%TD*%
%TO.C,KiKit_MB_21_4*%
X150000000Y-90105000D03*
%TD*%
D20*
%TO.C,C102*%
X140123444Y-133414944D03*
D21*
X141623444Y-133414944D03*
%TD*%
D12*
%TO.C,KiKit_MB_22_1*%
X175067500Y-125657500D03*
%TD*%
D20*
%TO.C,C102*%
X140123444Y-63309944D03*
D21*
X141623444Y-63309944D03*
%TD*%
D12*
%TO.C,KiKit_MB_9_4*%
X175067500Y-52552500D03*
%TD*%
D16*
%TO.C,J104*%
X182758444Y-112871944D03*
D17*
X182758444Y-115411944D03*
X182758444Y-117951944D03*
X182758444Y-120491944D03*
%TD*%
D14*
%TO.C,R101*%
X144662388Y-142050944D03*
D15*
X137042388Y-142050944D03*
%TD*%
D10*
%TO.C,C105*%
X87970793Y-56451944D03*
D11*
X91470793Y-56451944D03*
%TD*%
D13*
%TO.C,H101*%
X66353444Y-95820000D03*
%TD*%
D14*
%TO.C,R109*%
X65163444Y-59463944D03*
D15*
X57543444Y-59463944D03*
%TD*%
D12*
%TO.C,KiKit_MB_6_1*%
X123932500Y-55552500D03*
%TD*%
D16*
%TO.C,J102*%
X233893444Y-130016944D03*
D17*
X233893444Y-132556944D03*
X233893444Y-135096944D03*
X233893444Y-137636944D03*
%TD*%
D10*
%TO.C,C101*%
X265032276Y-125250944D03*
D11*
X267032276Y-125250944D03*
%TD*%
D12*
%TO.C,KiKit_MB_25_2*%
X226202500Y-124657500D03*
%TD*%
D18*
%TO.C,C110*%
X189525767Y-116729323D03*
D19*
X194525767Y-116729323D03*
%TD*%
D12*
%TO.C,KiKit_MB_9_2*%
X175067500Y-54552500D03*
%TD*%
%TO.C,KiKit_MB_10_4*%
X224202500Y-55552500D03*
%TD*%
%TO.C,KiKit_MB_5_1*%
X98865000Y-88105000D03*
%TD*%
D16*
%TO.C,J103*%
X110788444Y-75951944D03*
D17*
X108248444Y-75951944D03*
X105708444Y-75951944D03*
X103168444Y-75951944D03*
%TD*%
D16*
%TO.C,J103*%
X161923444Y-146056944D03*
D17*
X159383444Y-146056944D03*
X156843444Y-146056944D03*
X154303444Y-146056944D03*
%TD*%
D13*
%TO.C,H102*%
X230893444Y-152175944D03*
%TD*%
D18*
%TO.C,C110*%
X36120767Y-46624323D03*
D19*
X41120767Y-46624323D03*
%TD*%
D13*
%TO.C,H103*%
X168623444Y-152175944D03*
%TD*%
D16*
%TO.C,J102*%
X29353444Y-130016944D03*
D17*
X29353444Y-132556944D03*
X29353444Y-135096944D03*
X29353444Y-137636944D03*
%TD*%
D14*
%TO.C,R109*%
X167433444Y-129568944D03*
D15*
X159813444Y-129568944D03*
%TD*%
D20*
%TO.C,C102*%
X242393444Y-133414944D03*
D21*
X243893444Y-133414944D03*
%TD*%
D22*
%TO.C,AR101*%
X134113444Y-105110000D03*
D23*
X136653444Y-105110000D03*
X139193444Y-105110000D03*
X141733444Y-105110000D03*
X144273444Y-105110000D03*
X146813444Y-105110000D03*
X149353444Y-105110000D03*
X151893444Y-105110000D03*
X154433444Y-105110000D03*
X156973444Y-105110000D03*
X159513444Y-105110000D03*
X162053444Y-105110000D03*
X164593444Y-105110000D03*
X167133444Y-105110000D03*
%TD*%
D12*
%TO.C,KiKit_MB_6_3*%
X123932500Y-53552500D03*
%TD*%
%TO.C,KiKit_MB_24_3*%
X200135000Y-90105000D03*
%TD*%
D22*
%TO.C,AR101*%
X31843444Y-105110000D03*
D23*
X34383444Y-105110000D03*
X36923444Y-105110000D03*
X39463444Y-105110000D03*
X42003444Y-105110000D03*
X44543444Y-105110000D03*
X47083444Y-105110000D03*
X49623444Y-105110000D03*
X52163444Y-105110000D03*
X54703444Y-105110000D03*
X57243444Y-105110000D03*
X59783444Y-105110000D03*
X62323444Y-105110000D03*
X64863444Y-105110000D03*
%TD*%
D12*
%TO.C,KiKit_MB_3_2*%
X72797500Y-54552500D03*
%TD*%
D18*
%TO.C,C111*%
X200759823Y-116775000D03*
D19*
X205759823Y-116775000D03*
%TD*%
D10*
%TO.C,C105*%
X87970793Y-126556944D03*
D11*
X91470793Y-126556944D03*
%TD*%
D12*
%TO.C,KiKit_MB_17_3*%
X121932500Y-124657500D03*
%TD*%
D11*
%TO.C,C114*%
X150709444Y-66575944D03*
X153209444Y-66575944D03*
%TD*%
D12*
%TO.C,KiKit_MB_1_3*%
X70797500Y-54552500D03*
%TD*%
%TO.C,KiKit_MB_2_2*%
X46730000Y-88105000D03*
%TD*%
%TO.C,KiKit_MB_13_4*%
X249270000Y-88105000D03*
%TD*%
D10*
%TO.C,C105*%
X36835793Y-56451944D03*
D11*
X40335793Y-56451944D03*
%TD*%
%TO.C,C114*%
X48439444Y-66575944D03*
X50939444Y-66575944D03*
%TD*%
D10*
%TO.C,C106*%
X48988332Y-125250944D03*
D11*
X50988332Y-125250944D03*
%TD*%
D14*
%TO.C,R106*%
X269703444Y-133124944D03*
D15*
X262083444Y-133124944D03*
%TD*%
D12*
%TO.C,KiKit_MB_26_1*%
X249270000Y-90105000D03*
%TD*%
%TO.C,KiKit_MB_8_4*%
X147000000Y-88105000D03*
%TD*%
%TO.C,KiKit_MB_2_4*%
X44730000Y-88105000D03*
%TD*%
D10*
%TO.C,C101*%
X111627276Y-55145944D03*
D11*
X113627276Y-55145944D03*
%TD*%
D10*
%TO.C,C101*%
X162762276Y-125250944D03*
D11*
X164762276Y-125250944D03*
%TD*%
D20*
%TO.C,C103*%
X37853444Y-68135944D03*
D21*
X39353444Y-68135944D03*
%TD*%
D20*
%TO.C,C103*%
X88988444Y-138240944D03*
D21*
X90488444Y-138240944D03*
%TD*%
D18*
%TO.C,C112*%
X212390767Y-116775000D03*
D19*
X217390767Y-116775000D03*
%TD*%
D16*
%TO.C,J103*%
X213058444Y-75951944D03*
D17*
X210518444Y-75951944D03*
X207978444Y-75951944D03*
X205438444Y-75951944D03*
%TD*%
D11*
%TO.C,C113*%
X216088219Y-136934944D03*
X213588219Y-136934944D03*
%TD*%
%TO.C,C113*%
X62683219Y-136934944D03*
X60183219Y-136934944D03*
%TD*%
D18*
%TO.C,C111*%
X149624823Y-46670000D03*
D19*
X154624823Y-46670000D03*
%TD*%
D13*
%TO.C,H101*%
X168623444Y-25715000D03*
%TD*%
D16*
%TO.C,J102*%
X80488444Y-130016944D03*
D17*
X80488444Y-132556944D03*
X80488444Y-135096944D03*
X80488444Y-137636944D03*
%TD*%
D14*
%TO.C,R103*%
X250419444Y-62765944D03*
D15*
X258039444Y-62765944D03*
%TD*%
D12*
%TO.C,KiKit_MB_24_1*%
X198135000Y-90105000D03*
%TD*%
D20*
%TO.C,C103*%
X242393444Y-138240944D03*
D21*
X243893444Y-138240944D03*
%TD*%
D18*
%TO.C,C112*%
X161255767Y-46670000D03*
D19*
X166255767Y-46670000D03*
%TD*%
D12*
%TO.C,KiKit_MB_25_1*%
X226202500Y-125657500D03*
%TD*%
D22*
%TO.C,AR101*%
X236383444Y-105110000D03*
D23*
X238923444Y-105110000D03*
X241463444Y-105110000D03*
X244003444Y-105110000D03*
X246543444Y-105110000D03*
X249083444Y-105110000D03*
X251623444Y-105110000D03*
X254163444Y-105110000D03*
X256703444Y-105110000D03*
X259243444Y-105110000D03*
X261783444Y-105110000D03*
X264323444Y-105110000D03*
X266863444Y-105110000D03*
X269403444Y-105110000D03*
%TD*%
D16*
%TO.C,J103*%
X59653444Y-75951944D03*
D17*
X57113444Y-75951944D03*
X54573444Y-75951944D03*
X52033444Y-75951944D03*
%TD*%
D12*
%TO.C,KiKit_MB_4_3*%
X121932500Y-54552500D03*
%TD*%
%TO.C,KiKit_MB_7_4*%
X173067500Y-55552500D03*
%TD*%
%TO.C,KiKit_MB_22_4*%
X175067500Y-122657500D03*
%TD*%
D16*
%TO.C,J102*%
X80488444Y-59911944D03*
D17*
X80488444Y-62451944D03*
X80488444Y-64991944D03*
X80488444Y-67531944D03*
%TD*%
D12*
%TO.C,KiKit_MB_18_4*%
X98865000Y-90105000D03*
%TD*%
M02*
