%TF.GenerationSoftware,KiCad,Pcbnew,7.0.11*%
%TF.CreationDate,2024-10-20T12:39:13+07:00*%
%TF.ProjectId,V3,56332e6b-6963-4616-945f-706362585858,rev?*%
%TF.SameCoordinates,Original*%
%TF.FileFunction,Drillmap*%
%TF.FilePolarity,Positive*%
%FSLAX45Y45*%
G04 Gerber Fmt 4.5, Leading zero omitted, Abs format (unit mm)*
G04 Created by KiCad (PCBNEW 7.0.11) date 2024-10-20 12:39:13*
%MOMM*%
%LPD*%
G01*
G04 APERTURE LIST*
%ADD10C,0.100000*%
%ADD11C,0.200000*%
G04 APERTURE END LIST*
D10*
X12356726Y-12588426D02*
X12360439Y-12591629D01*
X7275448Y-5626150D02*
X7276756Y-5630876D01*
X17336010Y-12595010D02*
X17339561Y-12591629D01*
X9966910Y-9008580D02*
X9962126Y-9007506D01*
X12360439Y-5229371D02*
X12356726Y-5232574D01*
X19813500Y-8910401D02*
X19813500Y-8910599D01*
X22612645Y-5193580D02*
X22610658Y-5198063D01*
X12367371Y-12598561D02*
X12370574Y-12602274D01*
X9886500Y-8910401D02*
X9886620Y-8905498D01*
X9486599Y-8810500D02*
X9491502Y-8810620D01*
X9576909Y-8867687D02*
X9578896Y-8872170D01*
X17363937Y-5245659D02*
X17359557Y-5243454D01*
X22618330Y-5635660D02*
X22619169Y-5640492D01*
X19760693Y-8822296D02*
X19764959Y-8824713D01*
X25271398Y-8827336D02*
X25275541Y-8824713D01*
X12293349Y-12565750D02*
X12298252Y-12565870D01*
X14600099Y-9010500D02*
X12394477Y-9010500D01*
X17372995Y-12571590D02*
X17377651Y-12570052D01*
X17329426Y-12602274D02*
X17332629Y-12598561D01*
X15044398Y-8827336D02*
X15048541Y-8824713D01*
X14680340Y-8850890D02*
X14683164Y-8854899D01*
X17466360Y-12246090D02*
X17462351Y-12248914D01*
X17506750Y-9011727D02*
X17506750Y-12165849D01*
X22619169Y-5640492D02*
X22619769Y-5645358D01*
X20116494Y-8934874D02*
X20115420Y-8930090D01*
X12246057Y-12577546D02*
X12250437Y-12575341D01*
X7277830Y-12185339D02*
X7276756Y-12190124D01*
X17406849Y-5255250D02*
X17406651Y-5255250D01*
X9515599Y-8814802D02*
X9520255Y-8816340D01*
X12202841Y-5198063D02*
X12200854Y-5193580D01*
X9943687Y-9000909D02*
X9939307Y-8998704D01*
X12193731Y-12175642D02*
X12193370Y-12170752D01*
X4382892Y-8810981D02*
X4387758Y-8811581D01*
X9580660Y-8944255D02*
X9578896Y-8948830D01*
X17470226Y-12243074D02*
X17466360Y-12246090D01*
X17311052Y-12636650D02*
X17312590Y-12631995D01*
X7250490Y-12236490D02*
X7246939Y-12239871D01*
X22579860Y-5235590D02*
X22575851Y-5238414D01*
X17318546Y-12212942D02*
X17316341Y-12208563D01*
X22491150Y-12570052D02*
X22495876Y-12568744D01*
X15001919Y-8930090D02*
X15001081Y-8925258D01*
X9586019Y-8900608D02*
X9586380Y-8905498D01*
X20146311Y-8984621D02*
X20142760Y-8981240D01*
X7081669Y-5174840D02*
X7080831Y-5170008D01*
X12293151Y-5555250D02*
X12293349Y-5555250D01*
X4863108Y-9010019D02*
X4858242Y-9009419D01*
X4463409Y-8867687D02*
X4465396Y-8872170D01*
X17314354Y-5193580D02*
X17312590Y-5189005D01*
X12393277Y-9010625D02*
X12393250Y-9011725D01*
X22515248Y-5555370D02*
X22520151Y-5555250D01*
X19773110Y-8830160D02*
X19776976Y-8833176D01*
X17307831Y-5640492D02*
X17308670Y-5635660D01*
X22567442Y-5567046D02*
X22571709Y-5569463D01*
X22420731Y-12655858D02*
X22421331Y-12650992D01*
X7120140Y-5235590D02*
X7116274Y-5232574D01*
X7279750Y-5155349D02*
X7279630Y-5160252D01*
X4467160Y-8876745D02*
X4468698Y-8881401D01*
X12233640Y-5235590D02*
X12229774Y-5232574D01*
X19787621Y-8843311D02*
X19790824Y-8847024D01*
X24882601Y-8993664D02*
X24878459Y-8996287D01*
X12392769Y-5645358D02*
X12393130Y-5650248D01*
X14683164Y-8966101D02*
X14680340Y-8970110D01*
X4843901Y-9006198D02*
X4839245Y-9004660D01*
X12237648Y-5572086D02*
X12241791Y-5569463D01*
X7280977Y-8810500D02*
X9486599Y-8810500D01*
X9952745Y-9004660D02*
X9948170Y-9002896D01*
X25312242Y-9009419D02*
X25307410Y-9008580D01*
X22442926Y-12229226D02*
X22439909Y-12225360D01*
X9515599Y-9006198D02*
X9510874Y-9007506D01*
X7079750Y-12665651D02*
X7079870Y-12660748D01*
X17494954Y-5608057D02*
X17497159Y-5612437D01*
X4461204Y-8957693D02*
X4458787Y-8961959D01*
X19747255Y-8816340D02*
X19751830Y-8818104D01*
X19793840Y-8850890D02*
X19796664Y-8854899D01*
X22437086Y-12221351D02*
X22434463Y-12217209D01*
X15040390Y-8830160D02*
X15044398Y-8827336D01*
X17306870Y-12660748D02*
X17307231Y-12655858D01*
X7174748Y-12565870D02*
X7179651Y-12565750D01*
X12391330Y-5174840D02*
X12390256Y-5179624D01*
X17500910Y-5189005D02*
X17499146Y-5193580D01*
X9935041Y-8824713D02*
X9939307Y-8822296D01*
X12205046Y-12618557D02*
X12207463Y-12614291D01*
X4458787Y-8961959D02*
X4456164Y-8966101D01*
X19813380Y-8915502D02*
X19813019Y-8920392D01*
X14694160Y-8944255D02*
X14692395Y-8948830D01*
X17466360Y-12585409D02*
X17470226Y-12588426D01*
X24841758Y-9009419D02*
X24836892Y-9010019D01*
X7194508Y-5556331D02*
X7199339Y-5557170D01*
X14695698Y-8939599D02*
X14694160Y-8944255D01*
X7089341Y-12622937D02*
X7091546Y-12618557D01*
X22421331Y-12650992D02*
X22422169Y-12646160D01*
X7174748Y-5255130D02*
X7169858Y-5254769D01*
X17458209Y-5241037D02*
X17453943Y-5243454D01*
X2166250Y-15819775D02*
X2166277Y-15820875D01*
X19813380Y-8905498D02*
X19813500Y-8910401D01*
X22620250Y-9011727D02*
X22620250Y-12165849D01*
X7109010Y-12236490D02*
X7105629Y-12232939D01*
X17449563Y-5245659D02*
X17445080Y-5247646D01*
X22619769Y-12175642D02*
X22619169Y-12180508D01*
X17312590Y-12199505D02*
X17311052Y-12194849D01*
X7184752Y-5255130D02*
X7179849Y-5255250D01*
X9506090Y-8812420D02*
X9510874Y-8813494D01*
X22594371Y-5222439D02*
X22590990Y-5225990D01*
X4839245Y-9004660D02*
X4834670Y-9002896D01*
X7235351Y-5572086D02*
X7239360Y-5574910D01*
X20125296Y-8957693D02*
X20123091Y-8953313D01*
X7213505Y-12571590D02*
X7218080Y-12573354D01*
X4424459Y-8824713D02*
X4428601Y-8827336D01*
X12254920Y-5247646D02*
X12250437Y-5245659D01*
X22594371Y-12232939D02*
X22590990Y-12236490D01*
X4432610Y-8830160D02*
X4436476Y-8833176D01*
X24860755Y-8816340D02*
X24865330Y-8818104D01*
X25259811Y-8836379D02*
X25263524Y-8833176D01*
X12200854Y-12627420D02*
X12202841Y-12622937D01*
X22420223Y-8810375D02*
X22420250Y-8809275D01*
X17477490Y-12595010D02*
X17480871Y-12598561D01*
X9582198Y-8881401D02*
X9583506Y-8886126D01*
X4440189Y-8836379D02*
X4443740Y-8839760D01*
X4775994Y-8934874D02*
X4774920Y-8930090D01*
X12387410Y-12199505D02*
X12385645Y-12204080D01*
X22453061Y-12591629D02*
X22456774Y-12588426D01*
X12293151Y-12565750D02*
X12293349Y-12565750D01*
X14698080Y-8930090D02*
X14697006Y-8934874D01*
X9948170Y-9002896D02*
X9943687Y-9000909D01*
X12197552Y-12636650D02*
X12199090Y-12631995D01*
X7089341Y-5198063D02*
X7087354Y-5193580D01*
X17316341Y-12208563D02*
X17314354Y-12204080D01*
X15004302Y-8939599D02*
X15002994Y-8934874D01*
X22420370Y-5160252D02*
X22420250Y-5155349D01*
X12373590Y-12225360D02*
X12370574Y-12229226D01*
X2166250Y-9011727D02*
X2166250Y-15819773D01*
X7079625Y-2000027D02*
X7078525Y-2000000D01*
X7246939Y-12239871D02*
X7243226Y-12243074D01*
X12226061Y-5229371D02*
X12222510Y-5225990D01*
X25228081Y-8925258D02*
X25227481Y-8920392D01*
X17308670Y-5635660D02*
X17309744Y-5630876D01*
X14697006Y-8934874D02*
X14695698Y-8939599D01*
X22608454Y-12212942D02*
X22606037Y-12217209D01*
X12193731Y-5645358D02*
X12194331Y-5640492D01*
X9886981Y-8920392D02*
X9886620Y-8915502D01*
X17506269Y-12655858D02*
X17506630Y-12660748D01*
X22437086Y-5210851D02*
X22434463Y-5206709D01*
X7141420Y-12573354D02*
X7145995Y-12571590D01*
X4853410Y-9008580D02*
X4848626Y-9007506D01*
X7087354Y-5193580D02*
X7085590Y-5189005D01*
X22477437Y-12575341D02*
X22481920Y-12573354D01*
X12331580Y-5562854D02*
X12336063Y-5564841D01*
X22510358Y-12566231D02*
X22515248Y-12565870D01*
X25228919Y-8930090D02*
X25228081Y-8925258D01*
X12283358Y-12566231D02*
X12288248Y-12565870D01*
X17336010Y-5584510D02*
X17339561Y-5581129D01*
X17449563Y-5564841D02*
X17453943Y-5567046D01*
X17502448Y-5184349D02*
X17500910Y-5189005D01*
X12288248Y-5255130D02*
X12283358Y-5254769D01*
X22608454Y-5608057D02*
X22610658Y-5612437D01*
X12192023Y-9010500D02*
X9986401Y-9010500D01*
X4805811Y-8836379D02*
X4809524Y-8833176D01*
X7085590Y-12199505D02*
X7084052Y-12194849D01*
X7084052Y-12636650D02*
X7085590Y-12631995D01*
X22520349Y-5255250D02*
X22520151Y-5255250D01*
X27532523Y-9010500D02*
X25326901Y-9010500D01*
X22468791Y-5241037D02*
X22464648Y-5238414D01*
X7279750Y-9011727D02*
X7279750Y-12165849D01*
X12322349Y-12570052D02*
X12327005Y-12571590D01*
X12317624Y-12568744D02*
X12322349Y-12570052D01*
X4471919Y-8895742D02*
X4472519Y-8900608D01*
X24904324Y-8973976D02*
X24901121Y-8977689D01*
X7079870Y-5160252D02*
X7079750Y-5155349D01*
X4382892Y-9010019D02*
X4378002Y-9010380D01*
X22535008Y-5556331D02*
X22539839Y-5557170D01*
X22432046Y-12212942D02*
X22429841Y-12208563D01*
X17382376Y-5558244D02*
X17387160Y-5557170D01*
X17377651Y-12261448D02*
X17372995Y-12259910D01*
X4467160Y-8944255D02*
X4465396Y-8948830D01*
X4471080Y-8930090D02*
X4470006Y-8934874D01*
X7253871Y-5222439D02*
X7250490Y-5225990D01*
X22535008Y-12264669D02*
X22530142Y-12265269D01*
X22481920Y-5562854D02*
X22486495Y-5561090D01*
X12193223Y-15820875D02*
X12193250Y-15819775D01*
X14638330Y-9002896D02*
X14633755Y-9004660D01*
X7275448Y-12636650D02*
X7276756Y-12641376D01*
X7218080Y-12573354D02*
X7222563Y-12575341D01*
X22421331Y-12180508D02*
X22420731Y-12175642D01*
X17306750Y-9011725D02*
X17306723Y-9010625D01*
X22603414Y-5599648D02*
X22606037Y-5603791D01*
X7087354Y-12204080D02*
X7085590Y-12199505D01*
X17406651Y-12265750D02*
X17401748Y-12265630D01*
X22486495Y-5561090D02*
X22491150Y-5559552D01*
X17406651Y-5255250D02*
X17401748Y-5255130D01*
X7084052Y-5626150D02*
X7085590Y-5621495D01*
X25267390Y-8990840D02*
X25263524Y-8987824D01*
X7239360Y-5574910D02*
X7243226Y-5577926D01*
X25238796Y-8957693D02*
X25236591Y-8953313D01*
X12264150Y-12570052D02*
X12268876Y-12568744D01*
X17462351Y-12248914D02*
X17458209Y-12251537D01*
X17449563Y-12256158D02*
X17445080Y-12258145D01*
X22420250Y-9011725D02*
X22420223Y-9010625D01*
X17351149Y-5238414D02*
X17347140Y-5235590D01*
X17336010Y-12236490D02*
X17332629Y-12232939D01*
X4780604Y-8872170D02*
X4782591Y-8867687D01*
X9580660Y-8876745D02*
X9582198Y-8881401D01*
X4447121Y-8977689D02*
X4443740Y-8981240D01*
X12278492Y-12264669D02*
X12273660Y-12263830D01*
X4863108Y-8810981D02*
X4867998Y-8810620D01*
X25307410Y-8812420D02*
X25312242Y-8811581D01*
X17421508Y-12264669D02*
X17416642Y-12265269D01*
X22434463Y-5206709D02*
X22432046Y-5202443D01*
X4470006Y-8886126D02*
X4471080Y-8890910D01*
X7120140Y-12246090D02*
X7116274Y-12243074D01*
X7239360Y-12246090D02*
X7235351Y-12248914D01*
X12379037Y-12217209D02*
X12376414Y-12221351D01*
X7273910Y-12631995D02*
X7275448Y-12636650D01*
X22446129Y-12232939D02*
X22442926Y-12229226D01*
X24907340Y-8850890D02*
X24910164Y-8854899D01*
X25297900Y-8814802D02*
X25302626Y-8813494D01*
X22590990Y-12236490D02*
X22587439Y-12239871D01*
X17406849Y-5555250D02*
X17411752Y-5555370D01*
X17426340Y-5253330D02*
X17421508Y-5254169D01*
X20175170Y-8818104D02*
X20179745Y-8816340D01*
X7099409Y-12225360D02*
X7096586Y-12221351D01*
X22549349Y-5559552D02*
X22554005Y-5561090D01*
X17339561Y-5581129D02*
X17343274Y-5577926D01*
X9948170Y-8818104D02*
X9952745Y-8816340D01*
X12202841Y-12208563D02*
X12200854Y-12204080D01*
X7218080Y-5247646D02*
X7213505Y-5249410D01*
X17480871Y-12232939D02*
X17477490Y-12236490D01*
X17489914Y-12221351D02*
X17487090Y-12225360D01*
X17502448Y-12636650D02*
X17503756Y-12641376D01*
X15066245Y-8816340D02*
X15070900Y-8814802D01*
X7239360Y-12585409D02*
X7243226Y-12588426D01*
X12268876Y-5252256D02*
X12264150Y-5250948D01*
X9557240Y-8981240D02*
X9553689Y-8984621D01*
X12379037Y-12614291D02*
X12381454Y-12618557D01*
X7099409Y-12606140D02*
X7102426Y-12602274D01*
X7145995Y-12259910D02*
X7141420Y-12258145D01*
X24922698Y-8881401D02*
X24924006Y-8886126D01*
X4867998Y-8810620D02*
X4872901Y-8810500D01*
X4472519Y-8920392D02*
X4471919Y-8925258D01*
X27533625Y-2000027D02*
X27532525Y-2000000D01*
X12393250Y-12665651D02*
X12393250Y-15819773D01*
X17421508Y-5556331D02*
X17426340Y-5557170D01*
X12205046Y-5202443D02*
X12202841Y-5198063D01*
X12215926Y-12229226D02*
X12212909Y-12225360D01*
X25263524Y-8987824D02*
X25259811Y-8984621D01*
X15000120Y-8915502D02*
X15000000Y-8910599D01*
X22427854Y-5616920D02*
X22429841Y-5612437D01*
X15000481Y-8900608D02*
X15001081Y-8895742D01*
X9892340Y-8944255D02*
X9890802Y-8939599D01*
X17326410Y-5595640D02*
X17329426Y-5591774D01*
X12207463Y-5603791D02*
X12210086Y-5599648D01*
X7141420Y-5247646D02*
X7136937Y-5245659D01*
X27532525Y-8810500D02*
X27533625Y-8810473D01*
X12312839Y-12263830D02*
X12308008Y-12264669D01*
X12215926Y-12602274D02*
X12219129Y-12598561D01*
X12194331Y-5640492D02*
X12195169Y-5635660D01*
X17494954Y-12618557D02*
X17497159Y-12622937D01*
X4782591Y-8867687D02*
X4784796Y-8863307D01*
X15032811Y-8984621D02*
X15029260Y-8981240D01*
X17500910Y-12199505D02*
X17499146Y-12204080D01*
X7080231Y-5645358D02*
X7080831Y-5640492D01*
X22583726Y-12588426D02*
X22587439Y-12591629D01*
X24894189Y-8984621D02*
X24890476Y-8987824D01*
X22423244Y-5179624D02*
X22422169Y-5174840D01*
X17492537Y-12614291D02*
X17494954Y-12618557D01*
X9923024Y-8987824D02*
X9919311Y-8984621D01*
X7132557Y-12253954D02*
X7128291Y-12251537D01*
X17372995Y-5561090D02*
X17377651Y-5559552D01*
X17401748Y-5255130D02*
X17396858Y-5254769D01*
X19807660Y-8876745D02*
X19809198Y-8881401D01*
X12312839Y-5253330D02*
X12308008Y-5254169D01*
X12237648Y-12582586D02*
X12241791Y-12579963D01*
X7243226Y-5577926D02*
X7246939Y-5581129D01*
X22449510Y-12595010D02*
X22453061Y-12591629D01*
X25275541Y-8824713D02*
X25279807Y-8822296D01*
X17368420Y-5247646D02*
X17363937Y-5245659D01*
X22453061Y-12239871D02*
X22449510Y-12236490D01*
X7208849Y-12570052D02*
X7213505Y-12571590D01*
X22420125Y-2000027D02*
X22419025Y-2000000D01*
X12199090Y-12631995D02*
X12200854Y-12627420D01*
X15014213Y-8859041D02*
X15016836Y-8854899D01*
X25284187Y-8820091D02*
X25288670Y-8818104D01*
X12356726Y-12243074D02*
X12352860Y-12246090D01*
X22563063Y-5564841D02*
X22567442Y-5567046D01*
X17507975Y-9010500D02*
X17506875Y-9010527D01*
X15002994Y-8934874D02*
X15001919Y-8930090D01*
X22610658Y-12622937D02*
X22612645Y-12627420D01*
X17506777Y-9010625D02*
X17506750Y-9011725D01*
X22477437Y-5245659D02*
X22473057Y-5243454D01*
X17332629Y-12598561D02*
X17336010Y-12595010D01*
X22608454Y-5202443D02*
X22606037Y-5206709D01*
X7082744Y-5179624D02*
X7081669Y-5174840D01*
X19718502Y-8810620D02*
X19723392Y-8810981D01*
X17497159Y-12622937D02*
X17499146Y-12627420D01*
X22549349Y-12261448D02*
X22544624Y-12262756D01*
X20127713Y-8859041D02*
X20130336Y-8854899D01*
X17323586Y-12610148D02*
X17326410Y-12606140D01*
X25256260Y-8839760D02*
X25259811Y-8836379D01*
X4458787Y-8859041D02*
X4461204Y-8863307D01*
X7208849Y-12261448D02*
X7204124Y-12262756D01*
X17307231Y-5165142D02*
X17306870Y-5160252D01*
X9886500Y-8910599D02*
X9886500Y-8910401D01*
X22520349Y-5555250D02*
X22525252Y-5555370D01*
X9542101Y-8993664D02*
X9537959Y-8996287D01*
X12344709Y-5241037D02*
X12340442Y-5243454D01*
X7243226Y-12243074D02*
X7239360Y-12246090D01*
X12196244Y-5179624D02*
X12195169Y-5174840D01*
X7272145Y-5193580D02*
X7270158Y-5198063D01*
X12202841Y-12622937D02*
X12205046Y-12618557D01*
X12348851Y-5572086D02*
X12352860Y-5574910D01*
X22525252Y-5255130D02*
X22520349Y-5255250D01*
X22446129Y-5222439D02*
X22442926Y-5218726D01*
X22453061Y-5581129D02*
X22456774Y-5577926D01*
X4872901Y-9010500D02*
X4867998Y-9010380D01*
X22515248Y-12565870D02*
X22520151Y-12565750D01*
X22442926Y-5218726D02*
X22439909Y-5214860D01*
X7279750Y-5655151D02*
X7279750Y-8809273D01*
X17503756Y-5179624D02*
X17502448Y-5184349D01*
X15044398Y-8993664D02*
X15040390Y-8990840D01*
X2166250Y-8809275D02*
X2166277Y-8810375D01*
X17320963Y-12614291D02*
X17323586Y-12610148D01*
X24832002Y-9010380D02*
X24827099Y-9010500D01*
X12233640Y-12585409D02*
X12237648Y-12582586D01*
X9569664Y-8966101D02*
X9566840Y-8970110D01*
X25321998Y-8810620D02*
X25326901Y-8810500D01*
X25231302Y-8881401D02*
X25232840Y-8876745D01*
X24926880Y-8915502D02*
X24926519Y-8920392D01*
X9886620Y-8905498D02*
X9886981Y-8900608D01*
X12367371Y-12232939D02*
X12363990Y-12236490D01*
X7078523Y-2000000D02*
X2167477Y-2000000D01*
X22491150Y-5250948D02*
X22486495Y-5249410D01*
X19813019Y-8900608D02*
X19813380Y-8905498D01*
X12379037Y-5603791D02*
X12381454Y-5608057D01*
X4843901Y-8814802D02*
X4848626Y-8813494D01*
X22460640Y-12585409D02*
X22464648Y-12582586D01*
X12226061Y-12591629D02*
X12229774Y-12588426D01*
X25288670Y-9002896D02*
X25284187Y-9000909D01*
X7102426Y-5591774D02*
X7105629Y-5588061D01*
X19801704Y-8957693D02*
X19799287Y-8961959D01*
X9888420Y-8890910D02*
X9889494Y-8886126D01*
X4443740Y-8839760D02*
X4447121Y-8843311D01*
X17494954Y-5202443D02*
X17492537Y-5206709D01*
X7194508Y-5254169D02*
X7189642Y-5254769D01*
X22426090Y-12199505D02*
X22424552Y-12194849D01*
X7082744Y-5630876D02*
X7084052Y-5626150D01*
X14699519Y-8900608D02*
X14699880Y-8905498D01*
X9896091Y-8953313D02*
X9894104Y-8948830D01*
X12392169Y-5640492D02*
X12392769Y-5645358D01*
X24927000Y-8910401D02*
X24927000Y-8910599D01*
X20133160Y-8970110D02*
X20130336Y-8966101D01*
X25227000Y-8910599D02*
X25227000Y-8910401D01*
X14690408Y-8867687D02*
X14692395Y-8872170D01*
X17497159Y-5612437D02*
X17499146Y-5616920D01*
X17347140Y-12246090D02*
X17343274Y-12243074D01*
X7278669Y-12650992D02*
X7279269Y-12655858D01*
X20142760Y-8981240D02*
X20139379Y-8977689D01*
X9971742Y-8811581D02*
X9976608Y-8810981D01*
X9583506Y-8886126D02*
X9584580Y-8890910D01*
X9962126Y-9007506D02*
X9957401Y-9006198D01*
X12205046Y-5608057D02*
X12207463Y-5603791D01*
X25228919Y-8890910D02*
X25229994Y-8886126D01*
X17387160Y-12263830D02*
X17382376Y-12262756D01*
X9976608Y-9010019D02*
X9971742Y-9009419D01*
X22620250Y-15819775D02*
X22620277Y-15820875D01*
X9923024Y-8833176D02*
X9926890Y-8830160D01*
X4465396Y-8872170D02*
X4467160Y-8876745D01*
X9563824Y-8973976D02*
X9560621Y-8977689D01*
X17305523Y-2000000D02*
X12394477Y-2000000D01*
X20142760Y-8839760D02*
X20146311Y-8836379D01*
X4432610Y-8990840D02*
X4428601Y-8993664D01*
X22587439Y-5229371D02*
X22583726Y-5232574D01*
X4774081Y-8895742D02*
X4774920Y-8890910D01*
X12352860Y-12585409D02*
X12356726Y-12588426D01*
X12383658Y-12622937D02*
X12385645Y-12627420D01*
X17462351Y-5238414D02*
X17458209Y-5241037D01*
X7150650Y-12570052D02*
X7155376Y-12568744D01*
X12283358Y-5555731D02*
X12288248Y-5555370D01*
X14699880Y-8915502D02*
X14699519Y-8920392D01*
X4450324Y-8847024D02*
X4453340Y-8850890D01*
X12250437Y-5245659D02*
X12246057Y-5243454D01*
X24846589Y-8812420D02*
X24851374Y-8813494D01*
X4813390Y-8990840D02*
X4809524Y-8987824D01*
X24827099Y-9010500D02*
X22621477Y-9010500D01*
X22500660Y-12567669D02*
X22505492Y-12566831D01*
X15032811Y-8836379D02*
X15036524Y-8833176D01*
X17484074Y-5218726D02*
X17480871Y-5222439D01*
X7250490Y-5225990D02*
X7246939Y-5229371D01*
X22621475Y-9010500D02*
X22620374Y-9010527D01*
X22426090Y-12631995D02*
X22427854Y-12627420D01*
X22505492Y-12566831D02*
X22510358Y-12566231D01*
X12356726Y-5577926D02*
X12360439Y-5581129D01*
X4774920Y-8890910D02*
X4775994Y-8886126D01*
X14655601Y-8827336D02*
X14659610Y-8830160D01*
X14667189Y-8984621D02*
X14663476Y-8987824D01*
X12392769Y-12655858D02*
X12393130Y-12660748D01*
X22603414Y-12610148D02*
X22606037Y-12614291D01*
X4817399Y-8993664D02*
X4813390Y-8990840D01*
X17401748Y-12565870D02*
X17406651Y-12565750D01*
X17502448Y-12194849D02*
X17500910Y-12199505D01*
X4773120Y-8915502D02*
X4773000Y-8910599D01*
X9506090Y-9008580D02*
X9501258Y-9009419D01*
X7235351Y-12582586D02*
X7239360Y-12585409D01*
X17309744Y-5630876D02*
X17311052Y-5626150D01*
X22486495Y-5249410D02*
X22481920Y-5247646D01*
X12393250Y-8809275D02*
X12393277Y-8810375D01*
X7218080Y-12258145D02*
X7213505Y-12259910D01*
X4387758Y-8811581D02*
X4392590Y-8812420D01*
X24878459Y-8824713D02*
X24882601Y-8827336D01*
X7277830Y-12646160D02*
X7278669Y-12650992D01*
X7184752Y-12565870D02*
X7189642Y-12566231D01*
X17306750Y-8809273D02*
X17306750Y-5655151D01*
X9943687Y-8820091D02*
X9948170Y-8818104D01*
X7174748Y-12265630D02*
X7169858Y-12265269D01*
X17440505Y-5561090D02*
X17445080Y-5562854D01*
X22575851Y-12248914D02*
X22571709Y-12251537D01*
X19713599Y-9010500D02*
X17507977Y-9010500D01*
X24841758Y-8811581D02*
X24846589Y-8812420D01*
X20162041Y-8996287D02*
X20157899Y-8993664D01*
X2167477Y-8810500D02*
X4373099Y-8810500D01*
X22439909Y-12606140D02*
X22442926Y-12602274D01*
X12229774Y-12243074D02*
X12226061Y-12239871D01*
X12393277Y-2000124D02*
X12393250Y-2001225D01*
X9560621Y-8843311D02*
X9563824Y-8847024D01*
X12200854Y-5193580D02*
X12199090Y-5189005D01*
X7278669Y-5640492D02*
X7279269Y-5645358D01*
X14619589Y-8812420D02*
X14624374Y-8813494D01*
X7279269Y-12175642D02*
X7278669Y-12180508D01*
X22468791Y-5569463D02*
X22473057Y-5567046D01*
X25243836Y-8854899D02*
X25246659Y-8850890D01*
X4468698Y-8881401D02*
X4470006Y-8886126D01*
X22549349Y-12570052D02*
X22554005Y-12571590D01*
X7112561Y-12239871D02*
X7109010Y-12236490D01*
X7096586Y-12610148D02*
X7099409Y-12606140D01*
X12376414Y-12610148D02*
X12379037Y-12614291D01*
X22597574Y-5591774D02*
X22600590Y-5595640D01*
X14624374Y-8813494D02*
X14629099Y-8814802D01*
X17440505Y-5249410D02*
X17435849Y-5250948D01*
X12259495Y-5561090D02*
X12264150Y-5559552D01*
X22610658Y-12208563D02*
X22608454Y-12212942D01*
X9566840Y-8970110D02*
X9563824Y-8973976D01*
X17506750Y-2001227D02*
X17506750Y-5155349D01*
X7213505Y-12259910D02*
X7208849Y-12261448D01*
X22446129Y-12598561D02*
X22449510Y-12595010D01*
X9887581Y-8895742D02*
X9888420Y-8890910D01*
X7272145Y-12627420D02*
X7273910Y-12631995D01*
X15075626Y-9007506D02*
X15070900Y-9006198D01*
X19769101Y-8993664D02*
X19764959Y-8996287D01*
X12322349Y-5559552D02*
X12327005Y-5561090D01*
X17309744Y-5179624D02*
X17308670Y-5174840D01*
X19799287Y-8961959D02*
X19796664Y-8966101D01*
X7091546Y-5202443D02*
X7089341Y-5198063D01*
X22464648Y-12582586D02*
X22468791Y-12579963D01*
X9569664Y-8854899D02*
X9572287Y-8859041D01*
X20119340Y-8876745D02*
X20121104Y-8872170D01*
X17453943Y-5243454D02*
X17449563Y-5245659D01*
X17477490Y-12236490D02*
X17473939Y-12239871D01*
X17426340Y-12567669D02*
X17431124Y-12568744D01*
X7096586Y-5210851D02*
X7093963Y-5206709D01*
X9553689Y-8984621D02*
X9549976Y-8987824D01*
X22477437Y-12256158D02*
X22473057Y-12253954D01*
X17307231Y-12175642D02*
X17306870Y-12170752D01*
X22539839Y-12567669D02*
X22544624Y-12568744D01*
X19807660Y-8944255D02*
X19805896Y-8948830D01*
X4397374Y-8813494D02*
X4402099Y-8814802D01*
X7270158Y-12208563D02*
X7267954Y-12212942D01*
X12363990Y-5584510D02*
X12367371Y-5588061D01*
X25284187Y-9000909D02*
X25279807Y-8998704D01*
X12393250Y-5155349D02*
X12393130Y-5160252D01*
X9557240Y-8839760D02*
X9560621Y-8843311D01*
X17435849Y-12570052D02*
X17440505Y-12571590D01*
X9524830Y-9002896D02*
X9520255Y-9004660D01*
X12327005Y-5249410D02*
X12322349Y-5250948D01*
X12273660Y-5557170D02*
X12278492Y-5556331D01*
X17311052Y-12194849D02*
X17309744Y-12190124D01*
X22579860Y-5574910D02*
X22583726Y-5577926D01*
X17306750Y-5655151D02*
X17306870Y-5650248D01*
X17406849Y-12565750D02*
X17411752Y-12565870D01*
X19780689Y-8836379D02*
X19784240Y-8839760D01*
X12317624Y-5558244D02*
X12322349Y-5559552D01*
X14690408Y-8953313D02*
X14688204Y-8957693D01*
X9586380Y-8905498D02*
X9586500Y-8910401D01*
X12303142Y-5254769D02*
X12298252Y-5255130D01*
X14659610Y-8990840D02*
X14655601Y-8993664D01*
X4774081Y-8925258D02*
X4773481Y-8920392D01*
X4795676Y-8973976D02*
X4792660Y-8970110D01*
X9919311Y-8836379D02*
X9923024Y-8833176D01*
X17305525Y-8810500D02*
X17306625Y-8810473D01*
X7124148Y-12582586D02*
X7128291Y-12579963D01*
X12327005Y-12571590D02*
X12331580Y-12573354D01*
X9529313Y-8820091D02*
X9533693Y-8822296D01*
X22554005Y-12259910D02*
X22549349Y-12261448D01*
X7160160Y-12567669D02*
X7164992Y-12566831D01*
X22510358Y-5254769D02*
X22505492Y-5254169D01*
X17470226Y-5577926D02*
X17473939Y-5581129D01*
X19723392Y-8810981D02*
X19728258Y-8811581D01*
X7081669Y-12185339D02*
X7080831Y-12180508D01*
X12194331Y-12180508D02*
X12193731Y-12175642D01*
X14694160Y-8876745D02*
X14695698Y-8881401D01*
X22464648Y-5572086D02*
X22468791Y-5569463D01*
X4834670Y-9002896D02*
X4830187Y-9000909D01*
X7102426Y-12602274D02*
X7105629Y-12598561D01*
X9584580Y-8890910D02*
X9585419Y-8895742D01*
X12264150Y-5559552D02*
X12268876Y-5558244D01*
X22614410Y-12631995D02*
X22615948Y-12636650D01*
X17406651Y-5555250D02*
X17406849Y-5555250D01*
X9894104Y-8948830D02*
X9892340Y-8944255D01*
X25241213Y-8961959D02*
X25238796Y-8957693D01*
X22594371Y-5588061D02*
X22597574Y-5591774D01*
X15036524Y-8833176D02*
X15040390Y-8830160D01*
X12373590Y-12606140D02*
X12376414Y-12610148D01*
X15002994Y-8886126D02*
X15004302Y-8881401D01*
X20198742Y-8811581D02*
X20203608Y-8810981D01*
X15005840Y-8944255D02*
X15004302Y-8939599D01*
X12303142Y-12265269D02*
X12298252Y-12265630D01*
X7120140Y-5574910D02*
X7124148Y-5572086D01*
X12356726Y-5232574D02*
X12352860Y-5235590D01*
X9939307Y-8822296D02*
X9943687Y-8820091D01*
X17343274Y-12243074D02*
X17339561Y-12239871D01*
X7253871Y-12598561D02*
X7257074Y-12602274D01*
X14670740Y-8839760D02*
X14674121Y-8843311D01*
X12254920Y-12258145D02*
X12250437Y-12256158D01*
X20113981Y-8920392D02*
X20113620Y-8915502D01*
X17506630Y-12660748D02*
X17506750Y-12665651D01*
X4848626Y-9007506D02*
X4843901Y-9006198D01*
X12193250Y-8809273D02*
X12193250Y-5655151D01*
X22620250Y-2001227D02*
X22620250Y-5155349D01*
X7273910Y-5621495D02*
X7275448Y-5626150D01*
X9566840Y-8850890D02*
X9569664Y-8854899D01*
X4802260Y-8839760D02*
X4805811Y-8836379D01*
X9583506Y-8934874D02*
X9582198Y-8939599D01*
X4402099Y-8814802D02*
X4406755Y-8816340D01*
X9915760Y-8839760D02*
X9919311Y-8836379D01*
X19809198Y-8939599D02*
X19807660Y-8944255D01*
X12229774Y-12588426D02*
X12233640Y-12585409D01*
X17326410Y-12606140D02*
X17329426Y-12602274D01*
X20179745Y-8816340D02*
X20184401Y-8814802D01*
X22491150Y-5559552D02*
X22495876Y-5558244D01*
X24910164Y-8966101D02*
X24907340Y-8970110D01*
X22421331Y-5170008D02*
X22420731Y-5165142D01*
X15019659Y-8850890D02*
X15022676Y-8847024D01*
X12390256Y-12190124D02*
X12388948Y-12194849D01*
X4397374Y-9007506D02*
X4392590Y-9008580D01*
X4424459Y-8996287D02*
X4420193Y-8998704D01*
X7078525Y-8810500D02*
X7079625Y-8810473D01*
X7109010Y-5584510D02*
X7112561Y-5581129D01*
X12381454Y-5608057D02*
X12383658Y-5612437D01*
X17359557Y-12253954D02*
X17355291Y-12251537D01*
X17494954Y-12212942D02*
X17492537Y-12217209D01*
X24894189Y-8836379D02*
X24897740Y-8839760D01*
X15016836Y-8854899D02*
X15019659Y-8850890D01*
X22579860Y-12585409D02*
X22583726Y-12588426D01*
X9549976Y-8833176D02*
X9553689Y-8836379D01*
X19776976Y-8833176D02*
X19780689Y-8836379D01*
X25326901Y-8810500D02*
X27532523Y-8810500D01*
X24925080Y-8890910D02*
X24925919Y-8895742D01*
X17306750Y-12665651D02*
X17306870Y-12660748D01*
X17416642Y-5254769D02*
X17411752Y-5255130D01*
X17406651Y-12565750D02*
X17406849Y-12565750D01*
X4473000Y-8910599D02*
X4472880Y-8915502D01*
X12241791Y-5241037D02*
X12237648Y-5238414D01*
X17453943Y-5567046D02*
X17458209Y-5569463D01*
X12393130Y-5160252D02*
X12392769Y-5165142D01*
X12392769Y-12175642D02*
X12392169Y-12180508D01*
X7189642Y-12566231D02*
X7194508Y-12566831D01*
X7150650Y-12261448D02*
X7145995Y-12259910D01*
X17314354Y-5616920D02*
X17316341Y-5612437D01*
X7226942Y-5567046D02*
X7231209Y-5569463D01*
X14677324Y-8847024D02*
X14680340Y-8850890D01*
X20157899Y-8993664D02*
X20153890Y-8990840D01*
X4813390Y-8830160D02*
X4817399Y-8827336D01*
X12352860Y-5235590D02*
X12348851Y-5238414D01*
X22505492Y-5254169D02*
X22500660Y-5253330D01*
X15007604Y-8872170D02*
X15009591Y-8867687D01*
X7145995Y-5249410D02*
X7141420Y-5247646D01*
X9915760Y-8981240D02*
X9912379Y-8977689D01*
X17506750Y-12665651D02*
X17506750Y-15819773D01*
X9889494Y-8934874D02*
X9888420Y-8930090D01*
X7189642Y-5254769D02*
X7184752Y-5255130D01*
X20113981Y-8900608D02*
X20114581Y-8895742D01*
X7270158Y-5198063D02*
X7267954Y-5202443D01*
X17445080Y-12258145D02*
X17440505Y-12259910D01*
X15005840Y-8876745D02*
X15007604Y-8872170D01*
X17440505Y-12571590D02*
X17445080Y-12573354D01*
X9888420Y-8930090D02*
X9887581Y-8925258D01*
X15094998Y-8810620D02*
X15099901Y-8810500D01*
X20189126Y-8813494D02*
X20193910Y-8812420D01*
X17506750Y-15819775D02*
X17506777Y-15820875D01*
X22481920Y-12573354D02*
X22486495Y-12571590D01*
X19796664Y-8966101D02*
X19793840Y-8970110D01*
X19728258Y-9009419D02*
X19723392Y-9010019D01*
X24832002Y-8810620D02*
X24836892Y-8810981D01*
X25326901Y-9010500D02*
X25321998Y-9010380D01*
X22460640Y-5574910D02*
X22464648Y-5572086D01*
X20136176Y-8847024D02*
X20139379Y-8843311D01*
X4830187Y-9000909D02*
X4825807Y-8998704D01*
X14692395Y-8948830D02*
X14690408Y-8953313D01*
X7089341Y-12208563D02*
X7087354Y-12204080D01*
X24919395Y-8948830D02*
X24917408Y-8953313D01*
X17506630Y-5650248D02*
X17506750Y-5655151D01*
X12192025Y-15821000D02*
X12193125Y-15820973D01*
X12268876Y-12568744D02*
X12273660Y-12567669D01*
X24869813Y-8820091D02*
X24874192Y-8822296D01*
X7246939Y-5229371D02*
X7243226Y-5232574D01*
X17355291Y-12579963D02*
X17359557Y-12577546D01*
X7080231Y-12175642D02*
X7079870Y-12170752D01*
X17307831Y-12180508D02*
X17307231Y-12175642D01*
X22571709Y-12579963D02*
X22575851Y-12582586D01*
X9986401Y-8810500D02*
X12192023Y-8810500D01*
X9560621Y-8977689D02*
X9557240Y-8981240D01*
X22617256Y-12190124D02*
X22615948Y-12194849D01*
X22571709Y-5241037D02*
X22567442Y-5243454D01*
X17368420Y-12258145D02*
X17363937Y-12256158D01*
X12379037Y-5206709D02*
X12376414Y-5210851D01*
X12278492Y-5254169D02*
X12273660Y-5253330D01*
X7246939Y-5581129D02*
X7250490Y-5584510D01*
X25293245Y-8816340D02*
X25297900Y-8814802D01*
X9574704Y-8863307D02*
X9576909Y-8867687D01*
X14619589Y-9008580D02*
X14614758Y-9009419D01*
X22600590Y-12225360D02*
X22597574Y-12229226D01*
X17382376Y-12262756D02*
X17377651Y-12261448D01*
X7277830Y-5635660D02*
X7278669Y-5640492D01*
X9553689Y-8836379D02*
X9557240Y-8839760D01*
X22603414Y-5210851D02*
X22600590Y-5214860D01*
X12308008Y-12264669D02*
X12303142Y-12265269D01*
X7279874Y-8810473D02*
X7280975Y-8810500D01*
X22515248Y-12265630D02*
X22510358Y-12265269D01*
X14633755Y-9004660D02*
X14629099Y-9006198D01*
X22437086Y-12610148D02*
X22439909Y-12606140D01*
X20114581Y-8895742D02*
X20115420Y-8890910D01*
X7189642Y-12265269D02*
X7184752Y-12265630D01*
X22621477Y-15821000D02*
X27532523Y-15821000D01*
X19811580Y-8890910D02*
X19812419Y-8895742D01*
X7204124Y-12568744D02*
X7208849Y-12570052D01*
X7279750Y-2001227D02*
X7279750Y-5155349D01*
X14692395Y-8872170D02*
X14694160Y-8876745D01*
X17396858Y-12566231D02*
X17401748Y-12565870D01*
X12193250Y-5155349D02*
X12193250Y-2001227D01*
X17473939Y-12239871D02*
X17470226Y-12243074D01*
X9578896Y-8948830D02*
X9576909Y-8953313D01*
X12344709Y-12251537D02*
X12340442Y-12253954D01*
X4420193Y-8998704D02*
X4415813Y-9000909D01*
X12259495Y-12571590D02*
X12264150Y-12570052D01*
X22610658Y-5198063D02*
X22608454Y-5202443D01*
X7277830Y-5174840D02*
X7276756Y-5179624D01*
X19799287Y-8859041D02*
X19801704Y-8863307D01*
X7257074Y-5591774D02*
X7260090Y-5595640D01*
X22620374Y-15820973D02*
X22621475Y-15821000D01*
X4373099Y-9010500D02*
X2167477Y-9010500D01*
X12283358Y-12265269D02*
X12278492Y-12264669D01*
X12288248Y-12265630D02*
X12283358Y-12265269D01*
X24921160Y-8944255D02*
X24919395Y-8948830D01*
X22530142Y-12265269D02*
X22525252Y-12265630D01*
X22468791Y-12579963D02*
X22473057Y-12577546D01*
X15000481Y-8920392D02*
X15000120Y-8915502D01*
X12219129Y-5588061D02*
X12222510Y-5584510D01*
X7102426Y-5218726D02*
X7099409Y-5214860D01*
X12340442Y-12253954D02*
X12336063Y-12256158D01*
X19723392Y-9010019D02*
X19718502Y-9010380D01*
X17391992Y-12264669D02*
X17387160Y-12263830D01*
X4415813Y-8820091D02*
X4420193Y-8822296D01*
X17487090Y-5214860D02*
X17484074Y-5218726D01*
X22620130Y-5160252D02*
X22619769Y-5165142D01*
X17440505Y-12259910D02*
X17435849Y-12261448D01*
X25236591Y-8953313D02*
X25234604Y-8948830D01*
X20213401Y-9010500D02*
X20208498Y-9010380D01*
X7081669Y-5635660D02*
X7082744Y-5630876D01*
X22473057Y-12253954D02*
X22468791Y-12251537D01*
X24865330Y-9002896D02*
X24860755Y-9004660D01*
X7079750Y-9011725D02*
X7079723Y-9010625D01*
X15057187Y-9000909D02*
X15052807Y-8998704D01*
X17306870Y-5650248D02*
X17307231Y-5645358D01*
X7279777Y-2000124D02*
X7279750Y-2001225D01*
X22530142Y-5254769D02*
X22525252Y-5255130D01*
X22612645Y-12204080D02*
X22610658Y-12208563D01*
X17355291Y-12251537D02*
X17351149Y-12248914D01*
X25293245Y-9004660D02*
X25288670Y-9002896D01*
X15080410Y-9008580D02*
X15075626Y-9007506D01*
X17504830Y-5174840D02*
X17503756Y-5179624D01*
X7155376Y-12568744D02*
X7160160Y-12567669D01*
X12293151Y-5255250D02*
X12288248Y-5255130D01*
X12393374Y-15820973D02*
X12394475Y-15821000D01*
X9981498Y-9010380D02*
X9976608Y-9010019D01*
X4784796Y-8863307D02*
X4787213Y-8859041D01*
X9900713Y-8961959D02*
X9898296Y-8957693D01*
X12233640Y-12246090D02*
X12229774Y-12243074D01*
X22535008Y-5254169D02*
X22530142Y-5254769D01*
X7087354Y-12627420D02*
X7089341Y-12622937D01*
X22575851Y-12582586D02*
X22579860Y-12585409D01*
X12308008Y-12566831D02*
X12312839Y-12567669D01*
X17421508Y-12566831D02*
X17426340Y-12567669D01*
X17401748Y-12265630D02*
X17396858Y-12265269D01*
X2166375Y-8810473D02*
X2167475Y-8810500D01*
X4428601Y-8827336D02*
X4432610Y-8830160D01*
X12202841Y-5612437D02*
X12205046Y-5608057D01*
X12387410Y-12631995D02*
X12388948Y-12636650D01*
X25246659Y-8970110D02*
X25243836Y-8966101D01*
X4392590Y-9008580D02*
X4387758Y-9009419D01*
X7132557Y-5567046D02*
X7136937Y-5564841D01*
X9962126Y-8813494D02*
X9966910Y-8812420D01*
X9889494Y-8886126D02*
X9890802Y-8881401D01*
X22597574Y-12602274D02*
X22600590Y-12606140D01*
X7204124Y-5558244D02*
X7208849Y-5559552D01*
X20213401Y-8810500D02*
X22419023Y-8810500D01*
X25246659Y-8850890D02*
X25249676Y-8847024D01*
X17500910Y-12631995D02*
X17502448Y-12636650D01*
X17431124Y-12568744D02*
X17435849Y-12570052D01*
X7222563Y-12575341D02*
X7226942Y-12577546D01*
X22420370Y-12660748D02*
X22420731Y-12655858D01*
X12293349Y-5255250D02*
X12293151Y-5255250D01*
X4456164Y-8966101D02*
X4453340Y-8970110D01*
X9524830Y-8818104D02*
X9529313Y-8820091D01*
X20150024Y-8833176D02*
X20153890Y-8830160D01*
X12193370Y-12170752D02*
X12193250Y-12165849D01*
X12193250Y-5655151D02*
X12193370Y-5650248D01*
X20150024Y-8987824D02*
X20146311Y-8984621D01*
X24836892Y-9010019D02*
X24832002Y-9010380D01*
X22456774Y-5232574D02*
X22453061Y-5229371D01*
X17506750Y-5655151D02*
X17506750Y-8809273D01*
X14605002Y-9010380D02*
X14600099Y-9010500D01*
X7105629Y-5588061D02*
X7109010Y-5584510D01*
X20153890Y-8990840D02*
X20150024Y-8987824D01*
X7116274Y-12588426D02*
X7120140Y-12585409D01*
X17406849Y-12265750D02*
X17406651Y-12265750D01*
X7213505Y-5561090D02*
X7218080Y-5562854D01*
X7160160Y-5557170D02*
X7164992Y-5556331D01*
X17339561Y-12591629D02*
X17343274Y-12588426D01*
X7273910Y-5189005D02*
X7272145Y-5193580D01*
X17506875Y-8810473D02*
X17507975Y-8810500D01*
X12195169Y-5635660D02*
X12196244Y-5630876D01*
X12312839Y-12567669D02*
X12317624Y-12568744D01*
X22615948Y-12194849D02*
X22614410Y-12199505D01*
X17382376Y-5252256D02*
X17377651Y-5250948D01*
X22617256Y-12641376D02*
X22618330Y-12646160D01*
X15061670Y-8818104D02*
X15066245Y-8816340D01*
X25241213Y-8859041D02*
X25243836Y-8854899D01*
X22530142Y-12566231D02*
X22535008Y-12566831D01*
X7231209Y-5241037D02*
X7226942Y-5243454D01*
X27532525Y-15821000D02*
X27533625Y-15820973D01*
X25312242Y-8811581D02*
X25317108Y-8810981D01*
X12219129Y-5222439D02*
X12215926Y-5218726D01*
X4792660Y-8850890D02*
X4795676Y-8847024D01*
X7262914Y-5210851D02*
X7260090Y-5214860D01*
X7085590Y-5189005D02*
X7084052Y-5184349D01*
X12197552Y-5184349D02*
X12196244Y-5179624D01*
X17435849Y-5250948D02*
X17431124Y-5252256D01*
X7080831Y-12180508D02*
X7080231Y-12175642D01*
X12278492Y-5556331D02*
X12283358Y-5555731D01*
X4802260Y-8981240D02*
X4798879Y-8977689D01*
X22620277Y-2000124D02*
X22620250Y-2001225D01*
X12298252Y-5555370D02*
X12303142Y-5555731D01*
X7199339Y-12567669D02*
X7204124Y-12568744D01*
X24851374Y-9007506D02*
X24846589Y-9008580D01*
X22427854Y-12204080D02*
X22426090Y-12199505D01*
X24926880Y-8905498D02*
X24927000Y-8910401D01*
X19811580Y-8930090D02*
X19810506Y-8934874D01*
X7096586Y-12221351D02*
X7093963Y-12217209D01*
X22558580Y-12573354D02*
X22563063Y-12575341D01*
X12340442Y-5243454D02*
X12336063Y-5245659D01*
X17487090Y-12606140D02*
X17489914Y-12610148D01*
X7279630Y-12660748D02*
X7279750Y-12665651D01*
X22571709Y-12251537D02*
X22567442Y-12253954D01*
X12237648Y-5238414D02*
X12233640Y-5235590D01*
X14670740Y-8981240D02*
X14667189Y-8984621D01*
X22583726Y-5232574D02*
X22579860Y-5235590D01*
X7160160Y-12263830D02*
X7155376Y-12262756D01*
X25267390Y-8830160D02*
X25271398Y-8827336D01*
X7091546Y-12618557D02*
X7093963Y-12614291D01*
X22473057Y-12577546D02*
X22477437Y-12575341D01*
X7078525Y-15821000D02*
X7079625Y-15820973D01*
X14624374Y-9007506D02*
X14619589Y-9008580D01*
X22420731Y-12175642D02*
X22420370Y-12170752D01*
X7079870Y-12170752D02*
X7079750Y-12165849D01*
X22590990Y-5225990D02*
X22587439Y-5229371D01*
X9533693Y-8822296D02*
X9537959Y-8824713D01*
X7267954Y-5608057D02*
X7270158Y-5612437D01*
X19728258Y-8811581D02*
X19733090Y-8812420D01*
X22434463Y-5603791D02*
X22437086Y-5599648D01*
X20113500Y-8910599D02*
X20113500Y-8910401D01*
X17329426Y-5591774D02*
X17332629Y-5588061D01*
X7132557Y-12577546D02*
X7136937Y-12575341D01*
X17480871Y-12598561D02*
X17484074Y-12602274D01*
X17316341Y-5612437D02*
X17318546Y-5608057D01*
X17320963Y-12217209D02*
X17318546Y-12212942D01*
X7079750Y-2001225D02*
X7079723Y-2000124D01*
X4853410Y-8812420D02*
X4858242Y-8811581D01*
X24836892Y-8810981D02*
X24841758Y-8811581D01*
X12336063Y-12256158D02*
X12331580Y-12258145D01*
X7150650Y-5559552D02*
X7155376Y-5558244D01*
X15048541Y-8996287D02*
X15044398Y-8993664D01*
X17309744Y-12190124D02*
X17308670Y-12185339D01*
X7279269Y-5165142D02*
X7278669Y-5170008D01*
X22439909Y-5214860D02*
X22437086Y-5210851D01*
X22600590Y-12606140D02*
X22603414Y-12610148D01*
X25236591Y-8867687D02*
X25238796Y-8863307D01*
X20166307Y-8822296D02*
X20170687Y-8820091D01*
X9491502Y-8810620D02*
X9496392Y-8810981D01*
X12352860Y-12246090D02*
X12348851Y-12248914D01*
X4436476Y-8833176D02*
X4440189Y-8836379D01*
X12298252Y-12265630D02*
X12293349Y-12265750D01*
X24907340Y-8970110D02*
X24904324Y-8973976D01*
X12278492Y-12566831D02*
X12283358Y-12566231D01*
X7145995Y-12571590D02*
X7150650Y-12570052D01*
X22468791Y-12251537D02*
X22464648Y-12248914D01*
X9585419Y-8925258D02*
X9584580Y-8930090D01*
X12192025Y-8810500D02*
X12193125Y-8810473D01*
X7128291Y-12251537D02*
X7124148Y-12248914D01*
X17306625Y-9010527D02*
X17305525Y-9010500D01*
X7124148Y-5238414D02*
X7120140Y-5235590D01*
X25288670Y-8818104D02*
X25293245Y-8816340D01*
X24924006Y-8886126D02*
X24925080Y-8890910D01*
X7218080Y-5562854D02*
X7222563Y-5564841D01*
X20113620Y-8915502D02*
X20113500Y-8910599D01*
X19809198Y-8881401D02*
X19810506Y-8886126D01*
X17347140Y-12585409D02*
X17351149Y-12582586D01*
X12193370Y-5160252D02*
X12193250Y-5155349D01*
X7145995Y-5561090D02*
X7150650Y-5559552D01*
X15001081Y-8895742D02*
X15001919Y-8890910D01*
X7275448Y-5184349D02*
X7273910Y-5189005D01*
X12336063Y-5245659D02*
X12331580Y-5247646D01*
X24869813Y-9000909D02*
X24865330Y-9002896D01*
X15019659Y-8970110D02*
X15016836Y-8966101D01*
X22571709Y-5569463D02*
X22575851Y-5572086D01*
X9520255Y-8816340D02*
X9524830Y-8818104D01*
X7089341Y-5612437D02*
X7091546Y-5608057D01*
X17466360Y-5235590D02*
X17462351Y-5238414D01*
X12212909Y-5214860D02*
X12210086Y-5210851D01*
X22420125Y-9010527D02*
X22419025Y-9010500D01*
X17387160Y-5253330D02*
X17382376Y-5252256D01*
X22453061Y-5229371D02*
X22449510Y-5225990D01*
X14699880Y-8905498D02*
X14700000Y-8910401D01*
X22423244Y-12641376D02*
X22424552Y-12636650D01*
X7128291Y-5241037D02*
X7124148Y-5238414D01*
X22615948Y-12636650D02*
X22617256Y-12641376D01*
X7260090Y-5214860D02*
X7257074Y-5218726D01*
X19751830Y-8818104D02*
X19756313Y-8820091D01*
X4387758Y-9009419D02*
X4382892Y-9010019D01*
X9486599Y-9010500D02*
X7280977Y-9010500D01*
X17458209Y-12251537D02*
X17453943Y-12253954D01*
X22420250Y-8809273D02*
X22420250Y-5655151D01*
X17505669Y-12650992D02*
X17506269Y-12655858D01*
X17359557Y-5567046D02*
X17363937Y-5564841D01*
X22539839Y-5253330D02*
X22535008Y-5254169D01*
X7276756Y-12641376D02*
X7277830Y-12646160D01*
X9912379Y-8977689D02*
X9909176Y-8973976D01*
X17343274Y-12588426D02*
X17347140Y-12585409D01*
X4780604Y-8948830D02*
X4778840Y-8944255D01*
X14633755Y-8816340D02*
X14638330Y-8818104D01*
X9930899Y-8993664D02*
X9926890Y-8990840D01*
X12352860Y-5574910D02*
X12356726Y-5577926D01*
X12293349Y-5555250D02*
X12298252Y-5555370D01*
X9586500Y-8910599D02*
X9586380Y-8915502D01*
X7105629Y-5222439D02*
X7102426Y-5218726D01*
X20184401Y-9006198D02*
X20179745Y-9004660D01*
X25302626Y-9007506D02*
X25297900Y-9006198D01*
X22449510Y-5584510D02*
X22453061Y-5581129D01*
X17332629Y-5222439D02*
X17329426Y-5218726D01*
X17507977Y-8810500D02*
X19713599Y-8810500D01*
X17314354Y-12627420D02*
X17316341Y-12622937D01*
X25234604Y-8948830D02*
X25232840Y-8944255D01*
X17312590Y-5189005D02*
X17311052Y-5184349D01*
X24919395Y-8872170D02*
X24921160Y-8876745D01*
X4447121Y-8843311D02*
X4450324Y-8847024D01*
X14642813Y-8820091D02*
X14647192Y-8822296D01*
X17506750Y-12165849D02*
X17506630Y-12170752D01*
X12199090Y-5189005D02*
X12197552Y-5184349D01*
X17473939Y-12591629D02*
X17477490Y-12595010D01*
X9890802Y-8939599D02*
X9889494Y-8934874D01*
X4798879Y-8977689D02*
X4795676Y-8973976D01*
X12388948Y-12636650D02*
X12390256Y-12641376D01*
X7279630Y-12170752D02*
X7279269Y-12175642D01*
X2166250Y-2001227D02*
X2166250Y-8809273D01*
X9900713Y-8859041D02*
X9903336Y-8854899D01*
X12254920Y-5562854D02*
X12259495Y-5561090D01*
X17458209Y-12579963D02*
X17462351Y-12582586D01*
X17314354Y-12204080D02*
X17312590Y-12199505D01*
X7105629Y-12598561D02*
X7109010Y-12595010D01*
X12317624Y-12262756D02*
X12312839Y-12263830D01*
X12222510Y-12236490D02*
X12219129Y-12232939D01*
X22544624Y-5558244D02*
X22549349Y-5559552D01*
X22456774Y-12243074D02*
X22453061Y-12239871D01*
X7280975Y-9010500D02*
X7279874Y-9010527D01*
X24901121Y-8977689D02*
X24897740Y-8981240D01*
X17343274Y-5577926D02*
X17347140Y-5574910D01*
X14629099Y-8814802D02*
X14633755Y-8816340D01*
X17332629Y-12232939D02*
X17329426Y-12229226D01*
X12283358Y-5254769D02*
X12278492Y-5254169D01*
X12392169Y-5170008D02*
X12391330Y-5174840D01*
X19812419Y-8925258D02*
X19811580Y-8930090D01*
X24915204Y-8863307D02*
X24917408Y-8867687D01*
X12383658Y-12208563D02*
X12381454Y-12212942D01*
X24910164Y-8854899D02*
X24912787Y-8859041D01*
X15009591Y-8953313D02*
X15007604Y-8948830D01*
X17323586Y-12221351D02*
X17320963Y-12217209D01*
X25252879Y-8977689D02*
X25249676Y-8973976D01*
X22449510Y-12236490D02*
X22446129Y-12232939D01*
X12246057Y-5567046D02*
X12250437Y-5564841D01*
X17497159Y-5198063D02*
X17494954Y-5202443D01*
X14667189Y-8836379D02*
X14670740Y-8839760D01*
X22620374Y-8810473D02*
X22621475Y-8810500D01*
X25229994Y-8886126D02*
X25231302Y-8881401D01*
X19812419Y-8895742D02*
X19813019Y-8900608D01*
X17416642Y-12566231D02*
X17421508Y-12566831D01*
X17368420Y-5562854D02*
X17372995Y-5561090D01*
X4472880Y-8905498D02*
X4473000Y-8910401D01*
X24926519Y-8900608D02*
X24926880Y-8905498D01*
X22544624Y-12568744D02*
X22549349Y-12570052D01*
X20123091Y-8953313D02*
X20121104Y-8948830D01*
X12390256Y-5179624D02*
X12388948Y-5184349D01*
X15070900Y-9006198D02*
X15066245Y-9004660D01*
X7109010Y-5225990D02*
X7105629Y-5222439D01*
X22420250Y-12165849D02*
X22420250Y-9011727D01*
X20184401Y-8814802D02*
X20189126Y-8813494D01*
X14629099Y-9006198D02*
X14624374Y-9007506D01*
X7087354Y-5616920D02*
X7089341Y-5612437D01*
X19805896Y-8872170D02*
X19807660Y-8876745D01*
X14663476Y-8833176D02*
X14667189Y-8836379D01*
X22620250Y-12165849D02*
X22620130Y-12170752D01*
X7155376Y-12262756D02*
X7150650Y-12261448D01*
X17401748Y-5555370D02*
X17406651Y-5555250D01*
X22429841Y-5198063D02*
X22427854Y-5193580D01*
X12363990Y-12595010D02*
X12367371Y-12598561D01*
X4773120Y-8905498D02*
X4773481Y-8900608D01*
X12222510Y-12595010D02*
X12226061Y-12591629D01*
X7253871Y-5588061D02*
X7257074Y-5591774D01*
X4473000Y-8910401D02*
X4473000Y-8910599D01*
X12273660Y-12263830D02*
X12268876Y-12262756D01*
X20130336Y-8966101D02*
X20127713Y-8961959D01*
X12222510Y-5225990D02*
X12219129Y-5222439D01*
X17320963Y-5206709D02*
X17318546Y-5202443D01*
X25279807Y-8822296D02*
X25284187Y-8820091D01*
X7279750Y-12665651D02*
X7279750Y-15819773D01*
X12393250Y-9011727D02*
X12393250Y-12165849D01*
X17396858Y-5254769D02*
X17391992Y-5254169D01*
X9510874Y-8813494D02*
X9515599Y-8814802D01*
X9912379Y-8843311D02*
X9915760Y-8839760D01*
X17421508Y-5254169D02*
X17416642Y-5254769D01*
X12394475Y-2000000D02*
X12393374Y-2000027D01*
X12391330Y-12646160D02*
X12392169Y-12650992D01*
X12215926Y-5218726D02*
X12212909Y-5214860D01*
X22424552Y-12194849D02*
X22423244Y-12190124D01*
X17306750Y-5155349D02*
X17306750Y-2001227D01*
X24926519Y-8920392D02*
X24925919Y-8925258D01*
X12383658Y-5198063D02*
X12381454Y-5202443D01*
X20179745Y-9004660D02*
X20175170Y-9002896D01*
X7262914Y-5599648D02*
X7265537Y-5603791D01*
X12387410Y-5621495D02*
X12388948Y-5626150D01*
X14614758Y-8811581D02*
X14619589Y-8812420D01*
X7079870Y-12660748D02*
X7080231Y-12655858D01*
X22619169Y-12180508D02*
X22618330Y-12185339D01*
X12205046Y-12212942D02*
X12202841Y-12208563D01*
X7184752Y-5555370D02*
X7189642Y-5555731D01*
X7079750Y-8809273D02*
X7079750Y-5655151D01*
X19784240Y-8981240D02*
X19780689Y-8984621D01*
X22575851Y-5238414D02*
X22571709Y-5241037D01*
X22567442Y-5243454D02*
X22563063Y-5245659D01*
X4789836Y-8966101D02*
X4787213Y-8961959D01*
X7267954Y-5202443D02*
X7265537Y-5206709D01*
X27532523Y-2000000D02*
X22621477Y-2000000D01*
X17473939Y-5581129D02*
X17477490Y-5584510D01*
X7179651Y-5555250D02*
X7179849Y-5555250D01*
X20114581Y-8925258D02*
X20113981Y-8920392D01*
X12391330Y-12185339D02*
X12390256Y-12190124D01*
X17504830Y-12646160D02*
X17505669Y-12650992D01*
X9886981Y-8900608D02*
X9887581Y-8895742D01*
X9906160Y-8850890D02*
X9909176Y-8847024D01*
X22587439Y-5581129D02*
X22590990Y-5584510D01*
X24922698Y-8939599D02*
X24921160Y-8944255D01*
X17372995Y-12259910D02*
X17368420Y-12258145D01*
X22495876Y-12568744D02*
X22500660Y-12567669D01*
X22420731Y-5645358D02*
X22421331Y-5640492D01*
X12385645Y-12627420D02*
X12387410Y-12631995D01*
X7079723Y-15820875D02*
X7079750Y-15819775D01*
X9890802Y-8881401D02*
X9892340Y-8876745D01*
X12393250Y-12165849D02*
X12393130Y-12170752D01*
X22434463Y-12217209D02*
X22432046Y-12212942D01*
X24878459Y-8996287D02*
X24874192Y-8998704D01*
X24921160Y-8876745D02*
X24922698Y-8881401D01*
X12250437Y-12575341D02*
X12254920Y-12573354D01*
X7226942Y-12577546D02*
X7231209Y-12579963D01*
X25229994Y-8934874D02*
X25228919Y-8930090D01*
X19742599Y-9006198D02*
X19737874Y-9007506D01*
X17435849Y-5559552D02*
X17440505Y-5561090D01*
X19747255Y-9004660D02*
X19742599Y-9006198D01*
X17445080Y-5562854D02*
X17449563Y-5564841D01*
X20170687Y-9000909D02*
X20166307Y-8998704D01*
X7199339Y-5557170D02*
X7204124Y-5558244D01*
X9578896Y-8872170D02*
X9580660Y-8876745D01*
X20208498Y-8810620D02*
X20213401Y-8810500D01*
X17411752Y-12265630D02*
X17406849Y-12265750D01*
X17458209Y-5569463D02*
X17462351Y-5572086D01*
X12193731Y-12655858D02*
X12194331Y-12650992D01*
X19790824Y-8847024D02*
X19793840Y-8850890D01*
X25243836Y-8966101D02*
X25241213Y-8961959D01*
X17306750Y-15819773D02*
X17306750Y-12665651D01*
X20203608Y-8810981D02*
X20208498Y-8810620D01*
X27533723Y-15820875D02*
X27533750Y-15819775D01*
X12370574Y-12602274D02*
X12373590Y-12606140D01*
X7150650Y-5250948D02*
X7145995Y-5249410D01*
X17462351Y-5572086D02*
X17466360Y-5574910D01*
X25232840Y-8944255D02*
X25231302Y-8939599D01*
X17462351Y-12582586D02*
X17466360Y-12585409D01*
X22587439Y-12591629D02*
X22590990Y-12595010D01*
X24897740Y-8839760D02*
X24901121Y-8843311D01*
X24860755Y-9004660D02*
X24856099Y-9006198D01*
X15029260Y-8981240D02*
X15025879Y-8977689D01*
X22500660Y-5557170D02*
X22505492Y-5556331D01*
X12193370Y-12660748D02*
X12193731Y-12655858D01*
X22421331Y-5640492D02*
X22422169Y-5635660D01*
X20139379Y-8977689D02*
X20136176Y-8973976D01*
X7189642Y-5555731D02*
X7194508Y-5556331D01*
X17308670Y-12185339D02*
X17307831Y-12180508D01*
X22427854Y-12627420D02*
X22429841Y-12622937D01*
X4378002Y-9010380D02*
X4373099Y-9010500D01*
X9906160Y-8970110D02*
X9903336Y-8966101D01*
X17506269Y-5165142D02*
X17505669Y-5170008D01*
X9976608Y-8810981D02*
X9981498Y-8810620D01*
X7253871Y-12232939D02*
X7250490Y-12236490D01*
X19773110Y-8990840D02*
X19769101Y-8993664D01*
X14659610Y-8830160D02*
X14663476Y-8833176D01*
X7278669Y-5170008D02*
X7277830Y-5174840D01*
X19793840Y-8970110D02*
X19790824Y-8973976D01*
X12199090Y-5621495D02*
X12200854Y-5616920D01*
X15022676Y-8847024D02*
X15025879Y-8843311D01*
X9510874Y-9007506D02*
X9506090Y-9008580D01*
X22505492Y-5556331D02*
X22510358Y-5555731D01*
X17503756Y-12190124D02*
X17502448Y-12194849D01*
X7239360Y-5235590D02*
X7235351Y-5238414D01*
X25238796Y-8863307D02*
X25241213Y-8859041D01*
X19787621Y-8977689D02*
X19784240Y-8981240D01*
X12393130Y-5650248D02*
X12393250Y-5655151D01*
X22597574Y-5218726D02*
X22594371Y-5222439D01*
X7081669Y-12646160D02*
X7082744Y-12641376D01*
X17473939Y-5229371D02*
X17470226Y-5232574D01*
X22544624Y-12262756D02*
X22539839Y-12263830D01*
X4787213Y-8961959D02*
X4784796Y-8957693D01*
X7099409Y-5214860D02*
X7096586Y-5210851D01*
X7096586Y-5599648D02*
X7099409Y-5595640D01*
X4392590Y-8812420D02*
X4397374Y-8813494D01*
X12210086Y-5210851D02*
X12207463Y-5206709D01*
X4411330Y-9002896D02*
X4406755Y-9004660D01*
X12193731Y-5165142D02*
X12193370Y-5160252D01*
X17391992Y-5556331D02*
X17396858Y-5555731D01*
X4774920Y-8930090D02*
X4774081Y-8925258D01*
X20113620Y-8905498D02*
X20113981Y-8900608D01*
X4858242Y-8811581D02*
X4863108Y-8810981D01*
X20162041Y-8824713D02*
X20166307Y-8822296D01*
X22600590Y-5214860D02*
X22597574Y-5218726D01*
X25279807Y-8998704D02*
X25275541Y-8996287D01*
X25263524Y-8833176D02*
X25267390Y-8830160D01*
X24856099Y-8814802D02*
X24860755Y-8816340D01*
X22460640Y-12246090D02*
X22456774Y-12243074D01*
X17435849Y-12261448D02*
X17431124Y-12262756D01*
X7079870Y-5650248D02*
X7080231Y-5645358D01*
X22429841Y-12208563D02*
X22427854Y-12204080D01*
X12360439Y-5581129D02*
X12363990Y-5584510D01*
X12298252Y-5255130D02*
X12293349Y-5255250D01*
X15025879Y-8843311D02*
X15029260Y-8839760D01*
X17506269Y-5645358D02*
X17506630Y-5650248D01*
X17453943Y-12577546D02*
X17458209Y-12579963D01*
X22558580Y-5562854D02*
X22563063Y-5564841D01*
X15099901Y-9010500D02*
X15094998Y-9010380D01*
X22603414Y-12221351D02*
X22600590Y-12225360D01*
X17347140Y-5574910D02*
X17351149Y-5572086D01*
X27533625Y-9010527D02*
X27532525Y-9010500D01*
X22620250Y-5655151D02*
X22620250Y-8809273D01*
X7141420Y-5562854D02*
X7145995Y-5561090D01*
X12197552Y-5626150D02*
X12199090Y-5621495D01*
X4453340Y-8850890D02*
X4456164Y-8854899D01*
X20113500Y-8910401D02*
X20113620Y-8905498D01*
X15066245Y-9004660D02*
X15061670Y-9002896D01*
X19810506Y-8886126D02*
X19811580Y-8890910D01*
X12246057Y-5243454D02*
X12241791Y-5241037D01*
X12348851Y-12582586D02*
X12352860Y-12585409D01*
X17445080Y-12573354D02*
X17449563Y-12575341D01*
X17311052Y-5626150D02*
X17312590Y-5621495D01*
X14609892Y-8810981D02*
X14614758Y-8811581D01*
X14674121Y-8977689D02*
X14670740Y-8981240D01*
X4834670Y-8818104D02*
X4839245Y-8816340D01*
X22419025Y-15821000D02*
X22420125Y-15820973D01*
X7250490Y-12595010D02*
X7253871Y-12598561D01*
X7112561Y-5581129D02*
X7116274Y-5577926D01*
X25297900Y-9006198D02*
X25293245Y-9004660D01*
X7199339Y-5253330D02*
X7194508Y-5254169D01*
X19756313Y-8820091D02*
X19760693Y-8822296D01*
X17497159Y-12208563D02*
X17494954Y-12212942D01*
X27533750Y-2001225D02*
X27533723Y-2000124D01*
X9966910Y-8812420D02*
X9971742Y-8811581D01*
X22539839Y-5557170D02*
X22544624Y-5558244D01*
X22486495Y-12259910D02*
X22481920Y-12258145D01*
X14698919Y-8895742D02*
X14699519Y-8900608D01*
X12264150Y-5250948D02*
X12259495Y-5249410D01*
X12370574Y-12229226D02*
X12367371Y-12232939D01*
X12233640Y-5574910D02*
X12237648Y-5572086D01*
X22620250Y-5155349D02*
X22620130Y-5160252D01*
X15007604Y-8948830D02*
X15005840Y-8944255D01*
X20115420Y-8930090D02*
X20114581Y-8925258D01*
X12381454Y-12618557D02*
X12383658Y-12622937D01*
X12383658Y-5612437D02*
X12385645Y-5616920D01*
X7265537Y-12217209D02*
X7262914Y-12221351D01*
X20189126Y-9007506D02*
X20184401Y-9006198D01*
X17323586Y-5599648D02*
X17326410Y-5595640D01*
X17305523Y-9010500D02*
X15099901Y-9010500D01*
X24886610Y-8830160D02*
X24890476Y-8833176D01*
X4411330Y-8818104D02*
X4415813Y-8820091D01*
X7279777Y-9010625D02*
X7279750Y-9011725D01*
X7169858Y-5555731D02*
X7174748Y-5555370D01*
X12226061Y-5581129D02*
X12229774Y-5577926D01*
X12210086Y-12610148D02*
X12212909Y-12606140D01*
X15094998Y-9010380D02*
X15090108Y-9010019D01*
X24874192Y-8998704D02*
X24869813Y-9000909D01*
X7204124Y-5252256D02*
X7199339Y-5253330D01*
X24865330Y-8818104D02*
X24869813Y-8820091D01*
X7257074Y-12602274D02*
X7260090Y-12606140D01*
X9491502Y-9010380D02*
X9486599Y-9010500D01*
X12387410Y-5189005D02*
X12385645Y-5193580D01*
X20175170Y-9002896D02*
X20170687Y-9000909D01*
X20153890Y-8830160D02*
X20157899Y-8827336D01*
X22549349Y-5250948D02*
X22544624Y-5252256D01*
X22563063Y-5245659D02*
X22558580Y-5247646D01*
X14651459Y-8996287D02*
X14647192Y-8998704D01*
X24915204Y-8957693D02*
X24912787Y-8961959D01*
X17318546Y-12618557D02*
X17320963Y-12614291D01*
X12393250Y-2001227D02*
X12393250Y-5155349D01*
X12268876Y-12262756D02*
X12264150Y-12261448D01*
X22525252Y-12565870D02*
X22530142Y-12566231D01*
X22446129Y-5588061D02*
X22449510Y-5584510D01*
X12273660Y-5253330D02*
X12268876Y-5252256D01*
X17489914Y-5599648D02*
X17492537Y-5603791D01*
X17377651Y-5250948D02*
X17372995Y-5249410D01*
X9546110Y-8990840D02*
X9542101Y-8993664D01*
X7179849Y-12565750D02*
X7184752Y-12565870D01*
X22419023Y-9010500D02*
X20213401Y-9010500D01*
X12376414Y-12221351D02*
X12373590Y-12225360D01*
X17347140Y-5235590D02*
X17343274Y-5232574D01*
X20203608Y-9010019D02*
X20198742Y-9009419D01*
X24851374Y-8813494D02*
X24856099Y-8814802D01*
X22439909Y-5595640D02*
X22442926Y-5591774D01*
X20121104Y-8948830D02*
X20119340Y-8944255D01*
X19776976Y-8987824D02*
X19773110Y-8990840D01*
X20166307Y-8998704D02*
X20162041Y-8996287D01*
X25275541Y-8996287D02*
X25271398Y-8993664D01*
X15085242Y-9009419D02*
X15080410Y-9008580D01*
X12363990Y-12236490D02*
X12360439Y-12239871D01*
X12268876Y-5558244D02*
X12273660Y-5557170D01*
X22464648Y-12248914D02*
X22460640Y-12246090D01*
X19733090Y-9008580D02*
X19728258Y-9009419D01*
X7128291Y-12579963D02*
X7132557Y-12577546D01*
X9898296Y-8957693D02*
X9896091Y-8953313D01*
X7164992Y-12264669D02*
X7160160Y-12263830D01*
X22612645Y-12627420D02*
X22614410Y-12631995D01*
X22449510Y-5225990D02*
X22446129Y-5222439D01*
X7199339Y-12263830D02*
X7194508Y-12264669D01*
X17505669Y-5640492D02*
X17506269Y-5645358D01*
X4471919Y-8925258D02*
X4471080Y-8930090D01*
X12196244Y-12641376D02*
X12197552Y-12636650D01*
X22495876Y-5252256D02*
X22491150Y-5250948D01*
X7079723Y-8810375D02*
X7079750Y-8809275D01*
X22515248Y-5255130D02*
X22510358Y-5254769D01*
X22520151Y-5255250D02*
X22515248Y-5255130D01*
X4428601Y-8993664D02*
X4424459Y-8996287D01*
X12344709Y-5569463D02*
X12348851Y-5572086D01*
X22563063Y-12575341D02*
X22567442Y-12577546D01*
X7257074Y-12229226D02*
X7253871Y-12232939D01*
X2167477Y-15821000D02*
X7078523Y-15821000D01*
X12288248Y-5555370D02*
X12293151Y-5555250D01*
X17306625Y-2000027D02*
X17305525Y-2000000D01*
X17445080Y-5247646D02*
X17440505Y-5249410D01*
X12331580Y-12258145D02*
X12327005Y-12259910D01*
X14695698Y-8881401D02*
X14697006Y-8886126D01*
X12367371Y-5222439D02*
X12363990Y-5225990D01*
X9572287Y-8961959D02*
X9569664Y-8966101D01*
X4782591Y-8953313D02*
X4780604Y-8948830D01*
X22615948Y-5626150D02*
X22617256Y-5630876D01*
X12194331Y-12650992D02*
X12195169Y-12646160D01*
X19737874Y-9007506D02*
X19733090Y-9008580D01*
X4378002Y-8810620D02*
X4382892Y-8810981D01*
X7267954Y-12212942D02*
X7265537Y-12217209D01*
X20208498Y-9010380D02*
X20203608Y-9010019D01*
X15057187Y-8820091D02*
X15061670Y-8818104D01*
X22456774Y-5577926D02*
X22460640Y-5574910D01*
X12393130Y-12170752D02*
X12392769Y-12175642D01*
X22590990Y-12595010D02*
X22594371Y-12598561D01*
X17484074Y-12229226D02*
X17480871Y-12232939D01*
X4777302Y-8939599D02*
X4775994Y-8934874D01*
X7169858Y-5254769D02*
X7164992Y-5254169D01*
X24874192Y-8822296D02*
X24878459Y-8824713D01*
X12336063Y-5564841D02*
X12340442Y-5567046D01*
X4443740Y-8981240D02*
X4440189Y-8984621D01*
X22456774Y-12588426D02*
X22460640Y-12585409D01*
X19760693Y-8998704D02*
X19756313Y-9000909D01*
X12363990Y-5225990D02*
X12360439Y-5229371D01*
X24882601Y-8827336D02*
X24886610Y-8830160D01*
X7116274Y-12243074D02*
X7112561Y-12239871D01*
X7260090Y-12606140D02*
X7262914Y-12610148D01*
X7273910Y-12199505D02*
X7272145Y-12204080D01*
X24886610Y-8990840D02*
X24882601Y-8993664D01*
X14685787Y-8859041D02*
X14688204Y-8863307D01*
X12193250Y-12665651D02*
X12193370Y-12660748D01*
X15000000Y-8910401D02*
X15000120Y-8905498D01*
X17391992Y-5254169D02*
X17387160Y-5253330D01*
X17308670Y-5174840D02*
X17307831Y-5170008D01*
X9903336Y-8966101D02*
X9900713Y-8961959D01*
X22437086Y-5599648D02*
X22439909Y-5595640D01*
X7243226Y-5232574D02*
X7239360Y-5235590D01*
X22442926Y-5591774D02*
X22446129Y-5588061D01*
X25227120Y-8905498D02*
X25227481Y-8900608D01*
X22491150Y-12261448D02*
X22486495Y-12259910D01*
X17411752Y-12565870D02*
X17416642Y-12566231D01*
X17396858Y-5555731D02*
X17401748Y-5555370D01*
X17487090Y-5595640D02*
X17489914Y-5599648D01*
X7105629Y-12232939D02*
X7102426Y-12229226D01*
X9549976Y-8987824D02*
X9546110Y-8990840D01*
X4795676Y-8847024D02*
X4798879Y-8843311D01*
X20116494Y-8886126D02*
X20117802Y-8881401D01*
X19769101Y-8827336D02*
X19773110Y-8830160D01*
X24897740Y-8981240D02*
X24894189Y-8984621D01*
X17431124Y-12262756D02*
X17426340Y-12263830D01*
X14655601Y-8993664D02*
X14651459Y-8996287D01*
X7222563Y-12256158D02*
X7218080Y-12258145D01*
X7169858Y-12265269D02*
X7164992Y-12264669D01*
X24925919Y-8925258D02*
X24925080Y-8930090D01*
X4406755Y-8816340D02*
X4411330Y-8818104D01*
X27533750Y-15819773D02*
X27533750Y-9011727D01*
X22583726Y-12243074D02*
X22579860Y-12246090D01*
X7085590Y-5621495D02*
X7087354Y-5616920D01*
X22558580Y-5247646D02*
X22554005Y-5249410D01*
X14605002Y-8810620D02*
X14609892Y-8810981D01*
X19790824Y-8973976D02*
X19787621Y-8977689D01*
X25307410Y-9008580D02*
X25302626Y-9007506D01*
X17359557Y-12577546D02*
X17363937Y-12575341D01*
X22422169Y-5174840D02*
X22421331Y-5170008D01*
X9572287Y-8859041D02*
X9574704Y-8863307D01*
X7093963Y-5206709D02*
X7091546Y-5202443D01*
X9584580Y-8930090D02*
X9583506Y-8934874D01*
X22432046Y-5202443D02*
X22429841Y-5198063D01*
X17307831Y-12650992D02*
X17308670Y-12646160D01*
X4825807Y-8998704D02*
X4821541Y-8996287D01*
X22434463Y-12614291D02*
X22437086Y-12610148D01*
X7243226Y-12588426D02*
X7246939Y-12591629D01*
X17363937Y-12256158D02*
X17359557Y-12253954D01*
X7179849Y-5255250D02*
X7179651Y-5255250D01*
X12193370Y-5650248D02*
X12193731Y-5645358D01*
X17477490Y-5225990D02*
X17473939Y-5229371D01*
X4463409Y-8953313D02*
X4461204Y-8957693D01*
X22420731Y-5165142D02*
X22420370Y-5160252D01*
X17466360Y-5574910D02*
X17470226Y-5577926D01*
X12370574Y-5591774D02*
X12373590Y-5595640D01*
X7116274Y-5577926D02*
X7120140Y-5574910D01*
X12246057Y-12253954D02*
X12241791Y-12251537D01*
X22621477Y-8810500D02*
X24827099Y-8810500D01*
X7124148Y-12248914D02*
X7120140Y-12246090D01*
X4775994Y-8886126D02*
X4777302Y-8881401D01*
X9542101Y-8827336D02*
X9546110Y-8830160D01*
X7272145Y-12204080D02*
X7270158Y-12208563D01*
X25227120Y-8915502D02*
X25227000Y-8910599D01*
X7102426Y-12229226D02*
X7099409Y-12225360D01*
X2166375Y-15820973D02*
X2167475Y-15821000D01*
X22505492Y-12264669D02*
X22500660Y-12263830D01*
X4858242Y-9009419D02*
X4853410Y-9008580D01*
X9909176Y-8847024D02*
X9912379Y-8843311D01*
X25228081Y-8895742D02*
X25228919Y-8890910D01*
X9957401Y-8814802D02*
X9962126Y-8813494D01*
X22424552Y-5626150D02*
X22426090Y-5621495D01*
X22426090Y-5621495D02*
X22427854Y-5616920D01*
X7235351Y-5238414D02*
X7231209Y-5241037D01*
X7132557Y-5243454D02*
X7128291Y-5241037D01*
X17306870Y-5160252D02*
X17306750Y-5155349D01*
X9537959Y-8824713D02*
X9542101Y-8827336D01*
X14642813Y-9000909D02*
X14638330Y-9002896D01*
X22500660Y-5253330D02*
X22495876Y-5252256D01*
X7276756Y-5630876D02*
X7277830Y-5635660D01*
X17499146Y-5616920D02*
X17500910Y-5621495D01*
X22520151Y-12265750D02*
X22515248Y-12265630D01*
X17453943Y-12253954D02*
X17449563Y-12256158D01*
X22432046Y-5608057D02*
X22434463Y-5603791D01*
X19751830Y-9002896D02*
X19747255Y-9004660D01*
X15075626Y-8813494D02*
X15080410Y-8812420D01*
X12195169Y-12185339D02*
X12194331Y-12180508D01*
X25227481Y-8900608D02*
X25228081Y-8895742D01*
X12344709Y-12579963D02*
X12348851Y-12582586D01*
X7120140Y-12585409D02*
X7124148Y-12582586D01*
X7084052Y-12194849D02*
X7082744Y-12190124D01*
X4784796Y-8957693D02*
X4782591Y-8953313D01*
X7226942Y-12253954D02*
X7222563Y-12256158D01*
X19805896Y-8948830D02*
X19803909Y-8953313D01*
X7124148Y-5572086D02*
X7128291Y-5569463D01*
X7079750Y-12165849D02*
X7079750Y-9011727D01*
X7136937Y-12575341D02*
X7141420Y-12573354D01*
X17480871Y-5222439D02*
X17477490Y-5225990D01*
X7262914Y-12610148D02*
X7265537Y-12614291D01*
X12229774Y-5232574D02*
X12226061Y-5229371D01*
X17307831Y-5170008D02*
X17307231Y-5165142D01*
X22558580Y-12258145D02*
X22554005Y-12259910D01*
X15036524Y-8987824D02*
X15032811Y-8984621D01*
X7179849Y-12265750D02*
X7179651Y-12265750D01*
X22429841Y-5612437D02*
X22432046Y-5608057D01*
X9903336Y-8854899D02*
X9906160Y-8850890D01*
X15025879Y-8977689D02*
X15022676Y-8973976D01*
X12370574Y-5218726D02*
X12367371Y-5222439D01*
X7179651Y-12565750D02*
X7179849Y-12565750D01*
X17499146Y-12204080D02*
X17497159Y-12208563D01*
X7179849Y-5555250D02*
X7184752Y-5555370D01*
X7231209Y-12579963D02*
X7235351Y-12582586D01*
X12303142Y-5555731D02*
X12308008Y-5556331D01*
X12317624Y-5252256D02*
X12312839Y-5253330D01*
X17329426Y-12229226D02*
X17326410Y-12225360D01*
X24924006Y-8934874D02*
X24922698Y-8939599D01*
X22481920Y-5247646D02*
X22477437Y-5245659D01*
X22525252Y-5555370D02*
X22530142Y-5555731D01*
X9892340Y-8876745D02*
X9894104Y-8872170D01*
X9537959Y-8996287D02*
X9533693Y-8998704D01*
X17505669Y-5170008D02*
X17504830Y-5174840D01*
X17484074Y-12602274D02*
X17487090Y-12606140D01*
X25321998Y-9010380D02*
X25317108Y-9010019D01*
X22610658Y-5612437D02*
X22612645Y-5616920D01*
X22594371Y-12598561D02*
X22597574Y-12602274D01*
X24927000Y-8910599D02*
X24926880Y-8915502D01*
X7084052Y-5184349D02*
X7082744Y-5179624D01*
X7279750Y-12165849D02*
X7279630Y-12170752D01*
X7275448Y-12194849D02*
X7273910Y-12199505D01*
X7174748Y-5555370D02*
X7179651Y-5555250D01*
X17382376Y-12568744D02*
X17387160Y-12567669D01*
X4778840Y-8944255D02*
X4777302Y-8939599D01*
X14651459Y-8824713D02*
X14655601Y-8827336D01*
X20193910Y-8812420D02*
X20198742Y-8811581D01*
X14647192Y-8822296D02*
X14651459Y-8824713D01*
X22619169Y-5170008D02*
X22618330Y-5174840D01*
X12388948Y-5626150D02*
X12390256Y-5630876D01*
X22618330Y-12646160D02*
X22619169Y-12650992D01*
X4472519Y-8900608D02*
X4472880Y-8905498D01*
X12215926Y-5591774D02*
X12219129Y-5588061D01*
X9919311Y-8984621D02*
X9915760Y-8981240D01*
X22481920Y-12258145D02*
X22477437Y-12256158D01*
X24925919Y-8895742D02*
X24926519Y-8900608D01*
X7276756Y-5179624D02*
X7275448Y-5184349D01*
X19742599Y-8814802D02*
X19747255Y-8816340D01*
X22618330Y-5174840D02*
X22617256Y-5179624D01*
X7213505Y-5249410D02*
X7208849Y-5250948D01*
X9496392Y-9010019D02*
X9491502Y-9010380D01*
X4436476Y-8987824D02*
X4432610Y-8990840D01*
X22597574Y-12229226D02*
X22594371Y-12232939D01*
X22477437Y-5564841D02*
X22481920Y-5562854D01*
X17431124Y-5252256D02*
X17426340Y-5253330D01*
X4465396Y-8948830D02*
X4463409Y-8953313D01*
X12385645Y-12204080D02*
X12383658Y-12208563D01*
X12237648Y-12248914D02*
X12233640Y-12246090D01*
X22495876Y-12262756D02*
X22491150Y-12261448D01*
X9986401Y-9010500D02*
X9981498Y-9010380D01*
X7155376Y-5252256D02*
X7150650Y-5250948D01*
X17307231Y-5645358D02*
X17307831Y-5640492D01*
X22539839Y-12263830D02*
X22535008Y-12264669D01*
X19764959Y-8824713D02*
X19769101Y-8827336D01*
X17487090Y-12225360D02*
X17484074Y-12229226D01*
X17492537Y-12217209D02*
X17489914Y-12221351D01*
X7270158Y-12622937D02*
X7272145Y-12627420D01*
X12298252Y-12565870D02*
X12303142Y-12566231D01*
X12303142Y-12566231D02*
X12308008Y-12566831D01*
X12308008Y-5556331D02*
X12312839Y-5557170D01*
X24925080Y-8930090D02*
X24924006Y-8934874D01*
X9930899Y-8827336D02*
X9935041Y-8824713D01*
X14638330Y-8818104D02*
X14642813Y-8820091D01*
X17316341Y-12622937D02*
X17318546Y-12618557D01*
X7279630Y-5650248D02*
X7279750Y-5655151D01*
X17507977Y-15821000D02*
X22419023Y-15821000D01*
X22590990Y-5584510D02*
X22594371Y-5588061D01*
X4468698Y-8939599D02*
X4467160Y-8944255D01*
X24917408Y-8953313D02*
X24915204Y-8957693D01*
X20125296Y-8863307D02*
X20127713Y-8859041D01*
X7208849Y-5559552D02*
X7213505Y-5561090D01*
X14688204Y-8957693D02*
X14685787Y-8961959D01*
X17396858Y-12265269D02*
X17391992Y-12264669D01*
X12196244Y-12190124D02*
X12195169Y-12185339D01*
X17306723Y-8810375D02*
X17306750Y-8809275D01*
X12385645Y-5616920D02*
X12387410Y-5621495D01*
X15011796Y-8863307D02*
X15014213Y-8859041D01*
X7078523Y-9010500D02*
X4872901Y-9010500D01*
X7184752Y-12265630D02*
X7179849Y-12265750D01*
X7080831Y-12650992D02*
X7081669Y-12646160D01*
X19810506Y-8934874D02*
X19809198Y-8939599D01*
X20198742Y-9009419D02*
X20193910Y-9008580D01*
X22554005Y-12571590D02*
X22558580Y-12573354D01*
X7093963Y-12614291D02*
X7096586Y-12610148D01*
X22600590Y-5595640D02*
X22603414Y-5599648D01*
X7260090Y-12225360D02*
X7257074Y-12229226D01*
X22620250Y-12665651D02*
X22620250Y-15819773D01*
X12392169Y-12180508D02*
X12391330Y-12185339D01*
X12322349Y-12261448D02*
X12317624Y-12262756D01*
X19713599Y-8810500D02*
X19718502Y-8810620D01*
X7080231Y-12655858D02*
X7080831Y-12650992D01*
X19737874Y-8813494D02*
X19742599Y-8814802D01*
X15061670Y-9002896D02*
X15057187Y-9000909D01*
X22567442Y-12577546D02*
X22571709Y-12579963D01*
X12212909Y-5595640D02*
X12215926Y-5591774D01*
X12273660Y-12567669D02*
X12278492Y-12566831D01*
X24846589Y-9008580D02*
X24841758Y-9009419D01*
X7155376Y-5558244D02*
X7160160Y-5557170D01*
X4440189Y-8984621D02*
X4436476Y-8987824D01*
X9926890Y-8990840D02*
X9923024Y-8987824D01*
X12241791Y-12251537D02*
X12237648Y-12248914D01*
X17503756Y-12641376D02*
X17504830Y-12646160D01*
X22619769Y-5645358D02*
X22620130Y-5650248D01*
X7112561Y-5229371D02*
X7109010Y-5225990D01*
X17355291Y-5241037D02*
X17351149Y-5238414D01*
X17368420Y-12573354D02*
X17372995Y-12571590D01*
X20136176Y-8973976D02*
X20133160Y-8970110D01*
X4420193Y-8822296D02*
X4424459Y-8824713D01*
X12219129Y-12232939D02*
X12215926Y-12229226D01*
X17351149Y-12582586D02*
X17355291Y-12579963D01*
X7128291Y-5569463D02*
X7132557Y-5567046D01*
X22442926Y-12602274D02*
X22446129Y-12598561D01*
X9501258Y-8811581D02*
X9506090Y-8812420D01*
X19784240Y-8839760D02*
X19787621Y-8843311D01*
X7250490Y-5584510D02*
X7253871Y-5588061D01*
X14674121Y-8843311D02*
X14677324Y-8847024D01*
X4456164Y-8854899D02*
X4458787Y-8859041D01*
X25249676Y-8847024D02*
X25252879Y-8843311D01*
X7099409Y-5595640D02*
X7102426Y-5591774D01*
X9501258Y-9009419D02*
X9496392Y-9010019D01*
X14688204Y-8863307D02*
X14690408Y-8867687D01*
X12212909Y-12606140D02*
X12215926Y-12602274D01*
X9926890Y-8830160D02*
X9930899Y-8827336D01*
X14698080Y-8890910D02*
X14698919Y-8895742D01*
X22563063Y-12256158D02*
X22558580Y-12258145D01*
X22423244Y-5630876D02*
X22424552Y-5626150D01*
X4867998Y-9010380D02*
X4863108Y-9010019D01*
X17351149Y-12248914D02*
X17347140Y-12246090D01*
X9574704Y-8957693D02*
X9572287Y-8961959D01*
X12392769Y-5165142D02*
X12392169Y-5170008D01*
X15070900Y-8814802D02*
X15075626Y-8813494D01*
X4809524Y-8987824D02*
X4805811Y-8984621D01*
X12336063Y-12575341D02*
X12340442Y-12577546D01*
X22439909Y-12225360D02*
X22437086Y-12221351D01*
X15080410Y-8812420D02*
X15085242Y-8811581D01*
X9582198Y-8939599D02*
X9580660Y-8944255D01*
X17507975Y-2000000D02*
X17506875Y-2000027D01*
X15004302Y-8881401D02*
X15005840Y-8876745D01*
X20139379Y-8843311D02*
X20142760Y-8839760D01*
X12312839Y-5557170D02*
X12317624Y-5558244D01*
X12193125Y-9010527D02*
X12192025Y-9010500D01*
X7164992Y-12566831D02*
X7169858Y-12566231D01*
X19801704Y-8863307D02*
X19803909Y-8867687D01*
X17363937Y-12575341D02*
X17368420Y-12573354D01*
X7179651Y-12265750D02*
X7174748Y-12265630D01*
X22420370Y-5650248D02*
X22420731Y-5645358D01*
X22422169Y-12646160D02*
X22423244Y-12641376D01*
X12360439Y-12591629D02*
X12363990Y-12595010D01*
X15001919Y-8890910D02*
X15002994Y-8886126D01*
X12327005Y-12259910D02*
X12322349Y-12261448D01*
X24901121Y-8843311D02*
X24904324Y-8847024D01*
X22554005Y-5249410D02*
X22549349Y-5250948D01*
X7272145Y-5616920D02*
X7273910Y-5621495D01*
X22617256Y-5630876D02*
X22618330Y-5635660D01*
X12348851Y-5238414D02*
X12344709Y-5241037D01*
X12195169Y-5174840D02*
X12194331Y-5170008D01*
X19764959Y-8996287D02*
X19760693Y-8998704D01*
X7267954Y-12618557D02*
X7270158Y-12622937D01*
X7279874Y-15820973D02*
X7280975Y-15821000D01*
X7265537Y-5206709D02*
X7262914Y-5210851D01*
X12210086Y-5599648D02*
X12212909Y-5595640D01*
X24890476Y-8833176D02*
X24894189Y-8836379D01*
X17312590Y-5621495D02*
X17314354Y-5616920D01*
X9909176Y-8973976D02*
X9906160Y-8970110D01*
X15085242Y-8811581D02*
X15090108Y-8810981D01*
X12212909Y-12225360D02*
X12210086Y-12221351D01*
X17339561Y-12239871D02*
X17336010Y-12236490D01*
X12200854Y-12204080D02*
X12199090Y-12199505D01*
X19756313Y-9000909D02*
X19751830Y-9002896D01*
X12388948Y-5184349D02*
X12387410Y-5189005D01*
X9563824Y-8847024D02*
X9566840Y-8850890D01*
X17318546Y-5202443D02*
X17316341Y-5198063D01*
X17489914Y-12610148D02*
X17492537Y-12614291D01*
X12192023Y-2000000D02*
X7280977Y-2000000D01*
X7222563Y-5564841D02*
X7226942Y-5567046D01*
X19813500Y-8910599D02*
X19813380Y-8915502D01*
X17306870Y-12170752D02*
X17306750Y-12165849D01*
X7136937Y-5245659D02*
X7132557Y-5243454D01*
X9981498Y-8810620D02*
X9986401Y-8810500D01*
X7085590Y-12631995D02*
X7087354Y-12627420D01*
X17499146Y-5193580D02*
X17497159Y-5198063D01*
X25234604Y-8872170D02*
X25236591Y-8867687D01*
X17326410Y-12225360D02*
X17323586Y-12221351D01*
X17336010Y-5225990D02*
X17332629Y-5222439D01*
X17506750Y-5155349D02*
X17506630Y-5160252D01*
X9586019Y-8920392D02*
X9585419Y-8925258D01*
X4848626Y-8813494D02*
X4853410Y-8812420D01*
X4872901Y-8810500D02*
X7078523Y-8810500D01*
X17506875Y-15820973D02*
X17507975Y-15821000D01*
X17449563Y-12575341D02*
X17453943Y-12577546D01*
X4805811Y-8984621D02*
X4802260Y-8981240D01*
X7278669Y-12180508D02*
X7277830Y-12185339D01*
X20119340Y-8944255D02*
X20117802Y-8939599D01*
X4773000Y-8910599D02*
X4773000Y-8910401D01*
X17391992Y-12566831D02*
X17396858Y-12566231D01*
X17492537Y-5206709D02*
X17489914Y-5210851D01*
X12193125Y-2000027D02*
X12192025Y-2000000D01*
X20193910Y-9008580D02*
X20189126Y-9007506D01*
X12388948Y-12194849D02*
X12387410Y-12199505D01*
X15040390Y-8990840D02*
X15036524Y-8987824D01*
X4821541Y-8996287D02*
X4817399Y-8993664D01*
X12394477Y-15821000D02*
X17305523Y-15821000D01*
X12196244Y-5630876D02*
X12197552Y-5626150D01*
X7235351Y-12248914D02*
X7231209Y-12251537D01*
X24912787Y-8859041D02*
X24915204Y-8863307D01*
X4798879Y-8843311D02*
X4802260Y-8839760D01*
X22619769Y-12655858D02*
X22620130Y-12660748D01*
X22486495Y-12571590D02*
X22491150Y-12570052D01*
X9887581Y-8925258D02*
X9886981Y-8920392D01*
X22520349Y-12565750D02*
X22525252Y-12565870D01*
X20117802Y-8881401D02*
X20119340Y-8876745D01*
X4809524Y-8833176D02*
X4813390Y-8830160D01*
X7279750Y-8809275D02*
X7279777Y-8810375D01*
X7279269Y-12655858D02*
X7279630Y-12660748D01*
X9898296Y-8863307D02*
X9900713Y-8859041D01*
X7226942Y-5243454D02*
X7222563Y-5245659D01*
X12381454Y-12212942D02*
X12379037Y-12217209D01*
X25231302Y-8939599D02*
X25229994Y-8934874D01*
X14697006Y-8886126D02*
X14698080Y-8890910D01*
X22587439Y-12239871D02*
X22583726Y-12243074D01*
X7136937Y-5564841D02*
X7141420Y-5562854D01*
X19796664Y-8854899D02*
X19799287Y-8859041D01*
X12241791Y-12579963D02*
X12246057Y-12577546D01*
X14677324Y-8973976D02*
X14674121Y-8977689D01*
X7091546Y-12212942D02*
X7089341Y-12208563D01*
X2167475Y-9010500D02*
X2166375Y-9010527D01*
X17339561Y-5229371D02*
X17336010Y-5225990D01*
X15090108Y-9010019D02*
X15085242Y-9009419D01*
X9585419Y-8895742D02*
X9586019Y-8900608D01*
X17305525Y-15821000D02*
X17306625Y-15820973D01*
X19813019Y-8920392D02*
X19812419Y-8925258D01*
X22614410Y-5189005D02*
X22612645Y-5193580D01*
X12390256Y-12641376D02*
X12391330Y-12646160D01*
X17355291Y-5569463D02*
X17359557Y-5567046D01*
X12259495Y-12259910D02*
X12254920Y-12258145D01*
X7079750Y-5655151D02*
X7079870Y-5650248D01*
X12393130Y-12660748D02*
X12393250Y-12665651D01*
X22530142Y-5555731D02*
X22535008Y-5556331D01*
X22614410Y-12199505D02*
X22612645Y-12204080D01*
X25302626Y-8813494D02*
X25307410Y-8812420D01*
X22612645Y-5616920D02*
X22614410Y-5621495D01*
X25252879Y-8843311D02*
X25256260Y-8839760D01*
X12348851Y-12248914D02*
X12344709Y-12251537D01*
X9952745Y-8816340D02*
X9957401Y-8814802D01*
X22619769Y-5165142D02*
X22619169Y-5170008D01*
X7079625Y-9010527D02*
X7078525Y-9010500D01*
X17387160Y-12567669D02*
X17391992Y-12566831D01*
X20121104Y-8872170D02*
X20123091Y-8867687D01*
X17480871Y-5588061D02*
X17484074Y-5591774D01*
X4821541Y-8824713D02*
X4825807Y-8822296D01*
X17320963Y-5603791D02*
X17323586Y-5599648D01*
X14614758Y-9009419D02*
X14609892Y-9010019D01*
X7112561Y-12591629D02*
X7116274Y-12588426D01*
X15099901Y-8810500D02*
X17305523Y-8810500D01*
X12288248Y-12565870D02*
X12293151Y-12565750D01*
X4773000Y-8910401D02*
X4773120Y-8905498D01*
X17484074Y-5591774D02*
X17487090Y-5595640D01*
X22606037Y-12614291D02*
X22608454Y-12618557D01*
X4777302Y-8881401D02*
X4778840Y-8876745D01*
X25249676Y-8973976D02*
X25246659Y-8970110D01*
X17351149Y-5572086D02*
X17355291Y-5569463D01*
X17500910Y-5621495D02*
X17502448Y-5626150D01*
X20117802Y-8939599D02*
X20116494Y-8934874D01*
X17506777Y-2000124D02*
X17506750Y-2001225D01*
X7194508Y-12566831D02*
X7199339Y-12567669D01*
X12373590Y-5214860D02*
X12370574Y-5218726D01*
X22510358Y-12265269D02*
X22505492Y-12264669D01*
X7276756Y-12190124D02*
X7275448Y-12194849D01*
X22420250Y-5655151D02*
X22420370Y-5650248D01*
X17387160Y-5557170D02*
X17391992Y-5556331D01*
X22617256Y-5179624D02*
X22615948Y-5184349D01*
X25259811Y-8984621D02*
X25256260Y-8981240D01*
X22420250Y-5155349D02*
X22420250Y-2001227D01*
X7270158Y-5612437D02*
X7272145Y-5616920D01*
X17312590Y-12631995D02*
X17314354Y-12627420D01*
X14700000Y-8910401D02*
X14700000Y-8910599D01*
X17504830Y-5635660D02*
X17505669Y-5640492D01*
X22422169Y-12185339D02*
X22421331Y-12180508D01*
X4471080Y-8890910D02*
X4471919Y-8895742D01*
X15000120Y-8905498D02*
X15000481Y-8900608D01*
X20115420Y-8890910D02*
X20116494Y-8886126D01*
X22419025Y-8810500D02*
X22420125Y-8810473D01*
X4773481Y-8920392D02*
X4773120Y-8915502D01*
X22615948Y-5184349D02*
X22614410Y-5189005D01*
X25227481Y-8920392D02*
X25227120Y-8915502D01*
X7080831Y-5170008D02*
X7080231Y-5165142D01*
X2167475Y-2000000D02*
X2166375Y-2000027D01*
X7231209Y-12251537D02*
X7226942Y-12253954D01*
X22420250Y-12665651D02*
X22420370Y-12660748D01*
X22544624Y-5252256D02*
X22539839Y-5253330D01*
X4839245Y-8816340D02*
X4843901Y-8814802D01*
X4817399Y-8827336D02*
X4821541Y-8824713D01*
X4792660Y-8970110D02*
X4789836Y-8966101D01*
X12394477Y-8810500D02*
X14600099Y-8810500D01*
X12376414Y-5599648D02*
X12379037Y-5603791D01*
X12293151Y-12265750D02*
X12288248Y-12265630D01*
X22620277Y-9010625D02*
X22620250Y-9011725D01*
X17477490Y-5584510D02*
X17480871Y-5588061D01*
X12193223Y-8810375D02*
X12193250Y-8809275D01*
X7280977Y-15821000D02*
X12192023Y-15821000D01*
X12199090Y-12199505D02*
X12197552Y-12194849D01*
X17377651Y-12570052D02*
X17382376Y-12568744D01*
X22422169Y-5635660D02*
X22423244Y-5630876D01*
X12219129Y-12598561D02*
X12222510Y-12595010D01*
X27533723Y-8810375D02*
X27533750Y-8809275D01*
X22429841Y-12622937D02*
X22432046Y-12618557D01*
X22620130Y-12170752D02*
X22619769Y-12175642D01*
X4472880Y-8915502D02*
X4472519Y-8920392D01*
X12250437Y-12256158D02*
X12246057Y-12253954D01*
X14698919Y-8925258D02*
X14698080Y-8930090D01*
X7279269Y-5645358D02*
X7279630Y-5650248D01*
X12381454Y-5202443D02*
X12379037Y-5206709D01*
X7160160Y-5253330D02*
X7155376Y-5252256D01*
X22614410Y-5621495D02*
X22615948Y-5626150D01*
X12193250Y-15819773D02*
X12193250Y-12665651D01*
X4461204Y-8863307D02*
X4463409Y-8867687D01*
X12226061Y-12239871D02*
X12222510Y-12236490D01*
X17363937Y-5564841D02*
X17368420Y-5562854D01*
X22579860Y-12246090D02*
X22575851Y-12248914D01*
X12293349Y-12265750D02*
X12293151Y-12265750D01*
X12210086Y-12221351D02*
X12207463Y-12217209D01*
X7116274Y-5232574D02*
X7112561Y-5229371D01*
X7231209Y-5569463D02*
X7235351Y-5572086D01*
X12393250Y-15819775D02*
X12393277Y-15820875D01*
X24904324Y-8847024D02*
X24907340Y-8850890D01*
X17416642Y-12265269D02*
X17411752Y-12265630D01*
X7257074Y-5218726D02*
X7253871Y-5222439D01*
X22620130Y-12660748D02*
X22620250Y-12665651D01*
X22420250Y-15819773D02*
X22420250Y-12665651D01*
X25227000Y-8910401D02*
X25227120Y-8905498D01*
X12207463Y-12614291D02*
X12210086Y-12610148D01*
X7169858Y-12566231D02*
X7174748Y-12565870D01*
X12340442Y-5567046D02*
X12344709Y-5569463D01*
X22520151Y-12565750D02*
X22520349Y-12565750D01*
X22420223Y-15820875D02*
X22420250Y-15819775D01*
X17504830Y-12185339D02*
X17503756Y-12190124D01*
X14600099Y-8810500D02*
X14605002Y-8810620D01*
X7280975Y-2000000D02*
X7279874Y-2000027D01*
X17426340Y-5557170D02*
X17431124Y-5558244D01*
X4778840Y-8876745D02*
X4780604Y-8872170D01*
X22583726Y-5577926D02*
X22587439Y-5581129D01*
X7093963Y-12217209D02*
X7091546Y-12212942D01*
X22464648Y-5238414D02*
X22460640Y-5235590D01*
X17492537Y-5603791D02*
X17494954Y-5608057D01*
X25256260Y-8981240D02*
X25252879Y-8977689D01*
X7136937Y-12256158D02*
X7132557Y-12253954D01*
X12331580Y-5247646D02*
X12327005Y-5249410D01*
X12197552Y-12194849D02*
X12196244Y-12190124D01*
X25317108Y-8810981D02*
X25321998Y-8810620D01*
X22420370Y-12170752D02*
X22420250Y-12165849D01*
X22424552Y-12636650D02*
X22426090Y-12631995D01*
X9546110Y-8830160D02*
X9549976Y-8833176D01*
X4773481Y-8900608D02*
X4774081Y-8895742D01*
X12390256Y-5630876D02*
X12391330Y-5635660D01*
X7082744Y-12190124D02*
X7081669Y-12185339D01*
X12200854Y-5616920D02*
X12202841Y-5612437D01*
X17411752Y-5555370D02*
X17416642Y-5555731D01*
X12193250Y-2001225D02*
X12193223Y-2000124D01*
X15090108Y-8810981D02*
X15094998Y-8810620D01*
X17372995Y-5249410D02*
X17368420Y-5247646D01*
X12394475Y-9010500D02*
X12393374Y-9010527D01*
X22525252Y-12265630D02*
X22520349Y-12265750D01*
X17308670Y-12646160D02*
X17309744Y-12641376D01*
X25271398Y-8993664D02*
X25267390Y-8990840D01*
X4406755Y-9004660D02*
X4402099Y-9006198D01*
X9957401Y-9006198D02*
X9952745Y-9004660D01*
X22554005Y-5561090D02*
X22558580Y-5562854D01*
X17411752Y-5255130D02*
X17406849Y-5255250D01*
X14685787Y-8961959D02*
X14683164Y-8966101D01*
X14663476Y-8987824D02*
X14659610Y-8990840D01*
X7091546Y-5608057D02*
X7093963Y-5603791D01*
X12193250Y-12165849D02*
X12193250Y-9011727D01*
X22473057Y-5243454D02*
X22468791Y-5241037D01*
X4373099Y-8810500D02*
X4378002Y-8810620D01*
X20146311Y-8836379D02*
X20150024Y-8833176D01*
X7279750Y-15819775D02*
X7279777Y-15820875D01*
X22535008Y-12566831D02*
X22539839Y-12567669D01*
X7204124Y-12262756D02*
X7199339Y-12263830D01*
X17416642Y-5555731D02*
X17421508Y-5556331D01*
X27533750Y-8809273D02*
X27533750Y-2001227D01*
X22460640Y-5235590D02*
X22456774Y-5232574D01*
X9896091Y-8867687D02*
X9898296Y-8863307D01*
X20170687Y-8820091D02*
X20175170Y-8818104D01*
X25317108Y-9010019D02*
X25312242Y-9009419D01*
X7262914Y-12221351D02*
X7260090Y-12225360D01*
X9520255Y-9004660D02*
X9515599Y-9006198D01*
X7260090Y-5595640D02*
X7262914Y-5599648D01*
X7222563Y-5245659D02*
X7218080Y-5247646D01*
X22618330Y-12185339D02*
X22617256Y-12190124D01*
X7079750Y-5155349D02*
X7079750Y-2001227D01*
X15016836Y-8966101D02*
X15014213Y-8961959D01*
X12322349Y-5250948D02*
X12317624Y-5252256D01*
X12360439Y-12239871D02*
X12356726Y-12243074D01*
X17306750Y-2001225D02*
X17306723Y-2000124D01*
X7265537Y-12614291D02*
X7267954Y-12618557D01*
X19718502Y-9010380D02*
X19713599Y-9010500D01*
X14700000Y-8910599D02*
X14699880Y-8915502D01*
X9586380Y-8915502D02*
X9586019Y-8920392D01*
X4789836Y-8854899D02*
X4792660Y-8850890D01*
X15048541Y-8824713D02*
X15052807Y-8822296D01*
X15014213Y-8961959D02*
X15011796Y-8957693D01*
X22423244Y-12190124D02*
X22422169Y-12185339D01*
X12393250Y-5655151D02*
X12393250Y-8809273D01*
X22520151Y-5555250D02*
X22520349Y-5555250D01*
X22567442Y-12253954D02*
X22563063Y-12256158D01*
X17489914Y-5210851D02*
X17487090Y-5214860D01*
X15022676Y-8973976D02*
X15019659Y-8970110D01*
X15052807Y-8998704D02*
X15048541Y-8996287D01*
X22621475Y-2000000D02*
X22620374Y-2000027D01*
X4787213Y-8859041D02*
X4789836Y-8854899D01*
X15001081Y-8925258D02*
X15000481Y-8920392D01*
X17503756Y-5630876D02*
X17504830Y-5635660D01*
X22608454Y-12618557D02*
X22610658Y-12622937D01*
X7109010Y-12595010D02*
X7112561Y-12591629D01*
X17431124Y-5558244D02*
X17435849Y-5559552D01*
X4470006Y-8934874D02*
X4468698Y-8939599D01*
X12264150Y-12261448D02*
X12259495Y-12259910D01*
X4825807Y-8822296D02*
X4830187Y-8820091D01*
X7141420Y-12258145D02*
X7136937Y-12256158D01*
X22520349Y-12265750D02*
X22520151Y-12265750D01*
X22620130Y-5650248D02*
X22620250Y-5655151D01*
X4402099Y-9006198D02*
X4397374Y-9007506D01*
X17502448Y-5626150D02*
X17503756Y-5630876D01*
X4453340Y-8970110D02*
X4450324Y-8973976D01*
X14699519Y-8920392D02*
X14698919Y-8925258D01*
X22575851Y-5572086D02*
X22579860Y-5574910D01*
X12254920Y-12573354D02*
X12259495Y-12571590D01*
X12259495Y-5249410D02*
X12254920Y-5247646D01*
X17311052Y-5184349D02*
X17309744Y-5179624D01*
X19733090Y-8812420D02*
X19737874Y-8813494D01*
X12340442Y-12577546D02*
X12344709Y-12579963D01*
X9576909Y-8953313D02*
X9574704Y-8957693D01*
X17499146Y-12627420D02*
X17500910Y-12631995D01*
X9894104Y-8872170D02*
X9896091Y-8867687D01*
X4450324Y-8973976D02*
X4447121Y-8977689D01*
X22427854Y-5193580D02*
X22426090Y-5189005D01*
X9971742Y-9009419D02*
X9966910Y-9008580D01*
X15029260Y-8839760D02*
X15032811Y-8836379D01*
X7164992Y-5556331D02*
X7169858Y-5555731D01*
X14609892Y-9010019D02*
X14605002Y-9010380D01*
X14647192Y-8998704D02*
X14642813Y-9000909D01*
X9939307Y-8998704D02*
X9935041Y-8996287D01*
X12222510Y-5584510D02*
X12226061Y-5581129D01*
X12194331Y-5170008D02*
X12193731Y-5165142D01*
X22495876Y-5558244D02*
X22500660Y-5557170D01*
X17316341Y-5198063D02*
X17314354Y-5193580D01*
X14683164Y-8854899D02*
X14685787Y-8859041D01*
X12193250Y-9011725D02*
X12193223Y-9010625D01*
X2166277Y-9010625D02*
X2166250Y-9011725D01*
X12207463Y-5206709D02*
X12205046Y-5202443D01*
X17505669Y-12180508D02*
X17504830Y-12185339D01*
X7279630Y-5160252D02*
X7279269Y-5165142D01*
X12229774Y-5577926D02*
X12233640Y-5574910D01*
X12385645Y-5193580D02*
X12383658Y-5198063D01*
X12308008Y-5254169D02*
X12303142Y-5254769D01*
X17343274Y-5232574D02*
X17339561Y-5229371D01*
X7079750Y-15819773D02*
X7079750Y-12665651D01*
X4830187Y-8820091D02*
X4834670Y-8818104D01*
X22620250Y-8809275D02*
X22620277Y-8810375D01*
X20133160Y-8850890D02*
X20136176Y-8847024D01*
X22420250Y-2001225D02*
X22420223Y-2000124D01*
X22473057Y-5567046D02*
X22477437Y-5564841D01*
X12331580Y-12573354D02*
X12336063Y-12575341D01*
X7164992Y-5254169D02*
X7160160Y-5253330D01*
X12250437Y-5564841D02*
X12254920Y-5562854D01*
X12376414Y-5210851D02*
X12373590Y-5214860D01*
X19803909Y-8953313D02*
X19801704Y-8957693D01*
X9586500Y-8910401D02*
X9586500Y-8910599D01*
X17506269Y-12175642D02*
X17505669Y-12180508D01*
X17332629Y-5588061D02*
X17336010Y-5584510D01*
X4415813Y-9000909D02*
X4411330Y-9002896D01*
X22424552Y-5184349D02*
X22423244Y-5179624D01*
X12367371Y-5588061D02*
X12370574Y-5591774D01*
X12391330Y-5635660D02*
X12392169Y-5640492D01*
X7080831Y-5640492D02*
X7081669Y-5635660D01*
X17506630Y-12170752D02*
X17506269Y-12175642D01*
X7265537Y-5603791D02*
X7267954Y-5608057D01*
X7208849Y-5250948D02*
X7204124Y-5252256D01*
X22606037Y-12217209D02*
X22603414Y-12221351D01*
X12393374Y-8810473D02*
X12394475Y-8810500D01*
X15052807Y-8822296D02*
X15057187Y-8820091D01*
X12373590Y-5595640D02*
X12376414Y-5599648D01*
X12241791Y-5569463D02*
X12246057Y-5567046D01*
X9533693Y-8998704D02*
X9529313Y-9000909D01*
X19780689Y-8984621D02*
X19776976Y-8987824D01*
X9496392Y-8810981D02*
X9501258Y-8811581D01*
X17309744Y-12641376D02*
X17311052Y-12636650D01*
X15009591Y-8867687D02*
X15011796Y-8863307D01*
X15000000Y-8910599D02*
X15000000Y-8910401D01*
X17307231Y-12655858D02*
X17307831Y-12650992D01*
X17426340Y-12263830D02*
X17421508Y-12264669D01*
X7082744Y-12641376D02*
X7084052Y-12636650D01*
X9935041Y-8996287D02*
X9930899Y-8993664D01*
X2166277Y-2000124D02*
X2166250Y-2001225D01*
X17323586Y-5210851D02*
X17320963Y-5206709D01*
X22606037Y-5603791D02*
X22608454Y-5608057D01*
X12327005Y-5561090D02*
X12331580Y-5562854D01*
X20157899Y-8827336D02*
X20162041Y-8824713D01*
X12195169Y-12646160D02*
X12196244Y-12641376D01*
X22619169Y-12650992D02*
X22619769Y-12655858D01*
X17506630Y-5160252D02*
X17506269Y-5165142D01*
X17329426Y-5218726D02*
X17326410Y-5214860D01*
X24912787Y-8961959D02*
X24910164Y-8966101D01*
X20123091Y-8867687D02*
X20125296Y-8863307D01*
X17326410Y-5214860D02*
X17323586Y-5210851D01*
X24827099Y-8810500D02*
X24832002Y-8810620D01*
X7093963Y-5603791D02*
X7096586Y-5599648D01*
X24856099Y-9006198D02*
X24851374Y-9007506D01*
X22510358Y-5555731D02*
X22515248Y-5555370D01*
X20127713Y-8961959D02*
X20125296Y-8957693D01*
X9886620Y-8915502D02*
X9886500Y-8910599D01*
X7246939Y-12591629D02*
X7250490Y-12595010D01*
X9529313Y-9000909D02*
X9524830Y-9002896D01*
X20130336Y-8854899D02*
X20133160Y-8850890D01*
X22426090Y-5189005D02*
X22424552Y-5184349D01*
X17506750Y-8809275D02*
X17506777Y-8810375D01*
X17470226Y-5232574D02*
X17466360Y-5235590D01*
X17359557Y-5243454D02*
X17355291Y-5241037D01*
X17318546Y-5608057D02*
X17320963Y-5603791D01*
X25232840Y-8876745D02*
X25234604Y-8872170D01*
X15011796Y-8957693D02*
X15009591Y-8953313D01*
X22500660Y-12263830D02*
X22495876Y-12262756D01*
X24917408Y-8867687D02*
X24919395Y-8872170D01*
X22419023Y-2000000D02*
X17507977Y-2000000D01*
X7080231Y-5165142D02*
X7079870Y-5160252D01*
X17306723Y-15820875D02*
X17306750Y-15819775D01*
X19803909Y-8867687D02*
X19805896Y-8872170D01*
X14680340Y-8970110D02*
X14677324Y-8973976D01*
X17306750Y-12165849D02*
X17306750Y-9011727D01*
X12392169Y-12650992D02*
X12392769Y-12655858D01*
X17377651Y-5559552D02*
X17382376Y-5558244D01*
X12207463Y-12217209D02*
X12205046Y-12212942D01*
X27533750Y-9011725D02*
X27533723Y-9010625D01*
X17470226Y-12588426D02*
X17473939Y-12591629D01*
X7194508Y-12264669D02*
X7189642Y-12265269D01*
X24890476Y-8987824D02*
X24886610Y-8990840D01*
X22606037Y-5206709D02*
X22603414Y-5210851D01*
X22432046Y-12618557D02*
X22434463Y-12614291D01*
X7179651Y-5255250D02*
X7174748Y-5255130D01*
D11*
D10*
X4448000Y-8785500D02*
X4498000Y-8835500D01*
X4498000Y-8785500D02*
X4448000Y-8835500D01*
X4448000Y-8985500D02*
X4498000Y-9035500D01*
X4498000Y-8985500D02*
X4448000Y-9035500D01*
X4548000Y-8785500D02*
X4598000Y-8835500D01*
X4598000Y-8785500D02*
X4548000Y-8835500D01*
X4548000Y-8985500D02*
X4598000Y-9035500D01*
X4598000Y-8985500D02*
X4548000Y-9035500D01*
X4648000Y-8785500D02*
X4698000Y-8835500D01*
X4698000Y-8785500D02*
X4648000Y-8835500D01*
X4648000Y-8985500D02*
X4698000Y-9035500D01*
X4698000Y-8985500D02*
X4648000Y-9035500D01*
X4748000Y-8785500D02*
X4798000Y-8835500D01*
X4798000Y-8785500D02*
X4748000Y-8835500D01*
X4748000Y-8985500D02*
X4798000Y-9035500D01*
X4798000Y-8985500D02*
X4748000Y-9035500D01*
X7054750Y-5230250D02*
X7104750Y-5280250D01*
X7104750Y-5230250D02*
X7054750Y-5280250D01*
X7054750Y-5330250D02*
X7104750Y-5380250D01*
X7104750Y-5330250D02*
X7054750Y-5380250D01*
X7054750Y-5430250D02*
X7104750Y-5480250D01*
X7104750Y-5430250D02*
X7054750Y-5480250D01*
X7054750Y-5530250D02*
X7104750Y-5580250D01*
X7104750Y-5530250D02*
X7054750Y-5580250D01*
X7054750Y-12240750D02*
X7104750Y-12290750D01*
X7104750Y-12240750D02*
X7054750Y-12290750D01*
X7054750Y-12340750D02*
X7104750Y-12390750D01*
X7104750Y-12340750D02*
X7054750Y-12390750D01*
X7054750Y-12440750D02*
X7104750Y-12490750D01*
X7104750Y-12440750D02*
X7054750Y-12490750D01*
X7054750Y-12540750D02*
X7104750Y-12590750D01*
X7104750Y-12540750D02*
X7054750Y-12590750D01*
X7254750Y-5230250D02*
X7304750Y-5280250D01*
X7304750Y-5230250D02*
X7254750Y-5280250D01*
X7254750Y-5330250D02*
X7304750Y-5380250D01*
X7304750Y-5330250D02*
X7254750Y-5380250D01*
X7254750Y-5430250D02*
X7304750Y-5480250D01*
X7304750Y-5430250D02*
X7254750Y-5480250D01*
X7254750Y-5530250D02*
X7304750Y-5580250D01*
X7304750Y-5530250D02*
X7254750Y-5580250D01*
X7254750Y-12240750D02*
X7304750Y-12290750D01*
X7304750Y-12240750D02*
X7254750Y-12290750D01*
X7254750Y-12340750D02*
X7304750Y-12390750D01*
X7304750Y-12340750D02*
X7254750Y-12390750D01*
X7254750Y-12440750D02*
X7304750Y-12490750D01*
X7304750Y-12440750D02*
X7254750Y-12490750D01*
X7254750Y-12540750D02*
X7304750Y-12590750D01*
X7304750Y-12540750D02*
X7254750Y-12590750D01*
X9561500Y-8785500D02*
X9611500Y-8835500D01*
X9611500Y-8785500D02*
X9561500Y-8835500D01*
X9561500Y-8985500D02*
X9611500Y-9035500D01*
X9611500Y-8985500D02*
X9561500Y-9035500D01*
X9661500Y-8785500D02*
X9711500Y-8835500D01*
X9711500Y-8785500D02*
X9661500Y-8835500D01*
X9661500Y-8985500D02*
X9711500Y-9035500D01*
X9711500Y-8985500D02*
X9661500Y-9035500D01*
X9761500Y-8785500D02*
X9811500Y-8835500D01*
X9811500Y-8785500D02*
X9761500Y-8835500D01*
X9761500Y-8985500D02*
X9811500Y-9035500D01*
X9811500Y-8985500D02*
X9761500Y-9035500D01*
X9861500Y-8785500D02*
X9911500Y-8835500D01*
X9911500Y-8785500D02*
X9861500Y-8835500D01*
X9861500Y-8985500D02*
X9911500Y-9035500D01*
X9911500Y-8985500D02*
X9861500Y-9035500D01*
X12168250Y-5230250D02*
X12218250Y-5280250D01*
X12218250Y-5230250D02*
X12168250Y-5280250D01*
X12168250Y-5330250D02*
X12218250Y-5380250D01*
X12218250Y-5330250D02*
X12168250Y-5380250D01*
X12168250Y-5430250D02*
X12218250Y-5480250D01*
X12218250Y-5430250D02*
X12168250Y-5480250D01*
X12168250Y-5530250D02*
X12218250Y-5580250D01*
X12218250Y-5530250D02*
X12168250Y-5580250D01*
X12168250Y-12240750D02*
X12218250Y-12290750D01*
X12218250Y-12240750D02*
X12168250Y-12290750D01*
X12168250Y-12340750D02*
X12218250Y-12390750D01*
X12218250Y-12340750D02*
X12168250Y-12390750D01*
X12168250Y-12440750D02*
X12218250Y-12490750D01*
X12218250Y-12440750D02*
X12168250Y-12490750D01*
X12168250Y-12540750D02*
X12218250Y-12590750D01*
X12218250Y-12540750D02*
X12168250Y-12590750D01*
X12368250Y-5230250D02*
X12418250Y-5280250D01*
X12418250Y-5230250D02*
X12368250Y-5280250D01*
X12368250Y-5330250D02*
X12418250Y-5380250D01*
X12418250Y-5330250D02*
X12368250Y-5380250D01*
X12368250Y-5430250D02*
X12418250Y-5480250D01*
X12418250Y-5430250D02*
X12368250Y-5480250D01*
X12368250Y-5530250D02*
X12418250Y-5580250D01*
X12418250Y-5530250D02*
X12368250Y-5580250D01*
X12368250Y-12240750D02*
X12418250Y-12290750D01*
X12418250Y-12240750D02*
X12368250Y-12290750D01*
X12368250Y-12340750D02*
X12418250Y-12390750D01*
X12418250Y-12340750D02*
X12368250Y-12390750D01*
X12368250Y-12440750D02*
X12418250Y-12490750D01*
X12418250Y-12440750D02*
X12368250Y-12490750D01*
X12368250Y-12540750D02*
X12418250Y-12590750D01*
X12418250Y-12540750D02*
X12368250Y-12590750D01*
X14675000Y-8785500D02*
X14725000Y-8835500D01*
X14725000Y-8785500D02*
X14675000Y-8835500D01*
X14675000Y-8985500D02*
X14725000Y-9035500D01*
X14725000Y-8985500D02*
X14675000Y-9035500D01*
X14775000Y-8785500D02*
X14825000Y-8835500D01*
X14825000Y-8785500D02*
X14775000Y-8835500D01*
X14775000Y-8985500D02*
X14825000Y-9035500D01*
X14825000Y-8985500D02*
X14775000Y-9035500D01*
X14875000Y-8785500D02*
X14925000Y-8835500D01*
X14925000Y-8785500D02*
X14875000Y-8835500D01*
X14875000Y-8985500D02*
X14925000Y-9035500D01*
X14925000Y-8985500D02*
X14875000Y-9035500D01*
X14975000Y-8785500D02*
X15025000Y-8835500D01*
X15025000Y-8785500D02*
X14975000Y-8835500D01*
X14975000Y-8985500D02*
X15025000Y-9035500D01*
X15025000Y-8985500D02*
X14975000Y-9035500D01*
X17281750Y-5230250D02*
X17331750Y-5280250D01*
X17331750Y-5230250D02*
X17281750Y-5280250D01*
X17281750Y-5330250D02*
X17331750Y-5380250D01*
X17331750Y-5330250D02*
X17281750Y-5380250D01*
X17281750Y-5430250D02*
X17331750Y-5480250D01*
X17331750Y-5430250D02*
X17281750Y-5480250D01*
X17281750Y-5530250D02*
X17331750Y-5580250D01*
X17331750Y-5530250D02*
X17281750Y-5580250D01*
X17281750Y-12240750D02*
X17331750Y-12290750D01*
X17331750Y-12240750D02*
X17281750Y-12290750D01*
X17281750Y-12340750D02*
X17331750Y-12390750D01*
X17331750Y-12340750D02*
X17281750Y-12390750D01*
X17281750Y-12440750D02*
X17331750Y-12490750D01*
X17331750Y-12440750D02*
X17281750Y-12490750D01*
X17281750Y-12540750D02*
X17331750Y-12590750D01*
X17331750Y-12540750D02*
X17281750Y-12590750D01*
X17481750Y-5230250D02*
X17531750Y-5280250D01*
X17531750Y-5230250D02*
X17481750Y-5280250D01*
X17481750Y-5330250D02*
X17531750Y-5380250D01*
X17531750Y-5330250D02*
X17481750Y-5380250D01*
X17481750Y-5430250D02*
X17531750Y-5480250D01*
X17531750Y-5430250D02*
X17481750Y-5480250D01*
X17481750Y-5530250D02*
X17531750Y-5580250D01*
X17531750Y-5530250D02*
X17481750Y-5580250D01*
X17481750Y-12240750D02*
X17531750Y-12290750D01*
X17531750Y-12240750D02*
X17481750Y-12290750D01*
X17481750Y-12340750D02*
X17531750Y-12390750D01*
X17531750Y-12340750D02*
X17481750Y-12390750D01*
X17481750Y-12440750D02*
X17531750Y-12490750D01*
X17531750Y-12440750D02*
X17481750Y-12490750D01*
X17481750Y-12540750D02*
X17531750Y-12590750D01*
X17531750Y-12540750D02*
X17481750Y-12590750D01*
X19788500Y-8785500D02*
X19838500Y-8835500D01*
X19838500Y-8785500D02*
X19788500Y-8835500D01*
X19788500Y-8985500D02*
X19838500Y-9035500D01*
X19838500Y-8985500D02*
X19788500Y-9035500D01*
X19888500Y-8785500D02*
X19938500Y-8835500D01*
X19938500Y-8785500D02*
X19888500Y-8835500D01*
X19888500Y-8985500D02*
X19938500Y-9035500D01*
X19938500Y-8985500D02*
X19888500Y-9035500D01*
X19988500Y-8785500D02*
X20038500Y-8835500D01*
X20038500Y-8785500D02*
X19988500Y-8835500D01*
X19988500Y-8985500D02*
X20038500Y-9035500D01*
X20038500Y-8985500D02*
X19988500Y-9035500D01*
X20088500Y-8785500D02*
X20138500Y-8835500D01*
X20138500Y-8785500D02*
X20088500Y-8835500D01*
X20088500Y-8985500D02*
X20138500Y-9035500D01*
X20138500Y-8985500D02*
X20088500Y-9035500D01*
X22395250Y-5230250D02*
X22445250Y-5280250D01*
X22445250Y-5230250D02*
X22395250Y-5280250D01*
X22395250Y-5330250D02*
X22445250Y-5380250D01*
X22445250Y-5330250D02*
X22395250Y-5380250D01*
X22395250Y-5430250D02*
X22445250Y-5480250D01*
X22445250Y-5430250D02*
X22395250Y-5480250D01*
X22395250Y-5530250D02*
X22445250Y-5580250D01*
X22445250Y-5530250D02*
X22395250Y-5580250D01*
X22395250Y-12240750D02*
X22445250Y-12290750D01*
X22445250Y-12240750D02*
X22395250Y-12290750D01*
X22395250Y-12340750D02*
X22445250Y-12390750D01*
X22445250Y-12340750D02*
X22395250Y-12390750D01*
X22395250Y-12440750D02*
X22445250Y-12490750D01*
X22445250Y-12440750D02*
X22395250Y-12490750D01*
X22395250Y-12540750D02*
X22445250Y-12590750D01*
X22445250Y-12540750D02*
X22395250Y-12590750D01*
X22595250Y-5230250D02*
X22645250Y-5280250D01*
X22645250Y-5230250D02*
X22595250Y-5280250D01*
X22595250Y-5330250D02*
X22645250Y-5380250D01*
X22645250Y-5330250D02*
X22595250Y-5380250D01*
X22595250Y-5430250D02*
X22645250Y-5480250D01*
X22645250Y-5430250D02*
X22595250Y-5480250D01*
X22595250Y-5530250D02*
X22645250Y-5580250D01*
X22645250Y-5530250D02*
X22595250Y-5580250D01*
X22595250Y-12240750D02*
X22645250Y-12290750D01*
X22645250Y-12240750D02*
X22595250Y-12290750D01*
X22595250Y-12340750D02*
X22645250Y-12390750D01*
X22645250Y-12340750D02*
X22595250Y-12390750D01*
X22595250Y-12440750D02*
X22645250Y-12490750D01*
X22645250Y-12440750D02*
X22595250Y-12490750D01*
X22595250Y-12540750D02*
X22645250Y-12590750D01*
X22645250Y-12540750D02*
X22595250Y-12590750D01*
X24902000Y-8785500D02*
X24952000Y-8835500D01*
X24952000Y-8785500D02*
X24902000Y-8835500D01*
X24902000Y-8985500D02*
X24952000Y-9035500D01*
X24952000Y-8985500D02*
X24902000Y-9035500D01*
X25002000Y-8785500D02*
X25052000Y-8835500D01*
X25052000Y-8785500D02*
X25002000Y-8835500D01*
X25002000Y-8985500D02*
X25052000Y-9035500D01*
X25052000Y-8985500D02*
X25002000Y-9035500D01*
X25102000Y-8785500D02*
X25152000Y-8835500D01*
X25152000Y-8785500D02*
X25102000Y-8835500D01*
X25102000Y-8985500D02*
X25152000Y-9035500D01*
X25152000Y-8985500D02*
X25102000Y-9035500D01*
X25202000Y-8785500D02*
X25252000Y-8835500D01*
X25252000Y-8785500D02*
X25202000Y-8835500D01*
X25202000Y-8985500D02*
X25252000Y-9035500D01*
X25252000Y-8985500D02*
X25202000Y-9035500D01*
D11*
X2422027Y-16137484D02*
X2422027Y-15937484D01*
X2422027Y-15937484D02*
X2469646Y-15937484D01*
X2469646Y-15937484D02*
X2498217Y-15947008D01*
X2498217Y-15947008D02*
X2517265Y-15966055D01*
X2517265Y-15966055D02*
X2526789Y-15985103D01*
X2526789Y-15985103D02*
X2536313Y-16023198D01*
X2536313Y-16023198D02*
X2536313Y-16051769D01*
X2536313Y-16051769D02*
X2526789Y-16089865D01*
X2526789Y-16089865D02*
X2517265Y-16108912D01*
X2517265Y-16108912D02*
X2498217Y-16127960D01*
X2498217Y-16127960D02*
X2469646Y-16137484D01*
X2469646Y-16137484D02*
X2422027Y-16137484D01*
X2622027Y-16137484D02*
X2622027Y-16004150D01*
X2622027Y-16042246D02*
X2631551Y-16023198D01*
X2631551Y-16023198D02*
X2641074Y-16013674D01*
X2641074Y-16013674D02*
X2660122Y-16004150D01*
X2660122Y-16004150D02*
X2679170Y-16004150D01*
X2745836Y-16137484D02*
X2745836Y-16004150D01*
X2745836Y-15937484D02*
X2736313Y-15947008D01*
X2736313Y-15947008D02*
X2745836Y-15956531D01*
X2745836Y-15956531D02*
X2755360Y-15947008D01*
X2755360Y-15947008D02*
X2745836Y-15937484D01*
X2745836Y-15937484D02*
X2745836Y-15956531D01*
X2869646Y-16137484D02*
X2850598Y-16127960D01*
X2850598Y-16127960D02*
X2841074Y-16108912D01*
X2841074Y-16108912D02*
X2841074Y-15937484D01*
X2974408Y-16137484D02*
X2955360Y-16127960D01*
X2955360Y-16127960D02*
X2945836Y-16108912D01*
X2945836Y-16108912D02*
X2945836Y-15937484D01*
X3202979Y-16137484D02*
X3202979Y-15937484D01*
X3202979Y-15937484D02*
X3269646Y-16080341D01*
X3269646Y-16080341D02*
X3336312Y-15937484D01*
X3336312Y-15937484D02*
X3336312Y-16137484D01*
X3517265Y-16137484D02*
X3517265Y-16032722D01*
X3517265Y-16032722D02*
X3507741Y-16013674D01*
X3507741Y-16013674D02*
X3488693Y-16004150D01*
X3488693Y-16004150D02*
X3450598Y-16004150D01*
X3450598Y-16004150D02*
X3431551Y-16013674D01*
X3517265Y-16127960D02*
X3498217Y-16137484D01*
X3498217Y-16137484D02*
X3450598Y-16137484D01*
X3450598Y-16137484D02*
X3431551Y-16127960D01*
X3431551Y-16127960D02*
X3422027Y-16108912D01*
X3422027Y-16108912D02*
X3422027Y-16089865D01*
X3422027Y-16089865D02*
X3431551Y-16070817D01*
X3431551Y-16070817D02*
X3450598Y-16061293D01*
X3450598Y-16061293D02*
X3498217Y-16061293D01*
X3498217Y-16061293D02*
X3517265Y-16051769D01*
X3612503Y-16004150D02*
X3612503Y-16204150D01*
X3612503Y-16013674D02*
X3631551Y-16004150D01*
X3631551Y-16004150D02*
X3669646Y-16004150D01*
X3669646Y-16004150D02*
X3688693Y-16013674D01*
X3688693Y-16013674D02*
X3698217Y-16023198D01*
X3698217Y-16023198D02*
X3707741Y-16042246D01*
X3707741Y-16042246D02*
X3707741Y-16099388D01*
X3707741Y-16099388D02*
X3698217Y-16118436D01*
X3698217Y-16118436D02*
X3688693Y-16127960D01*
X3688693Y-16127960D02*
X3669646Y-16137484D01*
X3669646Y-16137484D02*
X3631551Y-16137484D01*
X3631551Y-16137484D02*
X3612503Y-16127960D01*
X3793455Y-16118436D02*
X3802979Y-16127960D01*
X3802979Y-16127960D02*
X3793455Y-16137484D01*
X3793455Y-16137484D02*
X3783932Y-16127960D01*
X3783932Y-16127960D02*
X3793455Y-16118436D01*
X3793455Y-16118436D02*
X3793455Y-16137484D01*
X3793455Y-16013674D02*
X3802979Y-16023198D01*
X3802979Y-16023198D02*
X3793455Y-16032722D01*
X3793455Y-16032722D02*
X3783932Y-16023198D01*
X3783932Y-16023198D02*
X3793455Y-16013674D01*
X3793455Y-16013674D02*
X3793455Y-16032722D01*
D10*
X2111250Y-16441000D02*
X2161250Y-16491000D01*
X2161250Y-16441000D02*
X2111250Y-16491000D01*
D11*
X2460122Y-16357484D02*
X2479170Y-16357484D01*
X2479170Y-16357484D02*
X2498217Y-16367008D01*
X2498217Y-16367008D02*
X2507741Y-16376531D01*
X2507741Y-16376531D02*
X2517265Y-16395579D01*
X2517265Y-16395579D02*
X2526789Y-16433674D01*
X2526789Y-16433674D02*
X2526789Y-16481293D01*
X2526789Y-16481293D02*
X2517265Y-16519388D01*
X2517265Y-16519388D02*
X2507741Y-16538436D01*
X2507741Y-16538436D02*
X2498217Y-16547960D01*
X2498217Y-16547960D02*
X2479170Y-16557484D01*
X2479170Y-16557484D02*
X2460122Y-16557484D01*
X2460122Y-16557484D02*
X2441074Y-16547960D01*
X2441074Y-16547960D02*
X2431551Y-16538436D01*
X2431551Y-16538436D02*
X2422027Y-16519388D01*
X2422027Y-16519388D02*
X2412503Y-16481293D01*
X2412503Y-16481293D02*
X2412503Y-16433674D01*
X2412503Y-16433674D02*
X2422027Y-16395579D01*
X2422027Y-16395579D02*
X2431551Y-16376531D01*
X2431551Y-16376531D02*
X2441074Y-16367008D01*
X2441074Y-16367008D02*
X2460122Y-16357484D01*
X2612503Y-16538436D02*
X2622027Y-16547960D01*
X2622027Y-16547960D02*
X2612503Y-16557484D01*
X2612503Y-16557484D02*
X2602979Y-16547960D01*
X2602979Y-16547960D02*
X2612503Y-16538436D01*
X2612503Y-16538436D02*
X2612503Y-16557484D01*
X2802979Y-16357484D02*
X2707741Y-16357484D01*
X2707741Y-16357484D02*
X2698217Y-16452722D01*
X2698217Y-16452722D02*
X2707741Y-16443198D01*
X2707741Y-16443198D02*
X2726789Y-16433674D01*
X2726789Y-16433674D02*
X2774408Y-16433674D01*
X2774408Y-16433674D02*
X2793455Y-16443198D01*
X2793455Y-16443198D02*
X2802979Y-16452722D01*
X2802979Y-16452722D02*
X2812503Y-16471769D01*
X2812503Y-16471769D02*
X2812503Y-16519388D01*
X2812503Y-16519388D02*
X2802979Y-16538436D01*
X2802979Y-16538436D02*
X2793455Y-16547960D01*
X2793455Y-16547960D02*
X2774408Y-16557484D01*
X2774408Y-16557484D02*
X2726789Y-16557484D01*
X2726789Y-16557484D02*
X2707741Y-16547960D01*
X2707741Y-16547960D02*
X2698217Y-16538436D01*
X2936312Y-16357484D02*
X2955360Y-16357484D01*
X2955360Y-16357484D02*
X2974408Y-16367008D01*
X2974408Y-16367008D02*
X2983932Y-16376531D01*
X2983932Y-16376531D02*
X2993455Y-16395579D01*
X2993455Y-16395579D02*
X3002979Y-16433674D01*
X3002979Y-16433674D02*
X3002979Y-16481293D01*
X3002979Y-16481293D02*
X2993455Y-16519388D01*
X2993455Y-16519388D02*
X2983932Y-16538436D01*
X2983932Y-16538436D02*
X2974408Y-16547960D01*
X2974408Y-16547960D02*
X2955360Y-16557484D01*
X2955360Y-16557484D02*
X2936312Y-16557484D01*
X2936312Y-16557484D02*
X2917265Y-16547960D01*
X2917265Y-16547960D02*
X2907741Y-16538436D01*
X2907741Y-16538436D02*
X2898217Y-16519388D01*
X2898217Y-16519388D02*
X2888693Y-16481293D01*
X2888693Y-16481293D02*
X2888693Y-16433674D01*
X2888693Y-16433674D02*
X2898217Y-16395579D01*
X2898217Y-16395579D02*
X2907741Y-16376531D01*
X2907741Y-16376531D02*
X2917265Y-16367008D01*
X2917265Y-16367008D02*
X2936312Y-16357484D01*
X3126789Y-16357484D02*
X3145836Y-16357484D01*
X3145836Y-16357484D02*
X3164884Y-16367008D01*
X3164884Y-16367008D02*
X3174408Y-16376531D01*
X3174408Y-16376531D02*
X3183932Y-16395579D01*
X3183932Y-16395579D02*
X3193455Y-16433674D01*
X3193455Y-16433674D02*
X3193455Y-16481293D01*
X3193455Y-16481293D02*
X3183932Y-16519388D01*
X3183932Y-16519388D02*
X3174408Y-16538436D01*
X3174408Y-16538436D02*
X3164884Y-16547960D01*
X3164884Y-16547960D02*
X3145836Y-16557484D01*
X3145836Y-16557484D02*
X3126789Y-16557484D01*
X3126789Y-16557484D02*
X3107741Y-16547960D01*
X3107741Y-16547960D02*
X3098217Y-16538436D01*
X3098217Y-16538436D02*
X3088693Y-16519388D01*
X3088693Y-16519388D02*
X3079170Y-16481293D01*
X3079170Y-16481293D02*
X3079170Y-16433674D01*
X3079170Y-16433674D02*
X3088693Y-16395579D01*
X3088693Y-16395579D02*
X3098217Y-16376531D01*
X3098217Y-16376531D02*
X3107741Y-16367008D01*
X3107741Y-16367008D02*
X3126789Y-16357484D01*
X3279170Y-16557484D02*
X3279170Y-16424150D01*
X3279170Y-16443198D02*
X3288693Y-16433674D01*
X3288693Y-16433674D02*
X3307741Y-16424150D01*
X3307741Y-16424150D02*
X3336313Y-16424150D01*
X3336313Y-16424150D02*
X3355360Y-16433674D01*
X3355360Y-16433674D02*
X3364884Y-16452722D01*
X3364884Y-16452722D02*
X3364884Y-16557484D01*
X3364884Y-16452722D02*
X3374408Y-16433674D01*
X3374408Y-16433674D02*
X3393455Y-16424150D01*
X3393455Y-16424150D02*
X3422027Y-16424150D01*
X3422027Y-16424150D02*
X3441074Y-16433674D01*
X3441074Y-16433674D02*
X3450598Y-16452722D01*
X3450598Y-16452722D02*
X3450598Y-16557484D01*
X3545836Y-16557484D02*
X3545836Y-16424150D01*
X3545836Y-16443198D02*
X3555360Y-16433674D01*
X3555360Y-16433674D02*
X3574408Y-16424150D01*
X3574408Y-16424150D02*
X3602979Y-16424150D01*
X3602979Y-16424150D02*
X3622027Y-16433674D01*
X3622027Y-16433674D02*
X3631551Y-16452722D01*
X3631551Y-16452722D02*
X3631551Y-16557484D01*
X3631551Y-16452722D02*
X3641074Y-16433674D01*
X3641074Y-16433674D02*
X3660122Y-16424150D01*
X3660122Y-16424150D02*
X3688693Y-16424150D01*
X3688693Y-16424150D02*
X3707741Y-16433674D01*
X3707741Y-16433674D02*
X3717265Y-16452722D01*
X3717265Y-16452722D02*
X3717265Y-16557484D01*
X4107741Y-16347960D02*
X3936313Y-16605103D01*
X4364884Y-16357484D02*
X4383932Y-16357484D01*
X4383932Y-16357484D02*
X4402979Y-16367008D01*
X4402979Y-16367008D02*
X4412503Y-16376531D01*
X4412503Y-16376531D02*
X4422027Y-16395579D01*
X4422027Y-16395579D02*
X4431551Y-16433674D01*
X4431551Y-16433674D02*
X4431551Y-16481293D01*
X4431551Y-16481293D02*
X4422027Y-16519388D01*
X4422027Y-16519388D02*
X4412503Y-16538436D01*
X4412503Y-16538436D02*
X4402979Y-16547960D01*
X4402979Y-16547960D02*
X4383932Y-16557484D01*
X4383932Y-16557484D02*
X4364884Y-16557484D01*
X4364884Y-16557484D02*
X4345837Y-16547960D01*
X4345837Y-16547960D02*
X4336313Y-16538436D01*
X4336313Y-16538436D02*
X4326789Y-16519388D01*
X4326789Y-16519388D02*
X4317265Y-16481293D01*
X4317265Y-16481293D02*
X4317265Y-16433674D01*
X4317265Y-16433674D02*
X4326789Y-16395579D01*
X4326789Y-16395579D02*
X4336313Y-16376531D01*
X4336313Y-16376531D02*
X4345837Y-16367008D01*
X4345837Y-16367008D02*
X4364884Y-16357484D01*
X4517265Y-16538436D02*
X4526789Y-16547960D01*
X4526789Y-16547960D02*
X4517265Y-16557484D01*
X4517265Y-16557484D02*
X4507741Y-16547960D01*
X4507741Y-16547960D02*
X4517265Y-16538436D01*
X4517265Y-16538436D02*
X4517265Y-16557484D01*
X4650598Y-16357484D02*
X4669646Y-16357484D01*
X4669646Y-16357484D02*
X4688694Y-16367008D01*
X4688694Y-16367008D02*
X4698218Y-16376531D01*
X4698218Y-16376531D02*
X4707741Y-16395579D01*
X4707741Y-16395579D02*
X4717265Y-16433674D01*
X4717265Y-16433674D02*
X4717265Y-16481293D01*
X4717265Y-16481293D02*
X4707741Y-16519388D01*
X4707741Y-16519388D02*
X4698218Y-16538436D01*
X4698218Y-16538436D02*
X4688694Y-16547960D01*
X4688694Y-16547960D02*
X4669646Y-16557484D01*
X4669646Y-16557484D02*
X4650598Y-16557484D01*
X4650598Y-16557484D02*
X4631551Y-16547960D01*
X4631551Y-16547960D02*
X4622027Y-16538436D01*
X4622027Y-16538436D02*
X4612503Y-16519388D01*
X4612503Y-16519388D02*
X4602979Y-16481293D01*
X4602979Y-16481293D02*
X4602979Y-16433674D01*
X4602979Y-16433674D02*
X4612503Y-16395579D01*
X4612503Y-16395579D02*
X4622027Y-16376531D01*
X4622027Y-16376531D02*
X4631551Y-16367008D01*
X4631551Y-16367008D02*
X4650598Y-16357484D01*
X4907741Y-16557484D02*
X4793456Y-16557484D01*
X4850598Y-16557484D02*
X4850598Y-16357484D01*
X4850598Y-16357484D02*
X4831551Y-16386055D01*
X4831551Y-16386055D02*
X4812503Y-16405103D01*
X4812503Y-16405103D02*
X4793456Y-16414627D01*
X5002979Y-16557484D02*
X5041075Y-16557484D01*
X5041075Y-16557484D02*
X5060122Y-16547960D01*
X5060122Y-16547960D02*
X5069646Y-16538436D01*
X5069646Y-16538436D02*
X5088694Y-16509865D01*
X5088694Y-16509865D02*
X5098218Y-16471769D01*
X5098218Y-16471769D02*
X5098218Y-16395579D01*
X5098218Y-16395579D02*
X5088694Y-16376531D01*
X5088694Y-16376531D02*
X5079170Y-16367008D01*
X5079170Y-16367008D02*
X5060122Y-16357484D01*
X5060122Y-16357484D02*
X5022027Y-16357484D01*
X5022027Y-16357484D02*
X5002979Y-16367008D01*
X5002979Y-16367008D02*
X4993456Y-16376531D01*
X4993456Y-16376531D02*
X4983932Y-16395579D01*
X4983932Y-16395579D02*
X4983932Y-16443198D01*
X4983932Y-16443198D02*
X4993456Y-16462246D01*
X4993456Y-16462246D02*
X5002979Y-16471769D01*
X5002979Y-16471769D02*
X5022027Y-16481293D01*
X5022027Y-16481293D02*
X5060122Y-16481293D01*
X5060122Y-16481293D02*
X5079170Y-16471769D01*
X5079170Y-16471769D02*
X5088694Y-16462246D01*
X5088694Y-16462246D02*
X5098218Y-16443198D01*
X5164884Y-16357484D02*
X5298218Y-16357484D01*
X5298218Y-16357484D02*
X5212503Y-16557484D01*
X5364884Y-16357484D02*
X5364884Y-16395579D01*
X5441075Y-16357484D02*
X5441075Y-16395579D01*
X5736313Y-16633674D02*
X5726789Y-16624150D01*
X5726789Y-16624150D02*
X5707741Y-16595579D01*
X5707741Y-16595579D02*
X5698218Y-16576531D01*
X5698218Y-16576531D02*
X5688694Y-16547960D01*
X5688694Y-16547960D02*
X5679170Y-16500341D01*
X5679170Y-16500341D02*
X5679170Y-16462246D01*
X5679170Y-16462246D02*
X5688694Y-16414627D01*
X5688694Y-16414627D02*
X5698218Y-16386055D01*
X5698218Y-16386055D02*
X5707741Y-16367008D01*
X5707741Y-16367008D02*
X5726789Y-16338436D01*
X5726789Y-16338436D02*
X5736313Y-16328912D01*
X5917265Y-16557484D02*
X5802979Y-16557484D01*
X5860122Y-16557484D02*
X5860122Y-16357484D01*
X5860122Y-16357484D02*
X5841075Y-16386055D01*
X5841075Y-16386055D02*
X5822027Y-16405103D01*
X5822027Y-16405103D02*
X5802979Y-16414627D01*
X6041075Y-16357484D02*
X6060122Y-16357484D01*
X6060122Y-16357484D02*
X6079170Y-16367008D01*
X6079170Y-16367008D02*
X6088694Y-16376531D01*
X6088694Y-16376531D02*
X6098218Y-16395579D01*
X6098218Y-16395579D02*
X6107741Y-16433674D01*
X6107741Y-16433674D02*
X6107741Y-16481293D01*
X6107741Y-16481293D02*
X6098218Y-16519388D01*
X6098218Y-16519388D02*
X6088694Y-16538436D01*
X6088694Y-16538436D02*
X6079170Y-16547960D01*
X6079170Y-16547960D02*
X6060122Y-16557484D01*
X6060122Y-16557484D02*
X6041075Y-16557484D01*
X6041075Y-16557484D02*
X6022027Y-16547960D01*
X6022027Y-16547960D02*
X6012503Y-16538436D01*
X6012503Y-16538436D02*
X6002979Y-16519388D01*
X6002979Y-16519388D02*
X5993456Y-16481293D01*
X5993456Y-16481293D02*
X5993456Y-16433674D01*
X5993456Y-16433674D02*
X6002979Y-16395579D01*
X6002979Y-16395579D02*
X6012503Y-16376531D01*
X6012503Y-16376531D02*
X6022027Y-16367008D01*
X6022027Y-16367008D02*
X6041075Y-16357484D01*
X6279170Y-16424150D02*
X6279170Y-16557484D01*
X6231551Y-16347960D02*
X6183932Y-16490817D01*
X6183932Y-16490817D02*
X6307741Y-16490817D01*
X6536313Y-16557484D02*
X6536313Y-16357484D01*
X6622027Y-16557484D02*
X6622027Y-16452722D01*
X6622027Y-16452722D02*
X6612503Y-16433674D01*
X6612503Y-16433674D02*
X6593456Y-16424150D01*
X6593456Y-16424150D02*
X6564884Y-16424150D01*
X6564884Y-16424150D02*
X6545837Y-16433674D01*
X6545837Y-16433674D02*
X6536313Y-16443198D01*
X6745837Y-16557484D02*
X6726789Y-16547960D01*
X6726789Y-16547960D02*
X6717265Y-16538436D01*
X6717265Y-16538436D02*
X6707741Y-16519388D01*
X6707741Y-16519388D02*
X6707741Y-16462246D01*
X6707741Y-16462246D02*
X6717265Y-16443198D01*
X6717265Y-16443198D02*
X6726789Y-16433674D01*
X6726789Y-16433674D02*
X6745837Y-16424150D01*
X6745837Y-16424150D02*
X6774408Y-16424150D01*
X6774408Y-16424150D02*
X6793456Y-16433674D01*
X6793456Y-16433674D02*
X6802980Y-16443198D01*
X6802980Y-16443198D02*
X6812503Y-16462246D01*
X6812503Y-16462246D02*
X6812503Y-16519388D01*
X6812503Y-16519388D02*
X6802980Y-16538436D01*
X6802980Y-16538436D02*
X6793456Y-16547960D01*
X6793456Y-16547960D02*
X6774408Y-16557484D01*
X6774408Y-16557484D02*
X6745837Y-16557484D01*
X6926789Y-16557484D02*
X6907741Y-16547960D01*
X6907741Y-16547960D02*
X6898218Y-16528912D01*
X6898218Y-16528912D02*
X6898218Y-16357484D01*
X7079170Y-16547960D02*
X7060122Y-16557484D01*
X7060122Y-16557484D02*
X7022027Y-16557484D01*
X7022027Y-16557484D02*
X7002980Y-16547960D01*
X7002980Y-16547960D02*
X6993456Y-16528912D01*
X6993456Y-16528912D02*
X6993456Y-16452722D01*
X6993456Y-16452722D02*
X7002980Y-16433674D01*
X7002980Y-16433674D02*
X7022027Y-16424150D01*
X7022027Y-16424150D02*
X7060122Y-16424150D01*
X7060122Y-16424150D02*
X7079170Y-16433674D01*
X7079170Y-16433674D02*
X7088694Y-16452722D01*
X7088694Y-16452722D02*
X7088694Y-16471769D01*
X7088694Y-16471769D02*
X6993456Y-16490817D01*
X7164884Y-16547960D02*
X7183932Y-16557484D01*
X7183932Y-16557484D02*
X7222027Y-16557484D01*
X7222027Y-16557484D02*
X7241075Y-16547960D01*
X7241075Y-16547960D02*
X7250599Y-16528912D01*
X7250599Y-16528912D02*
X7250599Y-16519388D01*
X7250599Y-16519388D02*
X7241075Y-16500341D01*
X7241075Y-16500341D02*
X7222027Y-16490817D01*
X7222027Y-16490817D02*
X7193456Y-16490817D01*
X7193456Y-16490817D02*
X7174408Y-16481293D01*
X7174408Y-16481293D02*
X7164884Y-16462246D01*
X7164884Y-16462246D02*
X7164884Y-16452722D01*
X7164884Y-16452722D02*
X7174408Y-16433674D01*
X7174408Y-16433674D02*
X7193456Y-16424150D01*
X7193456Y-16424150D02*
X7222027Y-16424150D01*
X7222027Y-16424150D02*
X7241075Y-16433674D01*
X7317265Y-16633674D02*
X7326789Y-16624150D01*
X7326789Y-16624150D02*
X7345837Y-16595579D01*
X7345837Y-16595579D02*
X7355361Y-16576531D01*
X7355361Y-16576531D02*
X7364884Y-16547960D01*
X7364884Y-16547960D02*
X7374408Y-16500341D01*
X7374408Y-16500341D02*
X7374408Y-16462246D01*
X7374408Y-16462246D02*
X7364884Y-16414627D01*
X7364884Y-16414627D02*
X7355361Y-16386055D01*
X7355361Y-16386055D02*
X7345837Y-16367008D01*
X7345837Y-16367008D02*
X7326789Y-16338436D01*
X7326789Y-16338436D02*
X7317265Y-16328912D01*
X7679170Y-16633674D02*
X7669646Y-16624150D01*
X7669646Y-16624150D02*
X7650599Y-16595579D01*
X7650599Y-16595579D02*
X7641075Y-16576531D01*
X7641075Y-16576531D02*
X7631551Y-16547960D01*
X7631551Y-16547960D02*
X7622027Y-16500341D01*
X7622027Y-16500341D02*
X7622027Y-16462246D01*
X7622027Y-16462246D02*
X7631551Y-16414627D01*
X7631551Y-16414627D02*
X7641075Y-16386055D01*
X7641075Y-16386055D02*
X7650599Y-16367008D01*
X7650599Y-16367008D02*
X7669646Y-16338436D01*
X7669646Y-16338436D02*
X7679170Y-16328912D01*
X7755361Y-16424150D02*
X7755361Y-16557484D01*
X7755361Y-16443198D02*
X7764884Y-16433674D01*
X7764884Y-16433674D02*
X7783932Y-16424150D01*
X7783932Y-16424150D02*
X7812503Y-16424150D01*
X7812503Y-16424150D02*
X7831551Y-16433674D01*
X7831551Y-16433674D02*
X7841075Y-16452722D01*
X7841075Y-16452722D02*
X7841075Y-16557484D01*
X7964884Y-16557484D02*
X7945837Y-16547960D01*
X7945837Y-16547960D02*
X7936313Y-16538436D01*
X7936313Y-16538436D02*
X7926789Y-16519388D01*
X7926789Y-16519388D02*
X7926789Y-16462246D01*
X7926789Y-16462246D02*
X7936313Y-16443198D01*
X7936313Y-16443198D02*
X7945837Y-16433674D01*
X7945837Y-16433674D02*
X7964884Y-16424150D01*
X7964884Y-16424150D02*
X7993456Y-16424150D01*
X7993456Y-16424150D02*
X8012503Y-16433674D01*
X8012503Y-16433674D02*
X8022027Y-16443198D01*
X8022027Y-16443198D02*
X8031551Y-16462246D01*
X8031551Y-16462246D02*
X8031551Y-16519388D01*
X8031551Y-16519388D02*
X8022027Y-16538436D01*
X8022027Y-16538436D02*
X8012503Y-16547960D01*
X8012503Y-16547960D02*
X7993456Y-16557484D01*
X7993456Y-16557484D02*
X7964884Y-16557484D01*
X8088694Y-16424150D02*
X8164884Y-16424150D01*
X8117265Y-16357484D02*
X8117265Y-16528912D01*
X8117265Y-16528912D02*
X8126789Y-16547960D01*
X8126789Y-16547960D02*
X8145837Y-16557484D01*
X8145837Y-16557484D02*
X8164884Y-16557484D01*
X8383932Y-16424150D02*
X8383932Y-16624150D01*
X8383932Y-16433674D02*
X8402980Y-16424150D01*
X8402980Y-16424150D02*
X8441075Y-16424150D01*
X8441075Y-16424150D02*
X8460123Y-16433674D01*
X8460123Y-16433674D02*
X8469646Y-16443198D01*
X8469646Y-16443198D02*
X8479170Y-16462246D01*
X8479170Y-16462246D02*
X8479170Y-16519388D01*
X8479170Y-16519388D02*
X8469646Y-16538436D01*
X8469646Y-16538436D02*
X8460123Y-16547960D01*
X8460123Y-16547960D02*
X8441075Y-16557484D01*
X8441075Y-16557484D02*
X8402980Y-16557484D01*
X8402980Y-16557484D02*
X8383932Y-16547960D01*
X8593456Y-16557484D02*
X8574408Y-16547960D01*
X8574408Y-16547960D02*
X8564885Y-16528912D01*
X8564885Y-16528912D02*
X8564885Y-16357484D01*
X8755361Y-16557484D02*
X8755361Y-16452722D01*
X8755361Y-16452722D02*
X8745837Y-16433674D01*
X8745837Y-16433674D02*
X8726789Y-16424150D01*
X8726789Y-16424150D02*
X8688694Y-16424150D01*
X8688694Y-16424150D02*
X8669646Y-16433674D01*
X8755361Y-16547960D02*
X8736313Y-16557484D01*
X8736313Y-16557484D02*
X8688694Y-16557484D01*
X8688694Y-16557484D02*
X8669646Y-16547960D01*
X8669646Y-16547960D02*
X8660123Y-16528912D01*
X8660123Y-16528912D02*
X8660123Y-16509865D01*
X8660123Y-16509865D02*
X8669646Y-16490817D01*
X8669646Y-16490817D02*
X8688694Y-16481293D01*
X8688694Y-16481293D02*
X8736313Y-16481293D01*
X8736313Y-16481293D02*
X8755361Y-16471769D01*
X8822027Y-16424150D02*
X8898218Y-16424150D01*
X8850599Y-16357484D02*
X8850599Y-16528912D01*
X8850599Y-16528912D02*
X8860123Y-16547960D01*
X8860123Y-16547960D02*
X8879170Y-16557484D01*
X8879170Y-16557484D02*
X8898218Y-16557484D01*
X9041075Y-16547960D02*
X9022027Y-16557484D01*
X9022027Y-16557484D02*
X8983932Y-16557484D01*
X8983932Y-16557484D02*
X8964885Y-16547960D01*
X8964885Y-16547960D02*
X8955361Y-16528912D01*
X8955361Y-16528912D02*
X8955361Y-16452722D01*
X8955361Y-16452722D02*
X8964885Y-16433674D01*
X8964885Y-16433674D02*
X8983932Y-16424150D01*
X8983932Y-16424150D02*
X9022027Y-16424150D01*
X9022027Y-16424150D02*
X9041075Y-16433674D01*
X9041075Y-16433674D02*
X9050599Y-16452722D01*
X9050599Y-16452722D02*
X9050599Y-16471769D01*
X9050599Y-16471769D02*
X8955361Y-16490817D01*
X9222027Y-16557484D02*
X9222027Y-16357484D01*
X9222027Y-16547960D02*
X9202980Y-16557484D01*
X9202980Y-16557484D02*
X9164885Y-16557484D01*
X9164885Y-16557484D02*
X9145837Y-16547960D01*
X9145837Y-16547960D02*
X9136313Y-16538436D01*
X9136313Y-16538436D02*
X9126789Y-16519388D01*
X9126789Y-16519388D02*
X9126789Y-16462246D01*
X9126789Y-16462246D02*
X9136313Y-16443198D01*
X9136313Y-16443198D02*
X9145837Y-16433674D01*
X9145837Y-16433674D02*
X9164885Y-16424150D01*
X9164885Y-16424150D02*
X9202980Y-16424150D01*
X9202980Y-16424150D02*
X9222027Y-16433674D01*
X9298218Y-16633674D02*
X9307742Y-16624150D01*
X9307742Y-16624150D02*
X9326789Y-16595579D01*
X9326789Y-16595579D02*
X9336313Y-16576531D01*
X9336313Y-16576531D02*
X9345837Y-16547960D01*
X9345837Y-16547960D02*
X9355361Y-16500341D01*
X9355361Y-16500341D02*
X9355361Y-16462246D01*
X9355361Y-16462246D02*
X9345837Y-16414627D01*
X9345837Y-16414627D02*
X9336313Y-16386055D01*
X9336313Y-16386055D02*
X9326789Y-16367008D01*
X9326789Y-16367008D02*
X9307742Y-16338436D01*
X9307742Y-16338436D02*
X9298218Y-16328912D01*
M02*
