M48
; DRILL file {KiCad 7.0.11} date Sunday, October 20, 2024 at 12:39:09 PM
; FORMAT={-:-/ absolute / metric / decimal}
; #@! TF.CreationDate,2024-10-20T12:39:09+07:00
; #@! TF.GenerationSoftware,Kicad,Pcbnew,7.0.11
; #@! TF.FileFunction,NonPlated,1,2,NPTH
FMAT,2
METRIC
; #@! TA.AperFunction,NonPlated,NPTH,ComponentDrill
T1C0.500
%
G90
G05
T1
X44.73Y-88.105
X44.73Y-90.105
X45.73Y-88.105
X45.73Y-90.105
X46.73Y-88.105
X46.73Y-90.105
X47.73Y-88.105
X47.73Y-90.105
X70.797Y-52.552
X70.797Y-53.552
X70.797Y-54.552
X70.797Y-55.552
X70.797Y-122.657
X70.797Y-123.657
X70.797Y-124.657
X70.797Y-125.657
X72.797Y-52.552
X72.797Y-53.552
X72.797Y-54.552
X72.797Y-55.552
X72.797Y-122.657
X72.797Y-123.657
X72.797Y-124.657
X72.797Y-125.657
X95.865Y-88.105
X95.865Y-90.105
X96.865Y-88.105
X96.865Y-90.105
X97.865Y-88.105
X97.865Y-90.105
X98.865Y-88.105
X98.865Y-90.105
X121.932Y-52.552
X121.932Y-53.552
X121.932Y-54.552
X121.932Y-55.552
X121.932Y-122.657
X121.932Y-123.657
X121.932Y-124.657
X121.932Y-125.657
X123.932Y-52.552
X123.932Y-53.552
X123.932Y-54.552
X123.932Y-55.552
X123.932Y-122.657
X123.932Y-123.657
X123.932Y-124.657
X123.932Y-125.657
X147.0Y-88.105
X147.0Y-90.105
X148.0Y-88.105
X148.0Y-90.105
X149.0Y-88.105
X149.0Y-90.105
X150.0Y-88.105
X150.0Y-90.105
X173.067Y-52.552
X173.067Y-53.552
X173.067Y-54.552
X173.067Y-55.552
X173.067Y-122.657
X173.067Y-123.657
X173.067Y-124.657
X173.067Y-125.657
X175.067Y-52.552
X175.067Y-53.552
X175.067Y-54.552
X175.067Y-55.552
X175.067Y-122.657
X175.067Y-123.657
X175.067Y-124.657
X175.067Y-125.657
X198.135Y-88.105
X198.135Y-90.105
X199.135Y-88.105
X199.135Y-90.105
X200.135Y-88.105
X200.135Y-90.105
X201.135Y-88.105
X201.135Y-90.105
X224.202Y-52.552
X224.202Y-53.552
X224.202Y-54.552
X224.202Y-55.552
X224.202Y-122.657
X224.202Y-123.657
X224.202Y-124.657
X224.202Y-125.657
X226.202Y-52.552
X226.202Y-53.552
X226.202Y-54.552
X226.202Y-55.552
X226.202Y-122.657
X226.202Y-123.657
X226.202Y-124.657
X226.202Y-125.657
X249.27Y-88.105
X249.27Y-90.105
X250.27Y-88.105
X250.27Y-90.105
X251.27Y-88.105
X251.27Y-90.105
X252.27Y-88.105
X252.27Y-90.105
M30
