M48
; DRILL file {KiCad 7.0.11} date Sunday, October 20, 2024 at 12:39:09 PM
; FORMAT={-:-/ absolute / metric / decimal}
; #@! TF.CreationDate,2024-10-20T12:39:09+07:00
; #@! TF.GenerationSoftware,Kicad,Pcbnew,7.0.11
; #@! TF.FileFunction,Plated,1,2,PTH
FMAT,2
METRIC
; #@! TA.AperFunction,Plated,PTH,ViaDrill
T1C0.300
; #@! TA.AperFunction,Plated,PTH,ComponentDrill
T2C0.600
; #@! TA.AperFunction,Plated,PTH,ComponentDrill
T3C0.700
; #@! TA.AperFunction,Plated,PTH,ComponentDrill
T4C0.800
; #@! TA.AperFunction,Plated,PTH,ComponentDrill
T5C1.000
; #@! TA.AperFunction,Plated,PTH,ComponentDrill
T6C1.080
; #@! TA.AperFunction,Plated,PTH,ComponentDrill
T7C3.200
%
G90
G05
T1
X30.603Y-37.952
X30.603Y-39.222
X30.603Y-40.492
X30.603Y-108.057
X30.603Y-109.327
X30.603Y-110.597
X32.353Y-64.952
X32.353Y-66.222
X32.353Y-67.492
X32.353Y-135.057
X32.353Y-136.327
X32.353Y-137.597
X33.853Y-38.452
X33.853Y-39.722
X33.853Y-40.992
X33.853Y-108.557
X33.853Y-109.827
X33.853Y-111.097
X37.853Y-38.952
X37.853Y-109.057
X39.123Y-38.952
X39.123Y-109.057
X40.393Y-38.952
X40.393Y-109.057
X44.653Y-38.952
X44.653Y-109.057
X44.853Y-53.912
X44.853Y-55.182
X44.853Y-56.452
X44.853Y-124.017
X44.853Y-125.287
X44.853Y-126.557
X45.623Y-38.952
X45.623Y-109.057
X46.893Y-38.952
X46.893Y-109.057
X49.853Y-38.952
X49.853Y-109.057
X51.123Y-38.952
X51.123Y-109.057
X52.393Y-38.952
X52.393Y-109.057
X55.353Y-53.912
X55.353Y-55.182
X55.353Y-56.452
X55.353Y-124.017
X55.353Y-125.287
X55.353Y-126.557
X55.603Y-64.912
X55.603Y-66.182
X55.603Y-67.452
X55.603Y-135.017
X55.603Y-136.287
X55.603Y-137.557
X56.353Y-38.952
X56.353Y-40.222
X56.353Y-41.492
X56.353Y-109.057
X56.353Y-110.327
X56.353Y-111.597
X59.853Y-38.952
X59.853Y-109.057
X61.123Y-38.952
X61.123Y-109.057
X63.123Y-38.952
X63.123Y-109.057
X81.738Y-37.952
X81.738Y-39.222
X81.738Y-40.492
X81.738Y-108.057
X81.738Y-109.327
X81.738Y-110.597
X83.488Y-64.952
X83.488Y-66.222
X83.488Y-67.492
X83.488Y-135.057
X83.488Y-136.327
X83.488Y-137.597
X84.988Y-38.452
X84.988Y-39.722
X84.988Y-40.992
X84.988Y-108.557
X84.988Y-109.827
X84.988Y-111.097
X88.988Y-38.952
X88.988Y-109.057
X90.258Y-38.952
X90.258Y-109.057
X91.528Y-38.952
X91.528Y-109.057
X95.788Y-38.952
X95.788Y-109.057
X95.988Y-53.912
X95.988Y-55.182
X95.988Y-56.452
X95.988Y-124.017
X95.988Y-125.287
X95.988Y-126.557
X96.758Y-38.952
X96.758Y-109.057
X98.028Y-38.952
X98.028Y-109.057
X100.988Y-38.952
X100.988Y-109.057
X102.258Y-38.952
X102.258Y-109.057
X103.528Y-38.952
X103.528Y-109.057
X106.488Y-53.912
X106.488Y-55.182
X106.488Y-56.452
X106.488Y-124.017
X106.488Y-125.287
X106.488Y-126.557
X106.738Y-64.912
X106.738Y-66.182
X106.738Y-67.452
X106.738Y-135.017
X106.738Y-136.287
X106.738Y-137.557
X107.488Y-38.952
X107.488Y-40.222
X107.488Y-41.492
X107.488Y-109.057
X107.488Y-110.327
X107.488Y-111.597
X110.988Y-38.952
X110.988Y-109.057
X112.258Y-38.952
X112.258Y-109.057
X114.258Y-38.952
X114.258Y-109.057
X132.873Y-37.952
X132.873Y-39.222
X132.873Y-40.492
X132.873Y-108.057
X132.873Y-109.327
X132.873Y-110.597
X134.623Y-64.952
X134.623Y-66.222
X134.623Y-67.492
X134.623Y-135.057
X134.623Y-136.327
X134.623Y-137.597
X136.123Y-38.452
X136.123Y-39.722
X136.123Y-40.992
X136.123Y-108.557
X136.123Y-109.827
X136.123Y-111.097
X140.123Y-38.952
X140.123Y-109.057
X141.393Y-38.952
X141.393Y-109.057
X142.663Y-38.952
X142.663Y-109.057
X146.923Y-38.952
X146.923Y-109.057
X147.123Y-53.912
X147.123Y-55.182
X147.123Y-56.452
X147.123Y-124.017
X147.123Y-125.287
X147.123Y-126.557
X147.893Y-38.952
X147.893Y-109.057
X149.163Y-38.952
X149.163Y-109.057
X152.123Y-38.952
X152.123Y-109.057
X153.393Y-38.952
X153.393Y-109.057
X154.663Y-38.952
X154.663Y-109.057
X157.623Y-53.912
X157.623Y-55.182
X157.623Y-56.452
X157.623Y-124.017
X157.623Y-125.287
X157.623Y-126.557
X157.873Y-64.912
X157.873Y-66.182
X157.873Y-67.452
X157.873Y-135.017
X157.873Y-136.287
X157.873Y-137.557
X158.623Y-38.952
X158.623Y-40.222
X158.623Y-41.492
X158.623Y-109.057
X158.623Y-110.327
X158.623Y-111.597
X162.123Y-38.952
X162.123Y-109.057
X163.393Y-38.952
X163.393Y-109.057
X165.393Y-38.952
X165.393Y-109.057
X184.008Y-37.952
X184.008Y-39.222
X184.008Y-40.492
X184.008Y-108.057
X184.008Y-109.327
X184.008Y-110.597
X185.758Y-64.952
X185.758Y-66.222
X185.758Y-67.492
X185.758Y-135.057
X185.758Y-136.327
X185.758Y-137.597
X187.258Y-38.452
X187.258Y-39.722
X187.258Y-40.992
X187.258Y-108.557
X187.258Y-109.827
X187.258Y-111.097
X191.258Y-38.952
X191.258Y-109.057
X192.528Y-38.952
X192.528Y-109.057
X193.798Y-38.952
X193.798Y-109.057
X198.058Y-38.952
X198.058Y-109.057
X198.258Y-53.912
X198.258Y-55.182
X198.258Y-56.452
X198.258Y-124.017
X198.258Y-125.287
X198.258Y-126.557
X199.028Y-38.952
X199.028Y-109.057
X200.298Y-38.952
X200.298Y-109.057
X203.258Y-38.952
X203.258Y-109.057
X204.528Y-38.952
X204.528Y-109.057
X205.798Y-38.952
X205.798Y-109.057
X208.758Y-53.912
X208.758Y-55.182
X208.758Y-56.452
X208.758Y-124.017
X208.758Y-125.287
X208.758Y-126.557
X209.008Y-64.912
X209.008Y-66.182
X209.008Y-67.452
X209.008Y-135.017
X209.008Y-136.287
X209.008Y-137.557
X209.758Y-38.952
X209.758Y-40.222
X209.758Y-41.492
X209.758Y-109.057
X209.758Y-110.327
X209.758Y-111.597
X213.258Y-38.952
X213.258Y-109.057
X214.528Y-38.952
X214.528Y-109.057
X216.528Y-38.952
X216.528Y-109.057
X235.143Y-37.952
X235.143Y-39.222
X235.143Y-40.492
X235.143Y-108.057
X235.143Y-109.327
X235.143Y-110.597
X236.893Y-64.952
X236.893Y-66.222
X236.893Y-67.492
X236.893Y-135.057
X236.893Y-136.327
X236.893Y-137.597
X238.393Y-38.452
X238.393Y-39.722
X238.393Y-40.992
X238.393Y-108.557
X238.393Y-109.827
X238.393Y-111.097
X242.393Y-38.952
X242.393Y-109.057
X243.663Y-38.952
X243.663Y-109.057
X244.933Y-38.952
X244.933Y-109.057
X249.193Y-38.952
X249.193Y-109.057
X249.393Y-53.912
X249.393Y-55.182
X249.393Y-56.452
X249.393Y-124.017
X249.393Y-125.287
X249.393Y-126.557
X250.163Y-38.952
X250.163Y-109.057
X251.433Y-38.952
X251.433Y-109.057
X254.393Y-38.952
X254.393Y-109.057
X255.663Y-38.952
X255.663Y-109.057
X256.933Y-38.952
X256.933Y-109.057
X259.893Y-53.912
X259.893Y-55.182
X259.893Y-56.452
X259.893Y-124.017
X259.893Y-125.287
X259.893Y-126.557
X260.143Y-64.912
X260.143Y-66.182
X260.143Y-67.452
X260.143Y-135.017
X260.143Y-136.287
X260.143Y-137.557
X260.893Y-38.952
X260.893Y-40.222
X260.893Y-41.492
X260.893Y-109.057
X260.893Y-110.327
X260.893Y-111.597
X264.393Y-38.952
X264.393Y-109.057
X265.663Y-38.952
X265.663Y-109.057
X267.663Y-38.952
X267.663Y-109.057
T2
X37.853Y-63.31
X37.853Y-68.136
X37.853Y-133.415
X37.853Y-138.241
X39.353Y-63.31
X39.353Y-68.136
X39.353Y-133.415
X39.353Y-138.241
X88.988Y-63.31
X88.988Y-68.136
X88.988Y-133.415
X88.988Y-138.241
X90.488Y-63.31
X90.488Y-68.136
X90.488Y-133.415
X90.488Y-138.241
X140.123Y-63.31
X140.123Y-68.136
X140.123Y-133.415
X140.123Y-138.241
X141.623Y-63.31
X141.623Y-68.136
X141.623Y-133.415
X141.623Y-138.241
X191.258Y-63.31
X191.258Y-68.136
X191.258Y-133.415
X191.258Y-138.241
X192.758Y-63.31
X192.758Y-68.136
X192.758Y-133.415
X192.758Y-138.241
X242.393Y-63.31
X242.393Y-68.136
X242.393Y-133.415
X242.393Y-138.241
X243.893Y-63.31
X243.893Y-68.136
X243.893Y-133.415
X243.893Y-138.241
T3
X34.772Y-71.946
X34.772Y-142.051
X42.392Y-71.946
X42.392Y-142.051
X45.879Y-59.464
X45.879Y-62.766
X45.879Y-129.569
X45.879Y-132.871
X53.499Y-59.464
X53.499Y-62.766
X53.499Y-129.569
X53.499Y-132.871
X57.543Y-59.464
X57.543Y-63.02
X57.543Y-129.569
X57.543Y-133.125
X65.163Y-59.464
X65.163Y-63.02
X65.163Y-129.569
X65.163Y-133.125
X85.907Y-71.946
X85.907Y-142.051
X93.527Y-71.946
X93.527Y-142.051
X97.014Y-59.464
X97.014Y-62.766
X97.014Y-129.569
X97.014Y-132.871
X104.634Y-59.464
X104.634Y-62.766
X104.634Y-129.569
X104.634Y-132.871
X108.678Y-59.464
X108.678Y-63.02
X108.678Y-129.569
X108.678Y-133.125
X116.298Y-59.464
X116.298Y-63.02
X116.298Y-129.569
X116.298Y-133.125
X137.042Y-71.946
X137.042Y-142.051
X144.662Y-71.946
X144.662Y-142.051
X148.149Y-59.464
X148.149Y-62.766
X148.149Y-129.569
X148.149Y-132.871
X155.769Y-59.464
X155.769Y-62.766
X155.769Y-129.569
X155.769Y-132.871
X159.813Y-59.464
X159.813Y-63.02
X159.813Y-129.569
X159.813Y-133.125
X167.433Y-59.464
X167.433Y-63.02
X167.433Y-129.569
X167.433Y-133.125
X188.177Y-71.946
X188.177Y-142.051
X195.797Y-71.946
X195.797Y-142.051
X199.284Y-59.464
X199.284Y-62.766
X199.284Y-129.569
X199.284Y-132.871
X206.904Y-59.464
X206.904Y-62.766
X206.904Y-129.569
X206.904Y-132.871
X210.948Y-59.464
X210.948Y-63.02
X210.948Y-129.569
X210.948Y-133.125
X218.568Y-59.464
X218.568Y-63.02
X218.568Y-129.569
X218.568Y-133.125
X239.312Y-71.946
X239.312Y-142.051
X246.932Y-71.946
X246.932Y-142.051
X250.419Y-59.464
X250.419Y-62.766
X250.419Y-129.569
X250.419Y-132.871
X258.039Y-59.464
X258.039Y-62.766
X258.039Y-129.569
X258.039Y-132.871
X262.083Y-59.464
X262.083Y-63.02
X262.083Y-129.569
X262.083Y-133.125
X269.703Y-59.464
X269.703Y-63.02
X269.703Y-129.569
X269.703Y-133.125
T4
X36.836Y-56.452
X36.836Y-126.557
X37.238Y-76.264
X37.238Y-146.369
X39.738Y-76.264
X39.738Y-146.369
X40.336Y-56.452
X40.336Y-126.557
X48.439Y-66.576
X48.439Y-136.681
X48.988Y-55.146
X48.988Y-125.251
X50.939Y-66.576
X50.939Y-136.681
X50.988Y-55.146
X50.988Y-125.251
X60.183Y-66.83
X60.183Y-136.935
X60.492Y-55.146
X60.492Y-125.251
X62.492Y-55.146
X62.492Y-125.251
X62.683Y-66.83
X62.683Y-136.935
X87.971Y-56.452
X87.971Y-126.557
X88.373Y-76.264
X88.373Y-146.369
X90.873Y-76.264
X90.873Y-146.369
X91.471Y-56.452
X91.471Y-126.557
X99.574Y-66.576
X99.574Y-136.681
X100.123Y-55.146
X100.123Y-125.251
X102.074Y-66.576
X102.074Y-136.681
X102.123Y-55.146
X102.123Y-125.251
X111.318Y-66.83
X111.318Y-136.935
X111.627Y-55.146
X111.627Y-125.251
X113.627Y-55.146
X113.627Y-125.251
X113.818Y-66.83
X113.818Y-136.935
X139.106Y-56.452
X139.106Y-126.557
X139.508Y-76.264
X139.508Y-146.369
X142.008Y-76.264
X142.008Y-146.369
X142.606Y-56.452
X142.606Y-126.557
X150.709Y-66.576
X150.709Y-136.681
X151.258Y-55.146
X151.258Y-125.251
X153.209Y-66.576
X153.209Y-136.681
X153.258Y-55.146
X153.258Y-125.251
X162.453Y-66.83
X162.453Y-136.935
X162.762Y-55.146
X162.762Y-125.251
X164.762Y-55.146
X164.762Y-125.251
X164.953Y-66.83
X164.953Y-136.935
X190.241Y-56.452
X190.241Y-126.557
X190.643Y-76.264
X190.643Y-146.369
X193.143Y-76.264
X193.143Y-146.369
X193.741Y-56.452
X193.741Y-126.557
X201.844Y-66.576
X201.844Y-136.681
X202.393Y-55.146
X202.393Y-125.251
X204.344Y-66.576
X204.344Y-136.681
X204.393Y-55.146
X204.393Y-125.251
X213.588Y-66.83
X213.588Y-136.935
X213.897Y-55.146
X213.897Y-125.251
X215.897Y-55.146
X215.897Y-125.251
X216.088Y-66.83
X216.088Y-136.935
X241.376Y-56.452
X241.376Y-126.557
X241.778Y-76.264
X241.778Y-146.369
X244.278Y-76.264
X244.278Y-146.369
X244.876Y-56.452
X244.876Y-126.557
X252.979Y-66.576
X252.979Y-136.681
X253.528Y-55.146
X253.528Y-125.251
X255.479Y-66.576
X255.479Y-136.681
X255.528Y-55.146
X255.528Y-125.251
X264.723Y-66.83
X264.723Y-136.935
X265.032Y-55.146
X265.032Y-125.251
X267.032Y-55.146
X267.032Y-125.251
X267.223Y-66.83
X267.223Y-136.935
T5
X29.353Y-42.767
X29.353Y-45.307
X29.353Y-47.847
X29.353Y-50.387
X29.353Y-59.912
X29.353Y-62.452
X29.353Y-64.992
X29.353Y-67.532
X29.353Y-112.872
X29.353Y-115.412
X29.353Y-117.952
X29.353Y-120.492
X29.353Y-130.017
X29.353Y-132.557
X29.353Y-135.097
X29.353Y-137.637
X36.121Y-46.624
X36.121Y-116.729
X41.121Y-46.624
X41.121Y-116.729
X47.355Y-46.67
X47.355Y-116.775
X52.033Y-75.952
X52.033Y-146.057
X52.355Y-46.67
X52.355Y-116.775
X54.573Y-75.952
X54.573Y-146.057
X57.113Y-75.952
X57.113Y-146.057
X58.986Y-46.67
X58.986Y-116.775
X59.653Y-75.952
X59.653Y-146.057
X63.986Y-46.67
X63.986Y-116.775
X80.488Y-42.767
X80.488Y-45.307
X80.488Y-47.847
X80.488Y-50.387
X80.488Y-59.912
X80.488Y-62.452
X80.488Y-64.992
X80.488Y-67.532
X80.488Y-112.872
X80.488Y-115.412
X80.488Y-117.952
X80.488Y-120.492
X80.488Y-130.017
X80.488Y-132.557
X80.488Y-135.097
X80.488Y-137.637
X87.256Y-46.624
X87.256Y-116.729
X92.256Y-46.624
X92.256Y-116.729
X98.49Y-46.67
X98.49Y-116.775
X103.168Y-75.952
X103.168Y-146.057
X103.49Y-46.67
X103.49Y-116.775
X105.708Y-75.952
X105.708Y-146.057
X108.248Y-75.952
X108.248Y-146.057
X110.121Y-46.67
X110.121Y-116.775
X110.788Y-75.952
X110.788Y-146.057
X115.121Y-46.67
X115.121Y-116.775
X131.623Y-42.767
X131.623Y-45.307
X131.623Y-47.847
X131.623Y-50.387
X131.623Y-59.912
X131.623Y-62.452
X131.623Y-64.992
X131.623Y-67.532
X131.623Y-112.872
X131.623Y-115.412
X131.623Y-117.952
X131.623Y-120.492
X131.623Y-130.017
X131.623Y-132.557
X131.623Y-135.097
X131.623Y-137.637
X138.391Y-46.624
X138.391Y-116.729
X143.391Y-46.624
X143.391Y-116.729
X149.625Y-46.67
X149.625Y-116.775
X154.303Y-75.952
X154.303Y-146.057
X154.625Y-46.67
X154.625Y-116.775
X156.843Y-75.952
X156.843Y-146.057
X159.383Y-75.952
X159.383Y-146.057
X161.256Y-46.67
X161.256Y-116.775
X161.923Y-75.952
X161.923Y-146.057
X166.256Y-46.67
X166.256Y-116.775
X182.758Y-42.767
X182.758Y-45.307
X182.758Y-47.847
X182.758Y-50.387
X182.758Y-59.912
X182.758Y-62.452
X182.758Y-64.992
X182.758Y-67.532
X182.758Y-112.872
X182.758Y-115.412
X182.758Y-117.952
X182.758Y-120.492
X182.758Y-130.017
X182.758Y-132.557
X182.758Y-135.097
X182.758Y-137.637
X189.526Y-46.624
X189.526Y-116.729
X194.526Y-46.624
X194.526Y-116.729
X200.76Y-46.67
X200.76Y-116.775
X205.438Y-75.952
X205.438Y-146.057
X205.76Y-46.67
X205.76Y-116.775
X207.978Y-75.952
X207.978Y-146.057
X210.518Y-75.952
X210.518Y-146.057
X212.391Y-46.67
X212.391Y-116.775
X213.058Y-75.952
X213.058Y-146.057
X217.391Y-46.67
X217.391Y-116.775
X233.893Y-42.767
X233.893Y-45.307
X233.893Y-47.847
X233.893Y-50.387
X233.893Y-59.912
X233.893Y-62.452
X233.893Y-64.992
X233.893Y-67.532
X233.893Y-112.872
X233.893Y-115.412
X233.893Y-117.952
X233.893Y-120.492
X233.893Y-130.017
X233.893Y-132.557
X233.893Y-135.097
X233.893Y-137.637
X240.661Y-46.624
X240.661Y-116.729
X245.661Y-46.624
X245.661Y-116.729
X251.895Y-46.67
X251.895Y-116.775
X256.573Y-75.952
X256.573Y-146.057
X256.895Y-46.67
X256.895Y-116.775
X259.113Y-75.952
X259.113Y-146.057
X261.653Y-75.952
X261.653Y-146.057
X263.526Y-46.67
X263.526Y-116.775
X264.193Y-75.952
X264.193Y-146.057
X268.526Y-46.67
X268.526Y-116.775
T6
X31.843Y-35.005
X31.843Y-105.11
X34.383Y-35.005
X34.383Y-105.11
X36.923Y-35.005
X36.923Y-105.11
X39.463Y-35.005
X39.463Y-105.11
X42.003Y-35.005
X42.003Y-105.11
X44.543Y-35.005
X44.543Y-105.11
X47.083Y-35.005
X47.083Y-105.11
X49.623Y-35.005
X49.623Y-105.11
X52.163Y-35.005
X52.163Y-105.11
X54.703Y-35.005
X54.703Y-105.11
X57.243Y-35.005
X57.243Y-105.11
X59.783Y-35.005
X59.783Y-105.11
X62.323Y-35.005
X62.323Y-105.11
X64.863Y-35.005
X64.863Y-105.11
X82.978Y-35.005
X82.978Y-105.11
X85.518Y-35.005
X85.518Y-105.11
X88.058Y-35.005
X88.058Y-105.11
X90.598Y-35.005
X90.598Y-105.11
X93.138Y-35.005
X93.138Y-105.11
X95.678Y-35.005
X95.678Y-105.11
X98.218Y-35.005
X98.218Y-105.11
X100.758Y-35.005
X100.758Y-105.11
X103.298Y-35.005
X103.298Y-105.11
X105.838Y-35.005
X105.838Y-105.11
X108.378Y-35.005
X108.378Y-105.11
X110.918Y-35.005
X110.918Y-105.11
X113.458Y-35.005
X113.458Y-105.11
X115.998Y-35.005
X115.998Y-105.11
X134.113Y-35.005
X134.113Y-105.11
X136.653Y-35.005
X136.653Y-105.11
X139.193Y-35.005
X139.193Y-105.11
X141.733Y-35.005
X141.733Y-105.11
X144.273Y-35.005
X144.273Y-105.11
X146.813Y-35.005
X146.813Y-105.11
X149.353Y-35.005
X149.353Y-105.11
X151.893Y-35.005
X151.893Y-105.11
X154.433Y-35.005
X154.433Y-105.11
X156.973Y-35.005
X156.973Y-105.11
X159.513Y-35.005
X159.513Y-105.11
X162.053Y-35.005
X162.053Y-105.11
X164.593Y-35.005
X164.593Y-105.11
X167.133Y-35.005
X167.133Y-105.11
X185.248Y-35.005
X185.248Y-105.11
X187.788Y-35.005
X187.788Y-105.11
X190.328Y-35.005
X190.328Y-105.11
X192.868Y-35.005
X192.868Y-105.11
X195.408Y-35.005
X195.408Y-105.11
X197.948Y-35.005
X197.948Y-105.11
X200.488Y-35.005
X200.488Y-105.11
X203.028Y-35.005
X203.028Y-105.11
X205.568Y-35.005
X205.568Y-105.11
X208.108Y-35.005
X208.108Y-105.11
X210.648Y-35.005
X210.648Y-105.11
X213.188Y-35.005
X213.188Y-105.11
X215.728Y-35.005
X215.728Y-105.11
X218.268Y-35.005
X218.268Y-105.11
X236.383Y-35.005
X236.383Y-105.11
X238.923Y-35.005
X238.923Y-105.11
X241.463Y-35.005
X241.463Y-105.11
X244.003Y-35.005
X244.003Y-105.11
X246.543Y-35.005
X246.543Y-105.11
X249.083Y-35.005
X249.083Y-105.11
X251.623Y-35.005
X251.623Y-105.11
X254.163Y-35.005
X254.163Y-105.11
X256.703Y-35.005
X256.703Y-105.11
X259.243Y-35.005
X259.243Y-105.11
X261.783Y-35.005
X261.783Y-105.11
X264.323Y-35.005
X264.323Y-105.11
X266.863Y-35.005
X266.863Y-105.11
X269.403Y-35.005
X269.403Y-105.11
T7
X26.103Y-25.452
X26.103Y-95.557
X26.353Y-82.071
X26.353Y-152.176
X66.353Y-25.715
X66.353Y-82.071
X66.353Y-95.82
X66.353Y-152.176
X77.238Y-25.452
X77.238Y-95.557
X77.488Y-82.071
X77.488Y-152.176
X117.488Y-25.715
X117.488Y-82.071
X117.488Y-95.82
X117.488Y-152.176
X128.373Y-25.452
X128.373Y-95.557
X128.623Y-82.071
X128.623Y-152.176
X168.623Y-25.715
X168.623Y-82.071
X168.623Y-95.82
X168.623Y-152.176
X179.508Y-25.452
X179.508Y-95.557
X179.758Y-82.071
X179.758Y-152.176
X219.758Y-25.715
X219.758Y-82.071
X219.758Y-95.82
X219.758Y-152.176
X230.643Y-25.452
X230.643Y-95.557
X230.893Y-82.071
X230.893Y-152.176
X270.893Y-25.715
X270.893Y-82.071
X270.893Y-95.82
X270.893Y-152.176
M30
